
CASCADE Topology V1, (c) Matra-Datavision
Locations 8
1
1.000000000000000 0.000000000000000 0.000000000000000 900.000000000000000 
0.000000000000000 1.000000000000000 0.000000000000000 -300.000000000000000 
0.000000000000000 0.000000000000000 1.000000000000000 400.000000000000000 
1
1.000000000000000 0.000000000000000 0.000000000000000 0.000000000000000 
0.000000000000000 1.000000000000000 0.000000000000000 0.000000000000000 
0.000000000000000 0.000000000000000 1.000000000000000 0.000000000000000 
1
1.000000000000000 0.000000000000000 0.000000000000000 0.000000000000000 
0.000000000000000 1.000000000000000 0.000000000000000 0.000000000000000 
0.000000000000000 0.000000000000000 1.000000000000000 6.000000000000000 
2  3 -1 2 -1 0
1
1.000000000000000 0.000000000000000 0.000000000000000 0.000000000000000 
0.000000000000000 1.000000000000000 0.000000000000000 0.000000000000000 
0.000000000000000 0.000000000000000 1.000000000000000 300.000000000000000 
2  3 -1 2 -1 5 -1 0
2  5 1 2 1 0
2  3 -1 0
Curve2ds 0
Curves 36
1 50.00000000000000000 0.00000000000000000 0.00000000000000000 0.00000000000000000 0.00000000000000000 1.00000000000000000 
1 25.00000000000000711 43.30127018922193116 0.00000000000000000 0.00000000000000000 0.00000000000000000 1.00000000000000000 
1 50.00000000000000000 0.00000000000000000 0.00000000000000000 -0.49999999999999994 0.86602540378443871 0.00000000000000000 
1 50.00000000000000000 0.00000000000000000 0.00000000000000000 -0.49999999999999994 0.86602540378443871 0.00000000000000000 
1 24.99999999999997868 -43.30127018922194537 0.00000000000000000 0.00000000000000000 0.00000000000000000 1.00000000000000000 
1 24.99999999999997868 -43.30127018922194537 0.00000000000000000 0.50000000000000033 0.86602540378443860 0.00000000000000000 
1 24.99999999999997868 -43.30127018922194537 0.00000000000000000 0.50000000000000033 0.86602540378443860 0.00000000000000000 
1 -24.99999999999999289 43.30127018922193827 0.00000000000000000 0.00000000000000000 0.00000000000000000 1.00000000000000000 
1 25.00000000000000711 43.30127018922193116 0.00000000000000000 -1.00000000000000000 0.00000000000000014 0.00000000000000000 
1 25.00000000000000711 43.30127018922193116 0.00000000000000000 -1.00000000000000000 0.00000000000000014 0.00000000000000000 
1 -24.99999999999999289 43.30127018922193827 0.00000000000000000 -0.50000000000000022 -0.86602540378443860 0.00000000000000000 
1 -50.00000000000000000 0.00000000000001421 0.00000000000000000 0.49999999999999972 -0.86602540378443893 0.00000000000000000 
1 -25.00000000000001776 -43.30127018922192406 0.00000000000000000 1.00000000000000000 -0.00000000000000043 0.00000000000000000 
1 -25.00000000000001776 -43.30127018922192406 0.00000000000000000 1.00000000000000000 -0.00000000000000043 0.00000000000000000 
1 -24.99999999999999289 43.30127018922193827 0.00000000000000000 -0.50000000000000022 -0.86602540378443860 0.00000000000000000 
1 -50.00000000000000000 0.00000000000001421 0.00000000000000000 0.49999999999999972 -0.86602540378443893 0.00000000000000000 
1 10.50000000000000178 36.37306695894642417 300.00000000000000000 1.00000000000000000 0.00000000000000000 0.00000000000000000 
1 -26.25000000000000000 27.27980021920982168 300.00000000000000000 0.50000000000000022 0.86602540378443860 0.00000000000000000 
1 -36.75000000000000711 -9.09326673973660071 300.00000000000000000 -0.49999999999999983 0.86602540378443882 0.00000000000000000 
1 -10.50000000000001243 -36.37306695894642417 300.00000000000000000 -1.00000000000000000 0.00000000000000034 0.00000000000000000 
1 26.24999999999999289 -27.27980021920982523 300.00000000000000000 -0.50000000000000022 -0.86602540378443860 0.00000000000000000 
1 36.75000000000000000 9.09326673973660426 300.00000000000000000 0.49999999999999989 -0.86602540378443871 0.00000000000000000 
1 -25.00000000000001776 -43.30127018922192406 0.00000000000000000 0.00000000000000000 0.00000000000000000 1.00000000000000000 
1 -50.00000000000000000 0.00000000000001421 0.00000000000000000 0.00000000000000000 0.00000000000000000 1.00000000000000000 
1 21.00000000000000355 36.37306695894642417 6.00000000000000000 -1.00000000000000000 0.00000000000000000 0.00000000000000000 
1 -20.99999999999999645 36.37306695894642417 6.00000000000000000 0.00000000000000000 0.00000000000000000 1.00000000000000000 
1 21.00000000000000355 36.37306695894642417 6.00000000000000000 0.00000000000000000 0.00000000000000000 1.00000000000000000 
1 -20.99999999999999645 36.37306695894642417 6.00000000000000000 -0.50000000000000022 -0.86602540378443860 0.00000000000000000 
1 -42.00000000000000000 0.00000000000000711 6.00000000000000000 0.00000000000000000 0.00000000000000000 1.00000000000000000 
1 -42.00000000000000000 0.00000000000000711 6.00000000000000000 0.49999999999999983 -0.86602540378443882 0.00000000000000000 
1 -21.00000000000001066 -36.37306695894641706 6.00000000000000000 0.00000000000000000 0.00000000000000000 1.00000000000000000 
1 -21.00000000000001066 -36.37306695894641706 6.00000000000000000 1.00000000000000000 -0.00000000000000034 0.00000000000000000 
1 20.99999999999998579 -36.37306695894643127 6.00000000000000000 0.00000000000000000 0.00000000000000000 1.00000000000000000 
1 20.99999999999998579 -36.37306695894643127 6.00000000000000000 0.50000000000000022 0.86602540378443860 0.00000000000000000 
1 42.00000000000000000 0.00000000000000000 6.00000000000000000 0.00000000000000000 0.00000000000000000 1.00000000000000000 
1 42.00000000000000000 0.00000000000000000 6.00000000000000000 -0.49999999999999989 0.86602540378443871 0.00000000000000000 
Polygon3D 0
PolygonOnTriangulations 0
Surfaces 15
1 50.00000000000000000 0.00000000000000000 0.00000000000000000 -0.86602540378443871 -0.49999999999999994 0.00000000000000000 -0.49999999999999994 0.86602540378443871 0.00000000000000000 -0.00000000000000000 0.00000000000000000 -1.00000000000000000 
1 24.99999999999997868 -43.30127018922194537 0.00000000000000000 -0.86602540378443860 0.50000000000000033 0.00000000000000000 0.50000000000000022 0.86602540378443849 0.00000000000000000 0.00000000000000000 0.00000000000000000 -1.00000000000000000 
1 25.00000000000000711 43.30127018922193116 0.00000000000000000 -0.00000000000000014 -1.00000000000000000 0.00000000000000000 -1.00000000000000000 0.00000000000000014 0.00000000000000000 -0.00000000000000000 0.00000000000000000 -1.00000000000000000 
1 -0.00000000000000076 0.00000000000000000 0.00000000000000000 0.00000000000000000 0.00000000000000000 1.00000000000000000 1.00000000000000000 0.00000000000000000 -0.00000000000000000 -0.00000000000000000 1.00000000000000000 0.00000000000000000 
1 -0.00000000000000076 0.00000000000000000 0.00000000000000000 0.00000000000000000 0.00000000000000000 1.00000000000000000 1.00000000000000000 0.00000000000000000 -0.00000000000000000 -0.00000000000000000 1.00000000000000000 0.00000000000000000 
1 -25.00000000000001776 -43.30127018922192406 0.00000000000000000 0.00000000000000043 1.00000000000000000 0.00000000000000000 1.00000000000000000 -0.00000000000000043 0.00000000000000000 0.00000000000000000 0.00000000000000000 -1.00000000000000000 
1 -24.99999999999999289 43.30127018922193827 0.00000000000000000 0.86602540378443860 -0.50000000000000022 0.00000000000000000 -0.50000000000000022 -0.86602540378443860 0.00000000000000000 0.00000000000000000 -0.00000000000000000 -1.00000000000000000 
1 -50.00000000000000000 0.00000000000001421 0.00000000000000000 0.86602540378443893 0.49999999999999972 0.00000000000000000 0.49999999999999972 -0.86602540378443893 0.00000000000000000 0.00000000000000000 0.00000000000000000 -1.00000000000000000 
1 21.00000000000000355 36.37306695894642417 6.00000000000000000 0.00000000000000000 -1.00000000000000000 0.00000000000000000 -1.00000000000000000 0.00000000000000000 0.00000000000000000 -0.00000000000000000 -0.00000000000000000 -1.00000000000000000 
1 -20.99999999999999645 36.37306695894642417 6.00000000000000000 0.86602540378443860 -0.50000000000000022 0.00000000000000000 -0.50000000000000022 -0.86602540378443860 0.00000000000000000 0.00000000000000000 -0.00000000000000000 -1.00000000000000000 
1 -42.00000000000000000 0.00000000000000711 6.00000000000000000 0.86602540378443882 0.49999999999999983 0.00000000000000000 0.49999999999999983 -0.86602540378443882 0.00000000000000000 0.00000000000000000 0.00000000000000000 -1.00000000000000000 
1 -21.00000000000001066 -36.37306695894641706 6.00000000000000000 0.00000000000000034 1.00000000000000000 0.00000000000000000 1.00000000000000000 -0.00000000000000034 0.00000000000000000 0.00000000000000000 0.00000000000000000 -1.00000000000000000 
1 20.99999999999998579 -36.37306695894643127 6.00000000000000000 -0.86602540378443860 0.50000000000000022 0.00000000000000000 0.50000000000000022 0.86602540378443860 0.00000000000000000 0.00000000000000000 0.00000000000000000 -1.00000000000000000 
1 42.00000000000000000 0.00000000000000000 6.00000000000000000 -0.86602540378443871 -0.49999999999999989 0.00000000000000000 -0.49999999999999989 0.86602540378443871 0.00000000000000000 -0.00000000000000000 0.00000000000000000 -1.00000000000000000 
1 -0.00000000000000135 -0.00000000000000135 6.00000000000000000 0.00000000000000000 0.00000000000000000 1.00000000000000000 1.00000000000000000 0.00000000000000000 -0.00000000000000000 -0.00000000000000000 1.00000000000000000 0.00000000000000000 
Triangulations 0

TShapes 93
Ve
0.000000100000000
50.000000000000000 0.000000000000000 6.000000000000000
0 0

0101101
*
Ve
0.000000100000000
50.000000000000000 0.000000000000000 306.000000000000000
0 0

0101101
*
Ed
 0.000000100000000 1 1 0
1  1 0 0.000000000000000 300.000000000000000
0

0101000
+93 4 -92 4 *
Ve
0.000000100000000
25.000000000000007 43.301270189221931 6.000000000000000
0 0

0101101
*
Ve
0.000000100000000
25.000000000000007 43.301270189221931 306.000000000000000
0 0

0101101
*
Ed
 0.000000100000000 1 1 0
1  2 0 0.000000000000000 300.000000000000000
0

0101000
+90 4 -89 4 *
Ed
 0.000000100000000 1 1 0
1  3 0 0.000000000000000 49.999999999999993
0

0101000
+93 4 -90 4 *
Ed
 0.000000100000000 1 1 0
1  4 0 0.000000000000000 49.999999999999993
0

0101000
+92 6 -89 6 *
Wi

0101100
+91 0 -88 0 -87 0 +86 5 *
Fa
0  0.000000100000000 1 0

0101000
+85 0 *
Ve
0.000000100000000
24.999999999999979 -43.301270189221945 6.000000000000000
0 0

0101101
*
Ve
0.000000100000000
24.999999999999979 -43.301270189221945 306.000000000000000
0 0

0101101
*
Ed
 0.000000100000000 1 1 0
1  5 0 0.000000000000000 300.000000000000000
0

0101000
+83 4 -82 4 *
Ed
 0.000000100000000 1 1 0
1  6 0 0.000000000000000 50.000000000000021
0

0101000
+83 4 -93 4 *
Ed
 0.000000100000000 1 1 0
1  7 0 0.000000000000000 50.000000000000021
0

0101000
+82 6 -92 6 *
Wi

0101100
+81 0 -91 0 -80 0 +79 5 *
Fa
0  0.000000100000000 2 0

0101000
+78 0 *
Ve
0.000000100000000
-24.999999999999993 43.301270189221938 6.000000000000000
0 0

0101101
*
Ve
0.000000100000000
-24.999999999999993 43.301270189221938 306.000000000000000
0 0

0101101
*
Ed
 0.000000100000000 1 1 0
1  8 0 0.000000000000000 300.000000000000000
0

0101000
+76 4 -75 4 *
Ed
 0.000000100000000 1 1 0
1  9 0 0.000000000000000 50.000000000000000
0

0101000
+90 4 -76 4 *
Ed
 0.000000100000000 1 1 0
1  10 0 0.000000000000000 50.000000000000000
0

0101000
+89 6 -75 6 *
Wi

0101100
+88 0 -74 0 -73 0 +72 5 *
Fa
0  0.000000100000000 3 0

0101000
+71 0 *
Ve
0.000000100000000
-50.000000000000000 0.000000000000014 6.000000000000000
0 0

0101101
*
Ed
 0.000000100000000 1 1 0
1  11 0 0.000000000000000 49.999999999999993
0

0101000
+76 4 -69 4 *
Ve
0.000000100000000
-25.000000000000018 -43.301270189221924 6.000000000000000
0 0

0101101
*
Ed
 0.000000100000000 1 1 0
1  12 0 0.000000000000000 49.999999999999993
0

0101000
+69 4 -67 4 *
Ed
 0.000000100000000 1 1 0
1  13 0 0.000000000000000 50.000000000000000
0

0101000
+67 4 -83 4 *
Wi

0101100
+87 0 +73 0 +68 0 +66 0 +65 0 +80 0 *
Fa
0  0.000000100000000 4 0

0101000
+64 0 *
Ve
0.000000100000000
-25.000000000000018 -43.301270189221924 306.000000000000000
0 0

0101101
*
Ed
 0.000000100000000 1 1 0
1  14 0 0.000000000000000 50.000000000000000
0

0101000
+62 6 -82 6 *
Ve
0.000000100000000
-50.000000000000000 0.000000000000014 306.000000000000000
0 0

0101101
*
Ed
 0.000000100000000 1 1 0
1  15 0 0.000000000000000 49.999999999999993
0

0101000
+75 6 -60 6 *
Ed
 0.000000100000000 1 1 0
1  16 0 0.000000000000000 49.999999999999993
0

0101000
+60 6 -62 6 *
Wi

0101100
+86 7 +79 7 +72 7 +61 7 +59 7 +58 7 *
Ve
0.000000150000004
-20.999999999999996 36.373066958946424 306.000000000000000
0 0

0101101
*
Ve
0.000000150000000
21.000000000000004 36.373066958946424 306.000000000000000
0 0

0101101
*
Ed
 0.000000150000000 1 1 0
1  17 0 -31.500000000000000 10.500000000000002
0

0101000
+56 8 -55 8 *
Ve
0.000000150000007
-42.000000000000000 0.000000000000007 306.000000000000000
0 0

0101101
*
Ed
 0.000000150000000 1 1 0
1  18 0 -31.500000000000000 10.500000000000000
0

0101000
+53 8 -56 8 *
Ve
0.000000150000007
-21.000000000000011 -36.373066958946417 306.000000000000000
0 0

0101101
*
Ed
 0.000000150000000 1 1 0
1  19 0 -31.500000000000004 10.500000000000000
0

0101000
+51 8 -53 8 *
Ve
0.000000150000007
20.999999999999986 -36.373066958946431 306.000000000000000
0 0

0101101
*
Ed
 0.000000150000000 1 1 0
1  20 0 -31.500000000000000 10.499999999999998
0

0101000
+49 8 -51 8 *
Ve
0.000000150000008
42.000000000000000 0.000000000000000 306.000000000000000
0 0

0101101
*
Ed
 0.000000150000000 1 1 0
1  21 0 -31.500000000000014 10.500000000000005
0

0101000
+47 8 -49 8 *
Ed
 0.000000150000000 1 1 0
1  22 0 -31.500000000000000 10.499999999999998
0

0101000
+55 8 -47 8 *
Wi

0101100
+54 0 +52 0 +50 0 +48 0 +46 0 +45 0 *
Fa
0  0.000000100000000 5 7

0101000
+57 0 +44 0 *
Ed
 0.000000100000000 1 1 0
1  23 0 0.000000000000000 300.000000000000000
0

0101000
+67 4 -62 4 *
Wi

0101100
+42 0 -81 0 -65 0 +61 5 *
Fa
0  0.000000100000000 6 0

0101000
+41 0 *
Ed
 0.000000100000000 1 1 0
1  24 0 0.000000000000000 300.000000000000000
0

0101000
+69 4 -60 4 *
Wi

0101100
+74 0 -39 0 -68 0 +59 5 *
Fa
0  0.000000100000000 7 0

0101000
+38 0 *
Wi

0101100
+39 0 -42 0 -66 0 +58 5 *
Fa
0  0.000000100000000 8 0

0101000
+36 0 *
Ve
0.000000100000000
21.000000000000004 36.373066958946424 12.000000000000000
0 0

0101101
*
Ve
0.000000100000000
-20.999999999999996 36.373066958946424 12.000000000000000
0 0

0101101
*
Ed
 0.000000100000000 1 1 0
1  25 0 0.000000000000000 42.000000000000000
0

0101000
+34 8 -33 8 *
Ed
 0.000000100000000 1 1 0
1  26 0 0.000000000000000 294.000000000000000
0

0101000
+33 8 -56 8 *
Ed
 0.000000100000000 1 1 0
1  27 0 0.000000000000000 294.000000000000000
0

0101000
+34 8 -55 8 *
Wi

0101100
-32 0 -31 0 -54 0 +30 0 *
Fa
0  0.000000100000000 9 0

0101000
+29 0 *
Ve
0.000000100000000
-42.000000000000000 0.000000000000007 12.000000000000000
0 0

0101101
*
Ed
 0.000000100000000 1 1 0
1  28 0 0.000000000000000 42.000000000000000
0

0101000
+33 8 -27 8 *
Ed
 0.000000100000000 1 1 0
1  29 0 0.000000000000000 294.000000000000000
0

0101000
+27 8 -53 8 *
Wi

0101100
-26 0 -25 0 -52 0 +31 0 *
Fa
0  0.000000100000000 10 0

0101000
+24 0 *
Ve
0.000000100000000
-21.000000000000011 -36.373066958946417 12.000000000000000
0 0

0101101
*
Ed
 0.000000100000000 1 1 0
1  30 0 0.000000000000000 41.999999999999993
0

0101000
+27 8 -22 8 *
Ed
 0.000000100000000 1 1 0
1  31 0 0.000000000000000 294.000000000000000
0

0101000
+22 8 -51 8 *
Wi

0101100
-21 0 -20 0 -50 0 +25 0 *
Fa
0  0.000000100000000 11 0

0101000
+19 0 *
Ve
0.000000100000000
20.999999999999986 -36.373066958946431 12.000000000000000
0 0

0101101
*
Ed
 0.000000100000000 1 1 0
1  32 0 0.000000000000000 42.000000000000000
0

0101000
+22 8 -17 8 *
Ed
 0.000000100000000 1 1 0
1  33 0 0.000000000000000 294.000000000000000
0

0101000
+17 8 -49 8 *
Wi

0101100
-16 0 -15 0 -48 0 +20 0 *
Fa
0  0.000000100000000 12 0

0101000
+14 0 *
Ve
0.000000100000000
42.000000000000000 0.000000000000000 12.000000000000000
0 0

0101101
*
Ed
 0.000000100000000 1 1 0
1  34 0 0.000000000000000 42.000000000000014
0

0101000
+17 8 -12 8 *
Ed
 0.000000100000000 1 1 0
1  35 0 0.000000000000000 294.000000000000000
0

0101000
+12 8 -47 8 *
Wi

0101100
-11 0 -10 0 -46 0 +15 0 *
Fa
0  0.000000100000000 13 0

0101000
+9 0 *
Ed
 0.000000100000000 1 1 0
1  36 0 0.000000000000000 42.000000000000000
0

0101000
+12 8 -34 8 *
Wi

0101100
-7 0 -30 0 -45 0 +10 0 *
Fa
0  0.000000100000000 14 0

0101000
+6 0 *
Wi

0101100
+7 0 +32 0 +26 0 +21 0 +16 0 +11 0 *
Fa
0  0.000000100000000 15 0

0101000
+4 0 *
Sh

0101100
-84 2 -77 2 -70 2 -63 2 +43 0 -40 2 -37 2 -35 2 +28 0 +23 0 
+18 0 +13 0 +8 0 +5 0 +3 0 *
So

1100000
+2 0 *

+1 1 