
CASCADE Topology V1, (c) Matra-Datavision
Locations 2
1
1.000000000000000 0.000000000000000 0.000000000000000 0.000000000000000 
0.000000000000000 1.000000000000000 0.000000000000000 0.000000000000000 
0.000000000000000 0.000000000000000 1.000000000000000 300.000000000000000 
2  1 -1 0
Curve2ds 30
1 0.00000000000000000 0.00000000000000000 0.00000000000000000 -1.00000000000000000 
1 42.00000000000001421 0.00000000000000000 0.00000000000000000 -1.00000000000000000 
1 42.00000000000000000 0.00000000000000000 0.00000000000000000 -1.00000000000000000 
1 0.00000000000000000 -0.00000000000000000 0.00000000000000000 -1.00000000000000000 
1 0.00000000000000000 0.00000000000000000 1.00000000000000000 0.00000000000000000 
1 0.00000000000000000 -300.00000000000000000 1.00000000000000000 0.00000000000000000 
1 42.00000000000000000 0.00000000000000135 -0.49999999999999989 0.86602540378443871 
1 0.00000000000000000 0.00000000000000000 0.00000000000000000 -1.00000000000000000 
1 42.00000000000000000 0.00000000000000000 0.00000000000000000 -1.00000000000000000 
1 21.00000000000000355 36.37306695894642417 -1.00000000000000000 0.00000000000000000 
1 0.00000000000000000 -0.00000000000000000 1.00000000000000000 0.00000000000000000 
1 0.00000000000000000 -300.00000000000000000 1.00000000000000000 0.00000000000000000 
1 42.00000000000000000 0.00000000000000000 0.00000000000000000 -1.00000000000000000 
1 0.00000000000000000 0.00000000000000000 0.00000000000000000 -1.00000000000000000 
1 0.00000000000000000 0.00000000000000000 1.00000000000000000 0.00000000000000000 
1 0.00000000000000000 -300.00000000000000000 1.00000000000000000 0.00000000000000000 
1 -20.99999999999999645 36.37306695894642417 -0.50000000000000022 -0.86602540378443860 
1 42.00000000000000000 0.00000000000000000 0.00000000000000000 -1.00000000000000000 
1 0.00000000000000000 0.00000000000000000 0.00000000000000000 -1.00000000000000000 
1 0.00000000000000000 0.00000000000000000 1.00000000000000000 0.00000000000000000 
1 0.00000000000000000 -300.00000000000000000 1.00000000000000000 0.00000000000000000 
1 -42.00000000000000000 0.00000000000000846 0.49999999999999983 -0.86602540378443882 
1 0.00000000000000000 0.00000000000000000 0.00000000000000000 -1.00000000000000000 
1 42.00000000000000000 0.00000000000000000 0.00000000000000000 -1.00000000000000000 
1 -21.00000000000001066 -36.37306695894641706 1.00000000000000000 -0.00000000000000034 
1 0.00000000000000000 0.00000000000000000 1.00000000000000000 0.00000000000000000 
1 0.00000000000000000 -300.00000000000000000 1.00000000000000000 0.00000000000000000 
1 0.00000000000000000 0.00000000000000000 1.00000000000000000 0.00000000000000000 
1 0.00000000000000000 -300.00000000000000000 1.00000000000000000 0.00000000000000000 
1 20.99999999999998579 -36.37306695894643127 0.50000000000000022 0.86602540378443860 
Curves 12
1 42.00000000000000000 0.00000000000000000 0.00000000000000000 0.00000000000000000 0.00000000000000000 1.00000000000000000 
1 21.00000000000000355 36.37306695894642417 0.00000000000000000 0.00000000000000000 0.00000000000000000 1.00000000000000000 
1 42.00000000000000000 0.00000000000000000 0.00000000000000000 -0.49999999999999989 0.86602540378443871 0.00000000000000000 
1 -20.99999999999999645 36.37306695894642417 0.00000000000000000 0.00000000000000000 0.00000000000000000 1.00000000000000000 
1 21.00000000000000355 36.37306695894642417 0.00000000000000000 -1.00000000000000000 0.00000000000000000 0.00000000000000000 
1 -42.00000000000000000 0.00000000000000711 0.00000000000000000 0.00000000000000000 0.00000000000000000 1.00000000000000000 
1 -20.99999999999999645 36.37306695894642417 0.00000000000000000 -0.50000000000000022 -0.86602540378443860 0.00000000000000000 
1 -21.00000000000001066 -36.37306695894641706 0.00000000000000000 0.00000000000000000 0.00000000000000000 1.00000000000000000 
1 -42.00000000000000000 0.00000000000000711 0.00000000000000000 0.49999999999999983 -0.86602540378443882 0.00000000000000000 
1 20.99999999999998579 -36.37306695894643127 0.00000000000000000 0.00000000000000000 0.00000000000000000 1.00000000000000000 
1 -21.00000000000001066 -36.37306695894641706 0.00000000000000000 1.00000000000000000 -0.00000000000000034 0.00000000000000000 
1 20.99999999999998579 -36.37306695894643127 0.00000000000000000 0.50000000000000022 0.86602540378443860 0.00000000000000000 
Polygon3D 0
PolygonOnTriangulations 0
Surfaces 7
1 42.00000000000000000 0.00000000000000000 0.00000000000000000 -0.86602540378443871 -0.49999999999999989 0.00000000000000000 -0.49999999999999989 0.86602540378443871 0.00000000000000000 -0.00000000000000000 0.00000000000000000 -1.00000000000000000 
1 20.99999999999998579 -36.37306695894643127 0.00000000000000000 -0.86602540378443860 0.50000000000000022 0.00000000000000000 0.50000000000000022 0.86602540378443860 0.00000000000000000 0.00000000000000000 0.00000000000000000 -1.00000000000000000 
1 21.00000000000000355 36.37306695894642417 0.00000000000000000 0.00000000000000000 -1.00000000000000000 0.00000000000000000 -1.00000000000000000 0.00000000000000000 0.00000000000000000 -0.00000000000000000 -0.00000000000000000 -1.00000000000000000 
1 -0.00000000000000135 -0.00000000000000135 0.00000000000000000 0.00000000000000000 0.00000000000000000 1.00000000000000000 1.00000000000000000 0.00000000000000000 -0.00000000000000000 -0.00000000000000000 1.00000000000000000 0.00000000000000000 
1 -20.99999999999999645 36.37306695894642417 0.00000000000000000 0.86602540378443860 -0.50000000000000022 0.00000000000000000 -0.50000000000000022 -0.86602540378443860 0.00000000000000000 0.00000000000000000 -0.00000000000000000 -1.00000000000000000 
1 -42.00000000000000000 0.00000000000000711 0.00000000000000000 0.86602540378443882 0.49999999999999983 -0.00000000000000000 0.49999999999999983 -0.86602540378443882 0.00000000000000000 0.00000000000000000 -0.00000000000000000 -1.00000000000000000 
1 -21.00000000000001066 -36.37306695894641706 0.00000000000000000 0.00000000000000034 1.00000000000000000 -0.00000000000000000 1.00000000000000000 -0.00000000000000034 0.00000000000000000 0.00000000000000000 -0.00000000000000000 -1.00000000000000000 
Triangulations 0

TShapes 34
Ve
0.000000100000000
42.000000000000000 0.000000000000000 0.000000000000000
0 0

0101101
*
Ed
 0.000000100000000 1 1 0
1  1 0 0.000000000000000 300.000000000000000
2  1 1 0 0.000000000000000 300.000000000000000
2  2 2 0 0.000000000000000 300.000000000000000
0

0101000
+34 0 -34 1 *
Ve
0.000000100000000
21.000000000000004 36.373066958946424 0.000000000000000
0 0

0101101
*
Ed
 0.000000100000000 1 1 0
1  2 0 0.000000000000000 300.000000000000000
2  3 1 0 0.000000000000000 300.000000000000000
2  4 3 0 0.000000000000000 300.000000000000000
0

0101000
+32 0 -32 1 *
Ed
 0.000000100000000 1 1 0
1  3 0 0.000000000000000 42.000000000000000
2  5 1 0 0.000000000000000 42.000000000000000
2  6 1 2 0.000000000000000 42.000000000000000
2  7 4 0 0.000000000000000 42.000000000000000
0

0101000
+34 0 -32 0 *
Wi

0101100
+33 0 -31 0 -30 0 +30 1 *
Fa
0  0.000000100000000 1 0

0101000
+29 0 *
Ve
0.000000100000000
-20.999999999999996 36.373066958946424 0.000000000000000
0 0

0101101
*
Ed
 0.000000100000000 1 1 0
1  4 0 0.000000000000000 300.000000000000000
2  8 5 0 0.000000000000000 300.000000000000000
2  9 3 0 0.000000000000000 300.000000000000000
0

0101000
+27 0 -27 1 *
Ed
 0.000000100000000 1 1 0
1  5 0 0.000000000000000 42.000000000000000
2  10 4 0 0.000000000000000 42.000000000000000
2  11 3 0 0.000000000000000 42.000000000000000
2  12 3 2 0.000000000000000 42.000000000000000
0

0101000
+32 0 -27 0 *
Wi

0101100
+31 0 -26 0 -25 0 +25 1 *
Fa
0  0.000000100000000 3 0

0101000
+24 0 *
Ve
0.000000100000000
-42.000000000000000 0.000000000000007 0.000000000000000
0 0

0101101
*
Ed
 0.000000100000000 1 1 0
1  6 0 0.000000000000000 300.000000000000000
2  13 5 0 0.000000000000000 300.000000000000000
2  14 6 0 0.000000000000000 300.000000000000000
0

0101000
+22 0 -22 1 *
Ed
 0.000000100000000 1 1 0
1  7 0 0.000000000000000 42.000000000000000
2  15 5 0 0.000000000000000 42.000000000000000
2  16 5 2 0.000000000000000 42.000000000000000
2  17 4 0 0.000000000000000 42.000000000000000
0

0101000
+27 0 -22 0 *
Wi

0101100
+26 0 -21 0 -20 0 +20 1 *
Fa
0  0.000000100000000 5 0

0101000
+19 0 *
Ve
0.000000100000000
-21.000000000000011 -36.373066958946417 0.000000000000000
0 0

0101101
*
Ed
 0.000000100000000 1 1 0
1  8 0 0.000000000000000 300.000000000000000
2  18 6 0 0.000000000000000 300.000000000000000
2  19 7 0 0.000000000000000 300.000000000000000
0

0101000
+17 0 -17 1 *
Ed
 0.000000100000000 1 1 0
1  9 0 0.000000000000000 41.999999999999993
2  20 6 0 0.000000000000000 41.999999999999993
2  21 6 2 0.000000000000000 41.999999999999993
2  22 4 0 0.000000000000000 41.999999999999993
0

0101000
+22 0 -17 0 *
Wi

0101100
+21 0 -16 0 -15 0 +15 1 *
Fa
0  0.000000100000000 6 0

0101000
+14 0 *
Ve
0.000000100000000
20.999999999999986 -36.373066958946431 0.000000000000000
0 0

0101101
*
Ed
 0.000000100000000 1 1 0
1  10 0 0.000000000000000 300.000000000000000
2  23 2 0 0.000000000000000 300.000000000000000
2  24 7 0 0.000000000000000 300.000000000000000
0

0101000
+12 0 -12 1 *
Ed
 0.000000100000000 1 1 0
1  11 0 0.000000000000000 42.000000000000000
2  25 4 0 0.000000000000000 42.000000000000000
2  26 7 0 0.000000000000000 42.000000000000000
2  27 7 2 0.000000000000000 42.000000000000000
0

0101000
+17 0 -12 0 *
Wi

0101100
+16 0 -11 0 -10 0 +10 1 *
Fa
0  0.000000100000000 7 0

0101000
+9 0 *
Ed
 0.000000100000000 1 1 0
1  12 0 0.000000000000000 42.000000000000014
2  28 2 0 0.000000000000000 42.000000000000014
2  29 2 2 0.000000000000000 42.000000000000014
2  30 4 0 0.000000000000000 42.000000000000014
0

0101000
+12 0 -34 0 *
Wi

0101100
+11 0 -33 0 -7 0 +7 1 *
Fa
0  0.000000100000000 2 0

0101000
+6 0 *
Wi

0101100
+30 0 +25 0 +20 0 +15 0 +10 0 +7 0 *
Fa
0  0.000000100000000 4 0

0101000
+4 0 *
Sh

0101100
+28 0 +23 0 +18 0 +13 0 +8 0 +5 0 +3 0 -3 1 *
So

1100000
-2 0 *

+1 0 