
CASCADE Topology V1, (c) Matra-Datavision
Locations 9
1
1.000000000000000 0.000000000000000 0.000000000000000 0.000000000000000 
0.000000000000000 1.000000000000000 0.000000000000000 0.000000000000000 
0.000000000000000 0.000000000000000 1.000000000000000 6.000000000000000 
1
1.000000000000000 0.000000000000000 0.000000000000000 0.000000000000000 
0.000000000000000 1.000000000000000 0.000000000000000 0.000000000000000 
0.000000000000000 0.000000000000000 1.000000000000000 0.000000000000000 
2  2 -1 0
1
1.000000000000000 0.000000000000000 0.000000000000000 0.000000000000000 
0.000000000000000 1.000000000000000 0.000000000000000 0.000000000000000 
0.000000000000000 0.000000000000000 1.000000000000000 300.000000000000000 
2  4 -1 0
2  2 -1 4 -1 0
2  4 1 2 1 0
1
1.000000000000000 0.000000000000000 0.000000000000000 0.000000000000000 
0.000000000000000 1.000000000000000 0.000000000000000 0.000000000000000 
0.000000000000000 0.000000000000000 1.000000000000000 300.000000000000000 
2  8 -1 0
Curve2ds 64
1 0.00000000000000000 0.00000000000000000 0.00000000000000000 -1.00000000000000000 
1 50.00000000000002842 0.00000000000000000 0.00000000000000000 -1.00000000000000000 
1 49.99999999999999289 0.00000000000000000 0.00000000000000000 -1.00000000000000000 
1 0.00000000000000000 0.00000000000000000 1.00000000000000000 0.00000000000000000 
1 0.00000000000000000 -300.00000000000000000 1.00000000000000000 0.00000000000000000 
1 50.00000000000000000 0.00000000000000000 -0.49999999999999994 0.86602540378443871 
1 0.00000000000000000 0.00000000000000000 0.00000000000000000 -1.00000000000000000 
1 0.00000000000000000 0.00000000000000000 1.00000000000000000 0.00000000000000000 
1 0.00000000000000000 -300.00000000000000000 1.00000000000000000 0.00000000000000000 
1 24.99999999999997868 -43.30127018922194537 0.50000000000000033 0.86602540378443860 
1 0.00000000000000000 0.00000000000000000 0.00000000000000000 -1.00000000000000000 
1 25.00000000000000711 43.30127018922193116 -1.00000000000000000 0.00000000000000014 
1 0.00000000000000000 0.00000000000000000 1.00000000000000000 -0.00000000000000000 
1 0.00000000000000000 0.00000000000000000 1.00000000000000000 0.00000000000000000 
1 -25.00000000000001776 -43.30127018922192406 1.00000000000000000 -0.00000000000000043 
1 0.00000000000000000 -300.00000000000000000 1.00000000000000000 -0.00000000000000000 
1 -24.99999999999999289 43.30127018922193827 -0.50000000000000022 -0.86602540378443860 
1 0.00000000000000000 -300.00000000000000000 1.00000000000000000 0.00000000000000000 
1 -50.00000000000000000 0.00000000000001421 0.49999999999999972 -0.86602540378443893 
8 -35.70000000000000284 14.70000000000000284
1 10.50000000000000178 36.37306695894642417 1.00000000000000000 0.00000000000000000 
8 -35.70000000000000284 14.70000000000000284
1 10.50000000000000178 -294.00000000000000000 -1.00000000000000000 0.00000000000000000 
8 -35.70000000000000284 14.69999999999999929
1 -26.25000000000000000 27.27980021920982168 0.50000000000000022 0.86602540378443860 
8 -35.70000000000000284 14.69999999999999929
1 10.50000000000000000 -294.00000000000000000 -1.00000000000000000 0.00000000000000000 
8 -35.70000000000000284 14.69999999999999929
1 -36.75000000000000711 -9.09326673973660071 -0.49999999999999983 0.86602540378443882 
8 -35.70000000000000284 14.69999999999999929
1 10.50000000000000000 -294.00000000000000000 -1.00000000000000000 -0.00000000000000000 
8 -35.70000000000000284 14.69999999999999929
1 -10.50000000000001243 -36.37306695894642417 -1.00000000000000000 0.00000000000000034 
8 -35.70000000000000284 14.69999999999999929
1 10.49999999999999822 -294.00000000000000000 -1.00000000000000000 -0.00000000000000000 
8 -35.70000000000000995 14.70000000000000639
1 26.24999999999999289 -27.27980021920982523 -0.50000000000000022 -0.86602540378443860 
8 -35.70000000000000995 14.70000000000000639
1 10.50000000000000533 -294.00000000000000000 -1.00000000000000000 -0.00000000000000000 
8 -35.70000000000000284 14.69999999999999929
1 36.75000000000000000 9.09326673973660426 0.49999999999999989 -0.86602540378443871 
8 -35.70000000000000284 14.69999999999999929
1 10.49999999999999822 -294.00000000000000000 -1.00000000000000000 -0.00000000000000000 
1 50.00000000000000000 0.00000000000000000 0.00000000000000000 -1.00000000000000000 
1 50.00000000000000000 -0.00000000000000000 0.00000000000000000 -1.00000000000000000 
1 0.00000000000000000 0.00000000000000000 0.00000000000000000 -1.00000000000000000 
1 21.00000000000000355 36.37306695894642417 -1.00000000000000000 0.00000000000000000 
1 0.00000000000000000 -0.00000000000000000 1.00000000000000000 0.00000000000000000 
1 0.00000000000000000 -300.00000000000000000 1.00000000000000000 0.00000000000000000 
1 0.00000000000000000 0.00000000000000000 0.00000000000000000 -1.00000000000000000 
1 42.00000000000000000 0.00000000000000000 0.00000000000000000 -1.00000000000000000 
1 42.00000000000000000 0.00000000000000000 0.00000000000000000 -1.00000000000000000 
1 0.00000000000000000 -0.00000000000000000 0.00000000000000000 -1.00000000000000000 
1 0.00000000000000000 0.00000000000000000 1.00000000000000000 0.00000000000000000 
1 0.00000000000000000 -300.00000000000000000 1.00000000000000000 0.00000000000000000 
1 -20.99999999999999645 36.37306695894642417 -0.50000000000000022 -0.86602540378443860 
1 42.00000000000000000 0.00000000000000000 0.00000000000000000 -1.00000000000000000 
1 0.00000000000000000 0.00000000000000000 0.00000000000000000 -1.00000000000000000 
1 0.00000000000000000 0.00000000000000000 1.00000000000000000 0.00000000000000000 
1 0.00000000000000000 -300.00000000000000000 1.00000000000000000 0.00000000000000000 
1 -42.00000000000000000 0.00000000000000846 0.49999999999999983 -0.86602540378443882 
1 42.00000000000000000 0.00000000000000000 0.00000000000000000 -1.00000000000000000 
1 0.00000000000000000 0.00000000000000000 0.00000000000000000 -1.00000000000000000 
1 -21.00000000000001066 -36.37306695894641706 1.00000000000000000 -0.00000000000000034 
1 0.00000000000000000 0.00000000000000000 1.00000000000000000 0.00000000000000000 
1 0.00000000000000000 -300.00000000000000000 1.00000000000000000 0.00000000000000000 
1 0.00000000000000000 0.00000000000000000 0.00000000000000000 -1.00000000000000000 
1 42.00000000000000000 0.00000000000000000 0.00000000000000000 -1.00000000000000000 
1 0.00000000000000000 0.00000000000000000 1.00000000000000000 0.00000000000000000 
1 0.00000000000000000 -300.00000000000000000 1.00000000000000000 0.00000000000000000 
1 20.99999999999998579 -36.37306695894643127 0.50000000000000022 0.86602540378443860 
1 0.00000000000000000 0.00000000000000000 0.00000000000000000 -1.00000000000000000 
1 42.00000000000001421 0.00000000000000000 0.00000000000000000 -1.00000000000000000 
1 0.00000000000000000 0.00000000000000000 1.00000000000000000 0.00000000000000000 
1 0.00000000000000000 -300.00000000000000000 1.00000000000000000 0.00000000000000000 
1 42.00000000000000000 0.00000000000000135 -0.49999999999999989 0.86602540378443871 
Curves 36
1 50.00000000000000000 0.00000000000000000 -6.00000000000000000 0.00000000000000000 0.00000000000000000 1.00000000000000000 
1 25.00000000000000711 43.30127018922193116 -6.00000000000000000 0.00000000000000000 0.00000000000000000 1.00000000000000000 
1 50.00000000000000000 0.00000000000000000 -6.00000000000000000 -0.49999999999999994 0.86602540378443871 0.00000000000000000 
1 50.00000000000000000 0.00000000000000000 -6.00000000000000000 -0.49999999999999994 0.86602540378443871 0.00000000000000000 
1 24.99999999999997868 -43.30127018922194537 -6.00000000000000000 0.00000000000000000 0.00000000000000000 1.00000000000000000 
1 24.99999999999997868 -43.30127018922194537 -6.00000000000000000 0.50000000000000033 0.86602540378443860 0.00000000000000000 
1 24.99999999999997868 -43.30127018922194537 -6.00000000000000000 0.50000000000000033 0.86602540378443860 0.00000000000000000 
1 -24.99999999999999289 43.30127018922193827 -6.00000000000000000 0.00000000000000000 0.00000000000000000 1.00000000000000000 
1 25.00000000000000711 43.30127018922193116 -6.00000000000000000 -1.00000000000000000 0.00000000000000014 0.00000000000000000 
1 25.00000000000000711 43.30127018922193116 -6.00000000000000000 -1.00000000000000000 0.00000000000000014 0.00000000000000000 
1 -24.99999999999999289 43.30127018922193827 -6.00000000000000000 -0.50000000000000022 -0.86602540378443860 0.00000000000000000 
1 -50.00000000000000000 0.00000000000001421 -6.00000000000000000 0.49999999999999972 -0.86602540378443893 0.00000000000000000 
1 -25.00000000000001776 -43.30127018922192406 -6.00000000000000000 1.00000000000000000 -0.00000000000000043 0.00000000000000000 
1 -25.00000000000001776 -43.30127018922192406 -6.00000000000000000 1.00000000000000000 -0.00000000000000043 0.00000000000000000 
1 -24.99999999999999289 43.30127018922193827 -6.00000000000000000 -0.50000000000000022 -0.86602540378443860 0.00000000000000000 
1 -50.00000000000000000 0.00000000000001421 -6.00000000000000000 0.49999999999999972 -0.86602540378443893 0.00000000000000000 
1 10.50000000000000178 36.37306695894642417 294.00000000000000000 1.00000000000000000 0.00000000000000000 -0.00000000000000000 
1 -26.25000000000000000 27.27980021920982168 294.00000000000000000 0.50000000000000022 0.86602540378443860 -0.00000000000000000 
1 -36.75000000000000711 -9.09326673973660071 294.00000000000000000 -0.49999999999999983 0.86602540378443882 0.00000000000000000 
1 -10.50000000000001243 -36.37306695894642417 294.00000000000000000 -1.00000000000000000 0.00000000000000034 0.00000000000000000 
1 26.24999999999999289 -27.27980021920982523 294.00000000000000000 -0.50000000000000022 -0.86602540378443860 0.00000000000000000 
1 36.75000000000000000 9.09326673973660426 294.00000000000000000 0.49999999999999989 -0.86602540378443871 0.00000000000000000 
1 -25.00000000000001776 -43.30127018922192406 -6.00000000000000000 0.00000000000000000 0.00000000000000000 1.00000000000000000 
1 -50.00000000000000000 0.00000000000001421 -6.00000000000000000 0.00000000000000000 0.00000000000000000 1.00000000000000000 
1 21.00000000000000355 36.37306695894642417 0.00000000000000000 -1.00000000000000000 0.00000000000000000 0.00000000000000000 
1 -20.99999999999999645 36.37306695894642417 0.00000000000000000 0.00000000000000000 0.00000000000000000 1.00000000000000000 
1 21.00000000000000355 36.37306695894642417 0.00000000000000000 0.00000000000000000 0.00000000000000000 1.00000000000000000 
1 -20.99999999999999645 36.37306695894642417 0.00000000000000000 -0.50000000000000022 -0.86602540378443860 0.00000000000000000 
1 -42.00000000000000000 0.00000000000000711 0.00000000000000000 0.00000000000000000 0.00000000000000000 1.00000000000000000 
1 -42.00000000000000000 0.00000000000000711 0.00000000000000000 0.49999999999999983 -0.86602540378443882 0.00000000000000000 
1 -21.00000000000001066 -36.37306695894641706 0.00000000000000000 0.00000000000000000 0.00000000000000000 1.00000000000000000 
1 -21.00000000000001066 -36.37306695894641706 0.00000000000000000 1.00000000000000000 -0.00000000000000034 0.00000000000000000 
1 20.99999999999998579 -36.37306695894643127 0.00000000000000000 0.00000000000000000 0.00000000000000000 1.00000000000000000 
1 20.99999999999998579 -36.37306695894643127 0.00000000000000000 0.50000000000000022 0.86602540378443860 0.00000000000000000 
1 42.00000000000000000 0.00000000000000000 0.00000000000000000 0.00000000000000000 0.00000000000000000 1.00000000000000000 
1 42.00000000000000000 0.00000000000000000 0.00000000000000000 -0.49999999999999989 0.86602540378443871 0.00000000000000000 
Polygon3D 0
PolygonOnTriangulations 0
Surfaces 15
1 50.00000000000000000 0.00000000000000000 -6.00000000000000000 -0.86602540378443871 -0.49999999999999994 0.00000000000000000 -0.49999999999999994 0.86602540378443871 0.00000000000000000 -0.00000000000000000 0.00000000000000000 -1.00000000000000000 
1 24.99999999999997868 -43.30127018922194537 -6.00000000000000000 -0.86602540378443860 0.50000000000000033 0.00000000000000000 0.50000000000000022 0.86602540378443849 0.00000000000000000 0.00000000000000000 0.00000000000000000 -1.00000000000000000 
1 -0.00000000000000076 0.00000000000000000 -6.00000000000000000 0.00000000000000000 0.00000000000000000 1.00000000000000000 1.00000000000000000 0.00000000000000000 -0.00000000000000000 -0.00000000000000000 1.00000000000000000 0.00000000000000000 
1 25.00000000000000711 43.30127018922193116 -6.00000000000000000 -0.00000000000000014 -1.00000000000000000 0.00000000000000000 -1.00000000000000000 0.00000000000000014 0.00000000000000000 -0.00000000000000000 0.00000000000000000 -1.00000000000000000 
1 -24.99999999999999289 43.30127018922193827 -6.00000000000000000 0.86602540378443860 -0.50000000000000022 0.00000000000000000 -0.50000000000000022 -0.86602540378443860 0.00000000000000000 0.00000000000000000 -0.00000000000000000 -1.00000000000000000 
1 -0.00000000000000076 0.00000000000000000 -6.00000000000000000 0.00000000000000000 0.00000000000000000 1.00000000000000000 1.00000000000000000 0.00000000000000000 -0.00000000000000000 -0.00000000000000000 1.00000000000000000 0.00000000000000000 
1 -50.00000000000000000 0.00000000000001421 -6.00000000000000000 0.86602540378443893 0.49999999999999972 0.00000000000000000 0.49999999999999972 -0.86602540378443893 0.00000000000000000 0.00000000000000000 0.00000000000000000 -1.00000000000000000 
1 21.00000000000000355 36.37306695894642417 0.00000000000000000 0.00000000000000000 -1.00000000000000000 0.00000000000000000 -1.00000000000000000 0.00000000000000000 0.00000000000000000 -0.00000000000000000 -0.00000000000000000 -1.00000000000000000 
1 -20.99999999999999645 36.37306695894642417 0.00000000000000000 0.86602540378443860 -0.50000000000000022 0.00000000000000000 -0.50000000000000022 -0.86602540378443860 0.00000000000000000 0.00000000000000000 -0.00000000000000000 -1.00000000000000000 
1 -42.00000000000000000 0.00000000000000711 0.00000000000000000 0.86602540378443882 0.49999999999999983 -0.00000000000000000 0.49999999999999983 -0.86602540378443882 0.00000000000000000 0.00000000000000000 -0.00000000000000000 -1.00000000000000000 
1 -21.00000000000001066 -36.37306695894641706 0.00000000000000000 0.00000000000000034 1.00000000000000000 -0.00000000000000000 1.00000000000000000 -0.00000000000000034 0.00000000000000000 0.00000000000000000 -0.00000000000000000 -1.00000000000000000 
1 20.99999999999998579 -36.37306695894643127 0.00000000000000000 -0.86602540378443860 0.50000000000000022 0.00000000000000000 0.50000000000000022 0.86602540378443860 0.00000000000000000 0.00000000000000000 0.00000000000000000 -1.00000000000000000 
1 42.00000000000000000 0.00000000000000000 0.00000000000000000 -0.86602540378443871 -0.49999999999999989 0.00000000000000000 -0.49999999999999989 0.86602540378443871 0.00000000000000000 -0.00000000000000000 0.00000000000000000 -1.00000000000000000 
1 -25.00000000000001776 -43.30127018922192406 -6.00000000000000000 0.00000000000000043 1.00000000000000000 0.00000000000000000 1.00000000000000000 -0.00000000000000043 0.00000000000000000 0.00000000000000000 0.00000000000000000 -1.00000000000000000 
1 -0.00000000000000135 -0.00000000000000135 0.00000000000000000 0.00000000000000000 0.00000000000000000 1.00000000000000000 1.00000000000000000 0.00000000000000000 -0.00000000000000000 -0.00000000000000000 1.00000000000000000 0.00000000000000000 
Triangulations 0

TShapes 93
Ve
0.000000100000000
50.000000000000000 0.000000000000000 -6.000000000000000
0 0

0101101
*
Ve
0.000000100000000
50.000000000000000 0.000000000000000 294.000000000000000
0 0

0101101
*
Ed
 0.000000100000000 1 1 0
1  1 0 0.000000000000000 300.000000000000000
2  1 1 0 0.000000000000000 300.000000000000000
2  2 2 0 0.000000000000000 300.000000000000000
0

0101000
+93 3 -92 3 *
Ve
0.000000100000000
25.000000000000007 43.301270189221931 -6.000000000000000
0 0

0101101
*
Ve
0.000000100000000
25.000000000000007 43.301270189221931 294.000000000000000
0 0

0101101
*
Ed
 0.000000100000000 1 1 0
1  2 0 0.000000000000000 300.000000000000000
2  3 1 0 0.000000000000000 300.000000000000000
0

0101000
+90 3 -89 3 *
Ed
 0.000000100000000 1 1 0
1  3 0 0.000000000000000 49.999999999999993
2  4 1 0 0.000000000000000 49.999999999999993
0

0101000
+93 3 -90 3 *
Ed
 0.000000100000000 1 1 0
1  4 0 0.000000000000000 49.999999999999993
2  5 1 5 0.000000000000000 49.999999999999993
2  6 3 0 0.000000000000000 49.999999999999993
0

0101000
+92 6 -89 6 *
Wi

0101100
+91 0 -88 0 -87 0 +86 4 *
Fa
0  0.000000100000000 1 0

0101000
+85 0 *
Ve
0.000000100000000
24.999999999999979 -43.301270189221945 -6.000000000000000
0 0

0101101
*
Ve
0.000000100000000
24.999999999999979 -43.301270189221945 294.000000000000000
0 0

0101101
*
Ed
 0.000000100000000 1 1 0
1  5 0 0.000000000000000 300.000000000000000
2  7 2 0 0.000000000000000 300.000000000000000
0

0101000
+83 3 -82 3 *
Ed
 0.000000100000000 1 1 0
1  6 0 0.000000000000000 50.000000000000021
2  8 2 0 0.000000000000000 50.000000000000021
0

0101000
+83 3 -93 3 *
Ed
 0.000000100000000 1 1 0
1  7 0 0.000000000000000 50.000000000000021
2  9 2 5 0.000000000000000 50.000000000000021
2  10 3 0 0.000000000000000 50.000000000000021
0

0101000
+82 6 -92 6 *
Wi

0101100
+81 0 -91 0 -80 0 +79 4 *
Fa
0  0.000000100000000 2 0

0101000
+78 0 *
Ve
0.000000100000000
-24.999999999999993 43.301270189221938 -6.000000000000000
0 0

0101101
*
Ve
0.000000100000000
-24.999999999999993 43.301270189221938 294.000000000000000
0 0

0101101
*
Ed
 0.000000100000000 1 1 0
1  8 0 0.000000000000000 300.000000000000000
2  11 5 0 0.000000000000000 300.000000000000000
0

0101000
+76 3 -75 3 *
Ed
 0.000000100000000 1 1 0
1  9 0 0.000000000000000 50.000000000000000
0

0101000
+90 3 -76 3 *
Ed
 0.000000100000000 1 1 0
1  10 0 0.000000000000000 50.000000000000000
2  12 3 0 0.000000000000000 50.000000000000000
0

0101000
+89 6 -75 6 *
Wi

0101100
+88 0 -74 0 -73 0 +72 4 *
Fa
0  0.000000100000000 4 0

0101000
+71 0 *
Ve
0.000000100000000
-50.000000000000000 0.000000000000014 -6.000000000000000
0 0

0101101
*
Ed
 0.000000100000000 1 1 0
1  11 0 0.000000000000000 49.999999999999993
2  13 5 0 0.000000000000000 49.999999999999993
0

0101000
+76 3 -69 3 *
Ve
0.000000100000000
-25.000000000000018 -43.301270189221924 -6.000000000000000
0 0

0101101
*
Ed
 0.000000100000000 1 1 0
1  12 0 0.000000000000000 49.999999999999993
2  14 7 0 0.000000000000000 49.999999999999993
0

0101000
+69 3 -67 3 *
Ed
 0.000000100000000 1 1 0
1  13 0 0.000000000000000 50.000000000000000
0

0101000
+67 3 -83 3 *
Wi

0101100
+87 0 +73 0 +68 0 +66 0 +65 0 +80 0 *
Fa
0  0.000000100000000 6 0

0101000
+64 0 *
Ve
0.000000100000000
-25.000000000000018 -43.301270189221924 294.000000000000000
0 0

0101101
*
Ed
 0.000000100000000 1 1 0
1  14 0 0.000000000000000 50.000000000000000
2  15 3 0 0.000000000000000 50.000000000000000
0

0101000
+62 6 -82 6 *
Ve
0.000000100000000
-50.000000000000000 0.000000000000014 294.000000000000000
0 0

0101101
*
Ed
 0.000000100000000 1 1 0
1  15 0 0.000000000000000 49.999999999999993
2  16 5 5 0.000000000000000 49.999999999999993
2  17 3 0 0.000000000000000 49.999999999999993
0

0101000
+75 6 -60 6 *
Ed
 0.000000100000000 1 1 0
1  16 0 0.000000000000000 49.999999999999993
2  18 7 5 0.000000000000000 49.999999999999993
2  19 3 0 0.000000000000000 49.999999999999993
0

0101000
+60 6 -62 6 *
Wi

0101100
+86 7 +79 7 +72 7 +61 7 +59 7 +58 7 *
Ve
0.000000150000004
-20.999999999999996 36.373066958946424 294.000000000000000
0 0

0101101
*
Ve
0.000000150000000
21.000000000000004 36.373066958946424 294.000000000000000
0 0

0101101
*
Ed
 0.000000150000000 1 1 0
1  17 0 -31.500000000000000 10.500000000000002
2  20 3 7 -31.500000000000000 10.500000000000002
2  21 8 0 -31.500000000000000 10.500000000000002
0

0101000
+56 0 -55 0 *
Ve
0.000000150000007
-42.000000000000000 0.000000000000007 294.000000000000000
0 0

0101101
*
Ed
 0.000000150000000 1 1 0
1  18 0 -31.500000000000000 10.500000000000000
2  22 3 7 -31.500000000000000 10.500000000000000
2  23 9 0 -31.500000000000000 10.500000000000000
0

0101000
+53 0 -56 0 *
Ve
0.000000150000007
-21.000000000000011 -36.373066958946417 294.000000000000000
0 0

0101101
*
Ed
 0.000000150000000 1 1 0
1  19 0 -31.500000000000004 10.500000000000000
2  24 3 7 -31.500000000000004 10.500000000000000
2  25 10 0 -31.500000000000004 10.500000000000000
0

0101000
+51 0 -53 0 *
Ve
0.000000150000007
20.999999999999986 -36.373066958946431 294.000000000000000
0 0

0101101
*
Ed
 0.000000150000000 1 1 0
1  20 0 -31.500000000000000 10.499999999999998
2  26 3 7 -31.500000000000000 10.499999999999998
2  27 11 0 -31.500000000000000 10.499999999999998
0

0101000
+49 0 -51 0 *
Ve
0.000000150000008
42.000000000000000 0.000000000000000 294.000000000000000
0 0

0101101
*
Ed
 0.000000150000000 1 1 0
1  21 0 -31.500000000000014 10.500000000000005
2  28 3 7 -31.500000000000014 10.500000000000005
2  29 12 0 -31.500000000000014 10.500000000000005
0

0101000
+47 0 -49 0 *
Ed
 0.000000150000000 1 1 0
1  22 0 -31.500000000000000 10.499999999999998
2  30 3 7 -31.500000000000000 10.499999999999998
2  31 13 0 -31.500000000000000 10.499999999999998
0

0101000
+55 0 -47 0 *
Wi

0101100
+54 0 +52 0 +50 0 +48 0 +46 0 +45 0 *
Fa
0  0.000000100000000 3 7

0101000
+57 0 +44 0 *
Ed
 0.000000100000000 1 1 0
1  23 0 0.000000000000000 300.000000000000000
2  32 7 0 0.000000000000000 300.000000000000000
0

0101000
+67 3 -62 3 *
Wi

0101100
+42 0 -81 0 -65 0 +61 4 *
Fa
0  0.000000100000000 14 0

0101000
+41 0 *
Ed
 0.000000100000000 1 1 0
1  24 0 0.000000000000000 300.000000000000000
2  33 5 0 0.000000000000000 300.000000000000000
2  34 7 0 0.000000000000000 300.000000000000000
0

0101000
+69 3 -60 3 *
Wi

0101100
+74 0 -39 0 -68 0 +59 4 *
Fa
0  0.000000100000000 5 0

0101000
+38 0 *
Wi

0101100
+39 0 -42 0 -66 0 +58 4 *
Fa
0  0.000000100000000 7 0

0101000
+36 0 *
Ve
0.000000100000000
21.000000000000004 36.373066958946424 0.000000000000000
0 0

0101101
*
Ve
0.000000100000000
-20.999999999999996 36.373066958946424 0.000000000000000
0 0

0101101
*
Ed
 0.000000100000000 1 1 0
1  25 0 0.000000000000000 42.000000000000000
2  35 15 0 0.000000000000000 42.000000000000000
2  36 8 0 0.000000000000000 42.000000000000000
2  37 8 9 0.000000000000000 42.000000000000000
0

0101000
+34 0 -33 0 *
Ed
 0.000000100000000 1 1 0
1  26 0 0.000000000000000 294.000000000000000
2  38 9 0 0.000000000000000 294.000000000000000
2  39 8 0 0.000000000000000 294.000000000000000
0

0101000
+33 0 -56 0 *
Ed
 0.000000100000000 1 1 0
1  27 0 0.000000000000000 294.000000000000000
2  40 13 0 0.000000000000000 294.000000000000000
2  41 8 0 0.000000000000000 294.000000000000000
0

0101000
+34 0 -55 0 *
Wi

0101100
-32 0 -31 0 -54 0 +30 0 *
Fa
0  0.000000100000000 8 0

0101000
+29 0 *
Ve
0.000000100000000
-42.000000000000000 0.000000000000007 0.000000000000000
0 0

0101101
*
Ed
 0.000000100000000 1 1 0
1  28 0 0.000000000000000 42.000000000000000
2  42 9 0 0.000000000000000 42.000000000000000
2  43 9 9 0.000000000000000 42.000000000000000
2  44 15 0 0.000000000000000 42.000000000000000
0

0101000
+33 0 -27 0 *
Ed
 0.000000100000000 1 1 0
1  29 0 0.000000000000000 294.000000000000000
2  45 9 0 0.000000000000000 294.000000000000000
2  46 10 0 0.000000000000000 294.000000000000000
0

0101000
+27 0 -53 0 *
Wi

0101100
-26 0 -25 0 -52 0 +31 0 *
Fa
0  0.000000100000000 9 0

0101000
+24 0 *
Ve
0.000000100000000
-21.000000000000011 -36.373066958946417 0.000000000000000
0 0

0101101
*
Ed
 0.000000100000000 1 1 0
1  30 0 0.000000000000000 41.999999999999993
2  47 10 0 0.000000000000000 41.999999999999993
2  48 10 9 0.000000000000000 41.999999999999993
2  49 15 0 0.000000000000000 41.999999999999993
0

0101000
+27 0 -22 0 *
Ed
 0.000000100000000 1 1 0
1  31 0 0.000000000000000 294.000000000000000
2  50 10 0 0.000000000000000 294.000000000000000
2  51 11 0 0.000000000000000 294.000000000000000
0

0101000
+22 0 -51 0 *
Wi

0101100
-21 0 -20 0 -50 0 +25 0 *
Fa
0  0.000000100000000 10 0

0101000
+19 0 *
Ve
0.000000100000000
20.999999999999986 -36.373066958946431 0.000000000000000
0 0

0101101
*
Ed
 0.000000100000000 1 1 0
1  32 0 0.000000000000000 42.000000000000000
2  52 15 0 0.000000000000000 42.000000000000000
2  53 11 0 0.000000000000000 42.000000000000000
2  54 11 9 0.000000000000000 42.000000000000000
0

0101000
+22 0 -17 0 *
Ed
 0.000000100000000 1 1 0
1  33 0 0.000000000000000 294.000000000000000
2  55 12 0 0.000000000000000 294.000000000000000
2  56 11 0 0.000000000000000 294.000000000000000
0

0101000
+17 0 -49 0 *
Wi

0101100
-16 0 -15 0 -48 0 +20 0 *
Fa
0  0.000000100000000 11 0

0101000
+14 0 *
Ve
0.000000100000000
42.000000000000000 0.000000000000000 0.000000000000000
0 0

0101101
*
Ed
 0.000000100000000 1 1 0
1  34 0 0.000000000000000 42.000000000000014
2  57 12 0 0.000000000000000 42.000000000000014
2  58 12 9 0.000000000000000 42.000000000000014
2  59 15 0 0.000000000000000 42.000000000000014
0

0101000
+17 0 -12 0 *
Ed
 0.000000100000000 1 1 0
1  35 0 0.000000000000000 294.000000000000000
2  60 13 0 0.000000000000000 294.000000000000000
2  61 12 0 0.000000000000000 294.000000000000000
0

0101000
+12 0 -47 0 *
Wi

0101100
-11 0 -10 0 -46 0 +15 0 *
Fa
0  0.000000100000000 12 0

0101000
+9 0 *
Ed
 0.000000100000000 1 1 0
1  36 0 0.000000000000000 42.000000000000000
2  62 13 0 0.000000000000000 42.000000000000000
2  63 13 9 0.000000000000000 42.000000000000000
2  64 15 0 0.000000000000000 42.000000000000000
0

0101000
+12 0 -34 0 *
Wi

0101100
-7 0 -30 0 -45 0 +10 0 *
Fa
0  0.000000100000000 13 0

0101000
+6 0 *
Wi

0101100
+7 0 +32 0 +26 0 +21 0 +16 0 +11 0 *
Fa
0  0.000000100000000 15 0

0101000
+4 0 *
Sh

0101100
-84 2 -77 2 -70 2 -63 2 +43 0 -40 2 -37 2 -35 2 +28 0 +23 0 
+18 0 +13 0 +8 0 +5 0 +3 0 *
So

1100000
+2 0 *

+1 1 