
CASCADE Topology V1, (c) Matra-Datavision
Locations 3
1
1.000000000000000 0.000000000000000 0.000000000000000 600.000000000000000 
0.000000000000000 1.000000000000000 0.000000000000000 0.000000000000000 
0.000000000000000 0.000000000000000 1.000000000000000 600.000000000000000 
1
1.000000000000000 0.000000000000000 0.000000000000000 0.000000000000000 
0.000000000000000 1.000000000000000 0.000000000000000 0.000000000000000 
0.000000000000000 0.000000000000000 1.000000000000000 0.000000000000000 
2  2 -1 0
Curve2ds 0
Curves 12
1 0.00000000000000000 0.00000000000000000 0.00000000000000000 0.00000000000000000 0.00000000000000000 1.00000000000000000 
1 0.00000000000000000 0.00000000000000000 450.00000000000000000 0.00000000000000000 1.00000000000000000 0.00000000000000000 
1 0.00000000000000000 8.00000000000000000 0.00000000000000000 0.00000000000000000 0.00000000000000000 1.00000000000000000 
1 0.00000000000000000 0.00000000000000000 0.00000000000000000 0.00000000000000000 1.00000000000000000 0.00000000000000000 
1 300.00000000000000000 0.00000000000000000 0.00000000000000000 0.00000000000000000 0.00000000000000000 1.00000000000000000 
1 300.00000000000000000 0.00000000000000000 450.00000000000000000 0.00000000000000000 1.00000000000000000 0.00000000000000000 
1 300.00000000000000000 8.00000000000000000 0.00000000000000000 0.00000000000000000 0.00000000000000000 1.00000000000000000 
1 300.00000000000000000 0.00000000000000000 0.00000000000000000 0.00000000000000000 1.00000000000000000 0.00000000000000000 
1 0.00000000000000000 0.00000000000000000 0.00000000000000000 1.00000000000000000 0.00000000000000000 0.00000000000000000 
1 0.00000000000000000 0.00000000000000000 450.00000000000000000 1.00000000000000000 0.00000000000000000 0.00000000000000000 
1 0.00000000000000000 8.00000000000000000 0.00000000000000000 1.00000000000000000 0.00000000000000000 0.00000000000000000 
1 0.00000000000000000 8.00000000000000000 450.00000000000000000 1.00000000000000000 0.00000000000000000 0.00000000000000000 
Polygon3D 0
PolygonOnTriangulations 0
Surfaces 6
1 0.00000000000000000 0.00000000000000000 0.00000000000000000 1.00000000000000000 0.00000000000000000 0.00000000000000000 0.00000000000000000 0.00000000000000000 1.00000000000000000 0.00000000000000000 -1.00000000000000000 0.00000000000000000 
1 300.00000000000000000 0.00000000000000000 0.00000000000000000 1.00000000000000000 0.00000000000000000 0.00000000000000000 0.00000000000000000 0.00000000000000000 1.00000000000000000 0.00000000000000000 -1.00000000000000000 0.00000000000000000 
1 0.00000000000000000 0.00000000000000000 0.00000000000000000 0.00000000000000000 1.00000000000000000 0.00000000000000000 0.00000000000000000 -0.00000000000000000 1.00000000000000000 1.00000000000000000 0.00000000000000000 -0.00000000000000000 
1 0.00000000000000000 8.00000000000000000 0.00000000000000000 0.00000000000000000 1.00000000000000000 0.00000000000000000 0.00000000000000000 -0.00000000000000000 1.00000000000000000 1.00000000000000000 0.00000000000000000 -0.00000000000000000 
1 0.00000000000000000 0.00000000000000000 0.00000000000000000 0.00000000000000000 0.00000000000000000 1.00000000000000000 1.00000000000000000 0.00000000000000000 -0.00000000000000000 -0.00000000000000000 1.00000000000000000 0.00000000000000000 
1 0.00000000000000000 0.00000000000000000 450.00000000000000000 0.00000000000000000 0.00000000000000000 1.00000000000000000 1.00000000000000000 0.00000000000000000 -0.00000000000000000 -0.00000000000000000 1.00000000000000000 0.00000000000000000 
Triangulations 0

TShapes 34
Ve
0.000000100000000
0.000000000000000 0.000000000000000 450.000000000000000
0 0

0101101
*
Ve
0.000000100000000
0.000000000000000 0.000000000000000 0.000000000000000
0 0

0101101
*
Ed
 0.000000100000000 1 1 0
1  1 0 0.000000000000000 450.000000000000000
0

0101000
-34 3 +33 3 *
Ve
0.000000100000000
0.000000000000000 8.000000000000000 450.000000000000000
0 0

0101101
*
Ed
 0.000000100000000 1 1 0
1  2 0 0.000000000000000 8.000000000000000
0

0101000
-31 3 +34 3 *
Ve
0.000000100000000
0.000000000000000 8.000000000000000 0.000000000000000
0 0

0101101
*
Ed
 0.000000100000000 1 1 0
1  3 0 0.000000000000000 450.000000000000000
0

0101000
-31 3 +29 3 *
Ed
 0.000000100000000 1 1 0
1  4 0 0.000000000000000 8.000000000000000
0

0101000
-29 3 +33 3 *
Wi

0101100
-32 0 -30 0 +28 0 +27 0 *
Fa
0  0.000000100000000 1 0

0101000
+26 0 *
Ve
0.000000100000000
300.000000000000000 0.000000000000000 450.000000000000000
0 0

0101101
*
Ve
0.000000100000000
300.000000000000000 0.000000000000000 0.000000000000000
0 0

0101101
*
Ed
 0.000000100000000 1 1 0
1  5 0 0.000000000000000 450.000000000000000
0

0101000
-24 3 +23 3 *
Ve
0.000000100000000
300.000000000000000 8.000000000000000 450.000000000000000
0 0

0101101
*
Ed
 0.000000100000000 1 1 0
1  6 0 0.000000000000000 8.000000000000000
0

0101000
-21 3 +24 3 *
Ve
0.000000100000000
300.000000000000000 8.000000000000000 0.000000000000000
0 0

0101101
*
Ed
 0.000000100000000 1 1 0
1  7 0 0.000000000000000 450.000000000000000
0

0101000
-21 3 +19 3 *
Ed
 0.000000100000000 1 1 0
1  8 0 0.000000000000000 8.000000000000000
0

0101000
-19 3 +23 3 *
Wi

0101100
-22 0 -20 0 +18 0 +17 0 *
Fa
0  0.000000100000000 2 0

0101000
+16 0 *
Ed
 0.000000100000000 1 1 0
1  9 0 0.000000000000000 300.000000000000000
0

0101000
-23 3 +33 3 *
Ed
 0.000000100000000 1 1 0
1  10 0 0.000000000000000 300.000000000000000
0

0101000
-24 3 +34 3 *
Wi

0101100
-14 0 -22 0 +13 0 +32 0 *
Fa
0  0.000000100000000 3 0

0101000
+12 0 *
Ed
 0.000000100000000 1 1 0
1  11 0 0.000000000000000 300.000000000000000
0

0101000
-19 3 +29 3 *
Ed
 0.000000100000000 1 1 0
1  12 0 0.000000000000000 300.000000000000000
0

0101000
-21 3 +31 3 *
Wi

0101100
-10 0 -18 0 +9 0 +28 0 *
Fa
0  0.000000100000000 4 0

0101000
+8 0 *
Wi

0101100
-27 0 -10 0 +17 0 +14 0 *
Fa
0  0.000000100000000 5 0

0101000
+6 0 *
Wi

0101100
-30 0 -9 0 +20 0 +13 0 *
Fa
0  0.000000100000000 6 0

0101000
+4 0 *
Sh

0101100
-25 0 +15 0 -11 0 +7 0 -5 0 +3 0 *
So

1100000
+2 0 *

+1 1 