
CASCADE Topology V1, (c) Matra-Datavision
Locations 2
1
1.000000000000000 0.000000000000000 0.000000000000000 0.000000000000000 
0.000000000000000 1.000000000000000 0.000000000000000 0.000000000000000 
0.000000000000000 0.000000000000000 1.000000000000000 0.000000000000000 
1
1.000000000000000 0.000000000000000 0.000000000000000 0.000000000000000 
0.000000000000000 1.000000000000000 0.000000000000000 0.000000000000000 
0.000000000000000 0.000000000000000 1.000000000000000 300.000000000000000 
Curve2ds 0
Curves 12
1 50.00000000000000000 0.00000000000000000 0.00000000000000000 0.00000000000000000 0.00000000000000000 1.00000000000000000 
1 25.00000000000000711 43.30127018922193116 0.00000000000000000 0.00000000000000000 0.00000000000000000 1.00000000000000000 
1 50.00000000000000000 0.00000000000000000 0.00000000000000000 -0.49999999999999994 0.86602540378443871 0.00000000000000000 
1 -24.99999999999999289 43.30127018922193827 0.00000000000000000 0.00000000000000000 0.00000000000000000 1.00000000000000000 
1 25.00000000000000711 43.30127018922193116 0.00000000000000000 -1.00000000000000000 0.00000000000000014 0.00000000000000000 
1 -50.00000000000000000 0.00000000000001421 0.00000000000000000 0.00000000000000000 0.00000000000000000 1.00000000000000000 
1 -24.99999999999999289 43.30127018922193827 0.00000000000000000 -0.50000000000000022 -0.86602540378443860 0.00000000000000000 
1 -25.00000000000001776 -43.30127018922192406 0.00000000000000000 0.00000000000000000 0.00000000000000000 1.00000000000000000 
1 -50.00000000000000000 0.00000000000001421 0.00000000000000000 0.49999999999999972 -0.86602540378443893 0.00000000000000000 
1 24.99999999999997868 -43.30127018922194537 0.00000000000000000 0.00000000000000000 0.00000000000000000 1.00000000000000000 
1 -25.00000000000001776 -43.30127018922192406 0.00000000000000000 1.00000000000000000 -0.00000000000000043 0.00000000000000000 
1 24.99999999999997868 -43.30127018922194537 0.00000000000000000 0.50000000000000033 0.86602540378443860 0.00000000000000000 
Polygon3D 0
PolygonOnTriangulations 0
Surfaces 7
1 50.00000000000000000 0.00000000000000000 0.00000000000000000 -0.86602540378443871 -0.49999999999999994 0.00000000000000000 -0.49999999999999994 0.86602540378443871 0.00000000000000000 -0.00000000000000000 0.00000000000000000 -1.00000000000000000 
1 25.00000000000000711 43.30127018922193116 0.00000000000000000 -0.00000000000000014 -1.00000000000000000 0.00000000000000000 -1.00000000000000000 0.00000000000000014 0.00000000000000000 -0.00000000000000000 0.00000000000000000 -1.00000000000000000 
1 -24.99999999999999289 43.30127018922193827 0.00000000000000000 0.86602540378443860 -0.50000000000000022 0.00000000000000000 -0.50000000000000022 -0.86602540378443860 0.00000000000000000 0.00000000000000000 -0.00000000000000000 -1.00000000000000000 
1 -50.00000000000000000 0.00000000000001421 0.00000000000000000 0.86602540378443893 0.49999999999999972 -0.00000000000000000 0.49999999999999972 -0.86602540378443893 0.00000000000000000 0.00000000000000000 -0.00000000000000000 -1.00000000000000000 
1 -25.00000000000001776 -43.30127018922192406 0.00000000000000000 0.00000000000000043 1.00000000000000000 -0.00000000000000000 1.00000000000000000 -0.00000000000000043 0.00000000000000000 0.00000000000000000 -0.00000000000000000 -1.00000000000000000 
1 24.99999999999997868 -43.30127018922194537 0.00000000000000000 -0.86602540378443860 0.50000000000000033 0.00000000000000000 0.50000000000000022 0.86602540378443849 0.00000000000000000 0.00000000000000000 0.00000000000000000 -1.00000000000000000 
1 -0.00000000000000076 0.00000000000000000 0.00000000000000000 0.00000000000000000 0.00000000000000000 1.00000000000000000 1.00000000000000000 0.00000000000000000 -0.00000000000000000 -0.00000000000000000 1.00000000000000000 0.00000000000000000 
Triangulations 0

TShapes 34
Ve
0.000000100000000
50.000000000000000 0.000000000000000 0.000000000000000
0 0

0101101
*
Ed
 0.000000100000000 1 1 0
1  1 0 0.000000000000000 300.000000000000000
0

0101000
+34 0 -34 2 *
Ve
0.000000100000000
25.000000000000007 43.301270189221931 0.000000000000000
0 0

0101101
*
Ed
 0.000000100000000 1 1 0
1  2 0 0.000000000000000 300.000000000000000
0

0101000
+32 0 -32 2 *
Ed
 0.000000100000000 1 1 0
1  3 0 0.000000000000000 49.999999999999993
0

0101000
+34 0 -32 0 *
Wi

0101100
+33 0 -31 0 -30 0 +30 2 *
Fa
0  0.000000100000000 1 0

0111000
+29 0 *
Ve
0.000000100000000
-24.999999999999993 43.301270189221938 0.000000000000000
0 0

0101101
*
Ed
 0.000000100000000 1 1 0
1  4 0 0.000000000000000 300.000000000000000
0

0101000
+27 0 -27 2 *
Ed
 0.000000100000000 1 1 0
1  5 0 0.000000000000000 50.000000000000000
0

0101000
+32 0 -27 0 *
Wi

0101100
+31 0 -26 0 -25 0 +25 2 *
Fa
0  0.000000100000000 2 0

0111000
+24 0 *
Ve
0.000000100000000
-50.000000000000000 0.000000000000014 0.000000000000000
0 0

0101101
*
Ed
 0.000000100000000 1 1 0
1  6 0 0.000000000000000 300.000000000000000
0

0101000
+22 0 -22 2 *
Ed
 0.000000100000000 1 1 0
1  7 0 0.000000000000000 49.999999999999993
0

0101000
+27 0 -22 0 *
Wi

0101100
+26 0 -21 0 -20 0 +20 2 *
Fa
0  0.000000100000000 3 0

0111000
+19 0 *
Ve
0.000000100000000
-25.000000000000018 -43.301270189221924 0.000000000000000
0 0

0101101
*
Ed
 0.000000100000000 1 1 0
1  8 0 0.000000000000000 300.000000000000000
0

0101000
+17 0 -17 2 *
Ed
 0.000000100000000 1 1 0
1  9 0 0.000000000000000 49.999999999999993
0

0101000
+22 0 -17 0 *
Wi

0101100
+21 0 -16 0 -15 0 +15 2 *
Fa
0  0.000000100000000 4 0

0111000
+14 0 *
Ve
0.000000100000000
24.999999999999979 -43.301270189221945 0.000000000000000
0 0

0101101
*
Ed
 0.000000100000000 1 1 0
1  10 0 0.000000000000000 300.000000000000000
0

0101000
+12 0 -12 2 *
Ed
 0.000000100000000 1 1 0
1  11 0 0.000000000000000 50.000000000000000
0

0101000
+17 0 -12 0 *
Wi

0101100
+16 0 -11 0 -10 0 +10 2 *
Fa
0  0.000000100000000 5 0

0111000
+9 0 *
Ed
 0.000000100000000 1 1 0
1  12 0 0.000000000000000 50.000000000000021
0

0101000
+12 0 -34 0 *
Wi

0101100
+11 0 -33 0 -7 0 +7 2 *
Fa
0  0.000000100000000 6 0

0111000
+6 0 *
Wi

0101100
+30 0 +25 0 +20 0 +15 0 +10 0 +7 0 *
Fa
0  0.000000100000000 7 0

0111000
+4 0 *
Sh

0101100
+28 0 +23 0 +18 0 +13 0 +8 0 +5 0 +3 0 -3 2 *
So

1100000
-2 0 *

+1 1 