
CASCADE Topology V1, (c) Matra-Datavision
Locations 8
1
1.000000000000000 0.000000000000000 0.000000000000000 0.000000000000000 
0.000000000000000 -0.000000000000000 -1.000000000000000 0.000000000000000 
0.000000000000000 1.000000000000000 -0.000000000000000 0.000000000000000 
2  1 -1 0
1
1.000000000000000 0.000000000000000 0.000000000000000 0.000000000000000 
0.000000000000000 1.000000000000000 0.000000000000000 0.000000000000000 
0.000000000000000 0.000000000000000 1.000000000000000 500.000000000000000 
2  1 -1 3 1 0
1
1.000000000000000 0.000000000000000 0.000000000000000 0.000000000000000 
0.000000000000000 -0.000000000000000 -1.000000000000000 0.000000000000000 
0.000000000000000 1.000000000000000 -0.000000000000000 0.000000000000000 
2  5 1 1 -1 0
2  5 -1 0
2  5 1 1 -1 3 1 0
Curve2ds 0
Curves 44
1 0.00000000000000000 0.00000000000000000 0.00000000000000000 0.00000000000000000 0.00000000000000000 1.00000000000000000 
1 0.00000000000000000 1000.00000000000000000 0.00000000000000000 0.00000000000000000 0.00000000000000000 1.00000000000000000 
1 0.00000000000000000 0.00000000000000000 0.00000000000000000 0.00000000000000000 1.00000000000000000 0.00000000000000000 
1 100.00000000000000000 1000.00000000000000000 0.00000000000000000 0.00000000000000000 0.00000000000000000 1.00000000000000000 
1 0.00000000000000000 1000.00000000000000000 0.00000000000000000 1.00000000000000000 0.00000000000000000 0.00000000000000000 
1 150.00000000000000000 925.00000000000000000 0.00000000000000000 0.00000000000000000 0.00000000000000000 1.00000000000000000 
1 100.00000000000000000 1000.00000000000000000 0.00000000000000000 0.55470019622522915 -0.83205029433784372 0.00000000000000000 
1 350.00000000000000000 925.00000000000000000 0.00000000000000000 0.00000000000000000 0.00000000000000000 1.00000000000000000 
1 150.00000000000000000 925.00000000000000000 0.00000000000000000 1.00000000000000000 0.00000000000000000 0.00000000000000000 
1 400.00000000000000000 1000.00000000000000000 0.00000000000000000 0.00000000000000000 0.00000000000000000 1.00000000000000000 
1 350.00000000000000000 925.00000000000000000 0.00000000000000000 0.55470019622522915 0.83205029433784372 0.00000000000000000 
1 500.00000000000000000 1000.00000000000000000 0.00000000000000000 0.00000000000000000 0.00000000000000000 1.00000000000000000 
1 400.00000000000000000 1000.00000000000000000 0.00000000000000000 1.00000000000000000 0.00000000000000000 0.00000000000000000 
1 500.00000000000000000 400.00000000000000000 0.00000000000000000 0.00000000000000000 0.00000000000000000 1.00000000000000000 
1 500.00000000000000000 1000.00000000000000000 0.00000000000000000 0.00000000000000000 -1.00000000000000000 0.00000000000000000 
1 1000.00000000000000000 400.00000000000000000 0.00000000000000000 0.00000000000000000 0.00000000000000000 1.00000000000000000 
1 500.00000000000000000 400.00000000000000000 0.00000000000000000 1.00000000000000000 0.00000000000000000 0.00000000000000000 
1 1000.00000000000000000 0.00000000000000000 0.00000000000000000 0.00000000000000000 0.00000000000000000 1.00000000000000000 
1 1000.00000000000000000 400.00000000000000000 0.00000000000000000 0.00000000000000000 -1.00000000000000000 0.00000000000000000 
1 968.00000000000000000 0.00000000000000000 0.00000000000000000 0.00000000000000000 0.00000000000000000 1.00000000000000000 
1 1000.00000000000000000 0.00000000000000000 0.00000000000000000 -1.00000000000000000 0.00000000000000000 0.00000000000000000 
1 968.00000000000000000 368.00000000000000000 0.00000000000000000 0.00000000000000000 0.00000000000000000 1.00000000000000000 
1 968.00000000000000000 0.00000000000000000 0.00000000000000000 0.00000000000000000 1.00000000000000000 0.00000000000000000 
1 500.00000000000000000 368.00000000000000000 0.00000000000000000 0.00000000000000000 0.00000000000000000 1.00000000000000000 
1 968.00000000000000000 368.00000000000000000 0.00000000000000000 -1.00000000000000000 0.00000000000000000 0.00000000000000000 
1 500.00000000000000000 0.00000000000000000 0.00000000000000000 0.00000000000000000 0.00000000000000000 1.00000000000000000 
1 500.00000000000000000 368.00000000000000000 0.00000000000000000 0.00000000000000000 -1.00000000000000000 0.00000000000000000 
1 468.00000000000000000 0.00000000000000000 0.00000000000000000 0.00000000000000000 0.00000000000000000 1.00000000000000000 
1 500.00000000000000000 0.00000000000000000 0.00000000000000000 -1.00000000000000000 0.00000000000000000 0.00000000000000000 
1 468.00000000000000000 968.00000000000000000 0.00000000000000000 0.00000000000000000 0.00000000000000000 1.00000000000000000 
1 468.00000000000000000 0.00000000000000000 0.00000000000000000 0.00000000000000000 1.00000000000000000 0.00000000000000000 
1 418.00000000000000000 968.00000000000000000 0.00000000000000000 0.00000000000000000 0.00000000000000000 1.00000000000000000 
1 468.00000000000000000 968.00000000000000000 0.00000000000000000 -1.00000000000000000 0.00000000000000000 0.00000000000000000 
1 367.99999999999965894 893.00000000000000000 0.00000000000000000 0.00000000000000000 0.00000000000000000 1.00000000000000000 
1 418.00000000000000000 968.00000000000000000 0.00000000000000000 -0.55470019622523181 -0.83205029433784194 0.00000000000000000 
1 132.00000000000000000 893.00000000000000000 0.00000000000000000 0.00000000000000000 0.00000000000000000 1.00000000000000000 
1 367.99999999999965894 893.00000000000000000 0.00000000000000000 -1.00000000000000000 0.00000000000000000 0.00000000000000000 
1 82.00000000000000000 968.00000000000000000 0.00000000000000000 0.00000000000000000 0.00000000000000000 1.00000000000000000 
1 132.00000000000000000 893.00000000000000000 0.00000000000000000 -0.55470019622522915 0.83205029433784372 0.00000000000000000 
1 32.00000000000000000 968.00000000000000000 0.00000000000000000 0.00000000000000000 0.00000000000000000 1.00000000000000000 
1 82.00000000000000000 968.00000000000000000 0.00000000000000000 -1.00000000000000000 0.00000000000000000 0.00000000000000000 
1 32.00000000000000000 0.00000000000000000 0.00000000000000000 0.00000000000000000 0.00000000000000000 1.00000000000000000 
1 32.00000000000000000 968.00000000000000000 0.00000000000000000 0.00000000000000000 -1.00000000000000000 0.00000000000000000 
1 32.00000000000000000 0.00000000000000000 0.00000000000000000 -1.00000000000000000 0.00000000000000000 0.00000000000000000 
Polygon3D 0
PolygonOnTriangulations 0
Surfaces 23
1 0.00000000000000000 0.00000000000000000 0.00000000000000000 -1.00000000000000000 0.00000000000000000 0.00000000000000000 0.00000000000000000 1.00000000000000000 0.00000000000000000 0.00000000000000000 0.00000000000000000 -1.00000000000000000 
1 0.00000000000000000 1000.00000000000000000 0.00000000000000000 0.00000000000000000 1.00000000000000000 0.00000000000000000 1.00000000000000000 0.00000000000000000 0.00000000000000000 0.00000000000000000 0.00000000000000000 -1.00000000000000000 
1 100.00000000000000000 1000.00000000000000000 0.00000000000000000 0.83205029433784372 0.55470019622522915 -0.00000000000000000 0.55470019622522915 -0.83205029433784372 0.00000000000000000 0.00000000000000000 -0.00000000000000000 -1.00000000000000000 
1 150.00000000000000000 925.00000000000000000 0.00000000000000000 0.00000000000000000 1.00000000000000000 0.00000000000000000 1.00000000000000000 0.00000000000000000 0.00000000000000000 0.00000000000000000 0.00000000000000000 -1.00000000000000000 
1 350.00000000000000000 925.00000000000000000 0.00000000000000000 -0.83205029433784372 0.55470019622522915 0.00000000000000000 0.55470019622522915 0.83205029433784372 0.00000000000000000 0.00000000000000000 0.00000000000000000 -1.00000000000000000 
1 400.00000000000000000 1000.00000000000000000 0.00000000000000000 0.00000000000000000 1.00000000000000000 0.00000000000000000 1.00000000000000000 0.00000000000000000 0.00000000000000000 0.00000000000000000 0.00000000000000000 -1.00000000000000000 
1 500.00000000000000000 1000.00000000000000000 0.00000000000000000 1.00000000000000000 0.00000000000000000 -0.00000000000000000 0.00000000000000000 -1.00000000000000000 0.00000000000000000 0.00000000000000000 -0.00000000000000000 -1.00000000000000000 
1 500.00000000000000000 400.00000000000000000 0.00000000000000000 0.00000000000000000 1.00000000000000000 0.00000000000000000 1.00000000000000000 0.00000000000000000 0.00000000000000000 0.00000000000000000 0.00000000000000000 -1.00000000000000000 
1 1000.00000000000000000 400.00000000000000000 0.00000000000000000 1.00000000000000000 0.00000000000000000 -0.00000000000000000 0.00000000000000000 -1.00000000000000000 0.00000000000000000 0.00000000000000000 -0.00000000000000000 -1.00000000000000000 
1 1000.00000000000000000 0.00000000000000000 0.00000000000000000 0.00000000000000000 -1.00000000000000000 0.00000000000000000 -1.00000000000000000 0.00000000000000000 0.00000000000000000 -0.00000000000000000 -0.00000000000000000 -1.00000000000000000 
1 968.00000000000000000 0.00000000000000000 0.00000000000000000 -1.00000000000000000 0.00000000000000000 0.00000000000000000 0.00000000000000000 1.00000000000000000 0.00000000000000000 0.00000000000000000 0.00000000000000000 -1.00000000000000000 
1 968.00000000000000000 368.00000000000000000 0.00000000000000000 0.00000000000000000 -1.00000000000000000 0.00000000000000000 -1.00000000000000000 0.00000000000000000 0.00000000000000000 -0.00000000000000000 -0.00000000000000000 -1.00000000000000000 
1 500.00000000000000000 368.00000000000000000 0.00000000000000000 1.00000000000000000 0.00000000000000000 -0.00000000000000000 0.00000000000000000 -1.00000000000000000 0.00000000000000000 0.00000000000000000 -0.00000000000000000 -1.00000000000000000 
1 500.00000000000000000 0.00000000000000000 0.00000000000000000 0.00000000000000000 -1.00000000000000000 0.00000000000000000 -1.00000000000000000 0.00000000000000000 0.00000000000000000 -0.00000000000000000 -0.00000000000000000 -1.00000000000000000 
1 468.00000000000000000 0.00000000000000000 0.00000000000000000 -1.00000000000000000 0.00000000000000000 0.00000000000000000 0.00000000000000000 1.00000000000000000 0.00000000000000000 0.00000000000000000 0.00000000000000000 -1.00000000000000000 
1 468.00000000000000000 968.00000000000000000 0.00000000000000000 0.00000000000000000 -1.00000000000000000 0.00000000000000000 -1.00000000000000000 0.00000000000000000 0.00000000000000000 -0.00000000000000000 -0.00000000000000000 -1.00000000000000000 
1 418.00000000000000000 968.00000000000000000 0.00000000000000000 0.83205029433784194 -0.55470019622523181 0.00000000000000000 -0.55470019622523181 -0.83205029433784194 0.00000000000000000 0.00000000000000000 -0.00000000000000000 -1.00000000000000000 
1 367.99999999999965894 893.00000000000000000 0.00000000000000000 0.00000000000000000 -1.00000000000000000 0.00000000000000000 -1.00000000000000000 0.00000000000000000 0.00000000000000000 -0.00000000000000000 -0.00000000000000000 -1.00000000000000000 
1 132.00000000000000000 893.00000000000000000 0.00000000000000000 -0.83205029433784372 -0.55470019622522915 0.00000000000000000 -0.55470019622522915 0.83205029433784372 0.00000000000000000 -0.00000000000000000 0.00000000000000000 -1.00000000000000000 
1 82.00000000000000000 968.00000000000000000 0.00000000000000000 0.00000000000000000 -1.00000000000000000 0.00000000000000000 -1.00000000000000000 0.00000000000000000 0.00000000000000000 -0.00000000000000000 -0.00000000000000000 -1.00000000000000000 
1 32.00000000000000000 968.00000000000000000 0.00000000000000000 1.00000000000000000 0.00000000000000000 -0.00000000000000000 0.00000000000000000 -1.00000000000000000 0.00000000000000000 0.00000000000000000 -0.00000000000000000 -1.00000000000000000 
1 32.00000000000000000 0.00000000000000000 0.00000000000000000 0.00000000000000000 -1.00000000000000000 0.00000000000000000 -1.00000000000000000 0.00000000000000000 0.00000000000000000 -0.00000000000000000 -0.00000000000000000 -1.00000000000000000 
1 404.58697080125784851 -0.00000000000011304 509.10462678869089359 -0.00000000000000000 1.00000000000000000 0.00000000000000022 0.00000000000000000 -0.00000000000000022 1.00000000000000000 1.00000000000000000 0.00000000000000000 0.00000000000000000 
Triangulations 0

TShapes 114
Ve
0.000000100000000
0.000000000000000 0.000000000000000 0.000000000000000
0 0

0101101
*
Ed
 0.000000100000000 1 1 0
1  1 0 0.000000000000000 500.000000000000000
0

0101000
+114 2 -114 4 *
Ve
0.000000100000000
0.000000000000000 -0.000000000000222 1000.000000000000000
0 0

0101101
*
Ed
 0.000000100000000 1 1 0
1  2 0 0.000000000000000 500.000000000000000
0

0101000
+112 2 -112 4 *
Ed
 0.000000100000000 1 1 0
1  3 0 0.000000000000000 1000.000000000000000
0

0101000
+114 7 -112 7 *
Wi

0101100
+113 0 -111 0 -110 6 +110 8 *
Fa
0  0.000000100000000 1 0

0111000
+109 0 *
Ve
0.000000100000000
100.000000000000000 -0.000000000000222 1000.000000000000000
0 0

0101101
*
Ed
 0.000000100000000 1 1 0
1  4 0 0.000000000000000 500.000000000000000
0

0101000
+107 2 -107 4 *
Ed
 0.000000100000000 1 1 0
1  5 0 0.000000000000000 100.000000000000000
0

0101000
+112 7 -107 7 *
Wi

0101100
+111 0 -106 0 -105 6 +105 8 *
Fa
0  0.000000100000000 2 0

0111000
+104 0 *
Ve
0.000000100000000
150.000000000000000 -0.000000000000205 925.000000000000000
0 0

0101101
*
Ed
 0.000000100000000 1 1 0
1  6 0 0.000000000000000 500.000000000000000
0

0101000
+102 2 -102 4 *
Ed
 0.000000100000000 1 1 0
1  7 0 0.000000000000000 90.138781886599730
0

0101000
+107 7 -102 7 *
Wi

0101100
+106 0 -101 0 -100 6 +100 8 *
Fa
0  0.000000100000000 3 0

0111000
+99 0 *
Ve
0.000000100000000
350.000000000000000 -0.000000000000205 925.000000000000000
0 0

0101101
*
Ed
 0.000000100000000 1 1 0
1  8 0 0.000000000000000 500.000000000000000
0

0101000
+97 2 -97 4 *
Ed
 0.000000100000000 1 1 0
1  9 0 0.000000000000000 200.000000000000000
0

0101000
+102 7 -97 7 *
Wi

0101100
+101 0 -96 0 -95 6 +95 8 *
Fa
0  0.000000100000000 4 0

0111000
+94 0 *
Ve
0.000000100000000
400.000000000000000 -0.000000000000222 1000.000000000000000
0 0

0101101
*
Ed
 0.000000100000000 1 1 0
1  10 0 0.000000000000000 500.000000000000000
0

0101000
+92 2 -92 4 *
Ed
 0.000000100000000 1 1 0
1  11 0 0.000000000000000 90.138781886599730
0

0101000
+97 7 -92 7 *
Wi

0101100
+96 0 -91 0 -90 6 +90 8 *
Fa
0  0.000000100000000 5 0

0111000
+89 0 *
Ve
0.000000100000000
500.000000000000000 -0.000000000000222 1000.000000000000000
0 0

0101101
*
Ed
 0.000000100000000 1 1 0
1  12 0 0.000000000000000 500.000000000000000
0

0101000
+87 2 -87 4 *
Ed
 0.000000100000000 1 1 0
1  13 0 0.000000000000000 100.000000000000000
0

0101000
+92 7 -87 7 *
Wi

0101100
+91 0 -86 0 -85 6 +85 8 *
Fa
0  0.000000100000000 6 0

0111000
+84 0 *
Ve
0.000000100000000
500.000000000000000 -0.000000000000089 400.000000000000000
0 0

0101101
*
Ed
 0.000000100000000 1 1 0
1  14 0 0.000000000000000 500.000000000000000
0

0101000
+82 2 -82 4 *
Ed
 0.000000100000000 1 1 0
1  15 0 0.000000000000000 600.000000000000000
0

0101000
+87 7 -82 7 *
Wi

0101100
+86 0 -81 0 -80 6 +80 8 *
Fa
0  0.000000100000000 7 0

0111000
+79 0 *
Ve
0.000000100000000
1000.000000000000000 -0.000000000000089 400.000000000000000
0 0

0101101
*
Ed
 0.000000100000000 1 1 0
1  16 0 0.000000000000000 500.000000000000000
0

0101000
+77 2 -77 4 *
Ed
 0.000000100000000 1 1 0
1  17 0 0.000000000000000 500.000000000000000
0

0101000
+82 7 -77 7 *
Wi

0101100
+81 0 -76 0 -75 6 +75 8 *
Fa
0  0.000000100000000 8 0

0111000
+74 0 *
Ve
0.000000100000000
1000.000000000000000 0.000000000000000 0.000000000000000
0 0

0101101
*
Ed
 0.000000100000000 1 1 0
1  18 0 0.000000000000000 500.000000000000000
0

0101000
+72 2 -72 4 *
Ed
 0.000000100000000 1 1 0
1  19 0 0.000000000000000 400.000000000000000
0

0101000
+77 7 -72 7 *
Wi

0101100
+76 0 -71 0 -70 6 +70 8 *
Fa
0  0.000000100000000 9 0

0111000
+69 0 *
Ve
0.000000100000000
968.000000000000000 0.000000000000000 0.000000000000000
0 0

0101101
*
Ed
 0.000000100000000 1 1 0
1  20 0 0.000000000000000 500.000000000000000
0

0101000
+67 2 -67 4 *
Ed
 0.000000100000000 1 1 0
1  21 0 0.000000000000000 32.000000000000000
0

0101000
+72 7 -67 7 *
Wi

0101100
+71 0 -66 0 -65 6 +65 8 *
Fa
0  0.000000100000000 10 0

0111000
+64 0 *
Ve
0.000000100000000
968.000000000000000 -0.000000000000082 368.000000000000000
0 0

0101101
*
Ed
 0.000000100000000 1 1 0
1  22 0 0.000000000000000 500.000000000000000
0

0101000
+62 2 -62 4 *
Ed
 0.000000100000000 1 1 0
1  23 0 0.000000000000000 368.000000000000000
0

0101000
+67 7 -62 7 *
Wi

0101100
+66 0 -61 0 -60 6 +60 8 *
Fa
0  0.000000100000000 11 0

0111000
+59 0 *
Ve
0.000000100000000
500.000000000000000 -0.000000000000082 368.000000000000000
0 0

0101101
*
Ed
 0.000000100000000 1 1 0
1  24 0 0.000000000000000 500.000000000000000
0

0101000
+57 2 -57 4 *
Ed
 0.000000100000000 1 1 0
1  25 0 0.000000000000000 468.000000000000000
0

0101000
+62 7 -57 7 *
Wi

0101100
+61 0 -56 0 -55 6 +55 8 *
Fa
0  0.000000100000000 12 0

0111000
+54 0 *
Ve
0.000000100000000
500.000000000000000 0.000000000000000 0.000000000000000
0 0

0101101
*
Ed
 0.000000100000000 1 1 0
1  26 0 0.000000000000000 500.000000000000000
0

0101000
+52 2 -52 4 *
Ed
 0.000000100000000 1 1 0
1  27 0 0.000000000000000 368.000000000000000
0

0101000
+57 7 -52 7 *
Wi

0101100
+56 0 -51 0 -50 6 +50 8 *
Fa
0  0.000000100000000 13 0

0111000
+49 0 *
Ve
0.000000100000000
468.000000000000000 0.000000000000000 0.000000000000000
0 0

0101101
*
Ed
 0.000000100000000 1 1 0
1  28 0 0.000000000000000 500.000000000000000
0

0101000
+47 2 -47 4 *
Ed
 0.000000100000000 1 1 0
1  29 0 0.000000000000000 32.000000000000000
0

0101000
+52 7 -47 7 *
Wi

0101100
+51 0 -46 0 -45 6 +45 8 *
Fa
0  0.000000100000000 14 0

0111000
+44 0 *
Ve
0.000000100000000
468.000000000000000 -0.000000000000215 968.000000000000000
0 0

0101101
*
Ed
 0.000000100000000 1 1 0
1  30 0 0.000000000000000 500.000000000000000
0

0101000
+42 2 -42 4 *
Ed
 0.000000100000000 1 1 0
1  31 0 0.000000000000000 968.000000000000000
0

0101000
+47 7 -42 7 *
Wi

0101100
+46 0 -41 0 -40 6 +40 8 *
Fa
0  0.000000100000000 15 0

0111000
+39 0 *
Ve
0.000000100000000
418.000000000000000 -0.000000000000215 968.000000000000000
0 0

0101101
*
Ed
 0.000000100000000 1 1 0
1  32 0 0.000000000000000 500.000000000000000
0

0101000
+37 2 -37 4 *
Ed
 0.000000100000000 1 1 0
1  33 0 0.000000000000000 50.000000000000000
0

0101000
+42 7 -37 7 *
Wi

0101100
+41 0 -36 0 -35 6 +35 8 *
Fa
0  0.000000100000000 16 0

0111000
+34 0 *
Ve
0.000000100000000
367.999999999999659 -0.000000000000198 893.000000000000000
0 0

0101101
*
Ed
 0.000000100000000 1 1 0
1  34 0 0.000000000000000 500.000000000000000
0

0101000
+32 2 -32 4 *
Ed
 0.000000100000000 1 1 0
1  35 0 0.000000000000000 90.138781886599929
0

0101000
+37 7 -32 7 *
Wi

0101100
+36 0 -31 0 -30 6 +30 8 *
Fa
0  0.000000100000000 17 0

0111000
+29 0 *
Ve
0.000000100000000
132.000000000000000 -0.000000000000198 893.000000000000000
0 0

0101101
*
Ed
 0.000000100000000 1 1 0
1  36 0 0.000000000000000 500.000000000000000
0

0101000
+27 2 -27 4 *
Ed
 0.000000100000000 1 1 0
1  37 0 0.000000000000000 235.999999999999659
0

0101000
+32 7 -27 7 *
Wi

0101100
+31 0 -26 0 -25 6 +25 8 *
Fa
0  0.000000100000000 18 0

0111000
+24 0 *
Ve
0.000000100000000
82.000000000000000 -0.000000000000215 968.000000000000000
0 0

0101101
*
Ed
 0.000000100000000 1 1 0
1  38 0 0.000000000000000 500.000000000000000
0

0101000
+22 2 -22 4 *
Ed
 0.000000100000000 1 1 0
1  39 0 0.000000000000000 90.138781886599730
0

0101000
+27 7 -22 7 *
Wi

0101100
+26 0 -21 0 -20 6 +20 8 *
Fa
0  0.000000100000000 19 0

0111000
+19 0 *
Ve
0.000000100000000
32.000000000000000 -0.000000000000215 968.000000000000000
0 0

0101101
*
Ed
 0.000000100000000 1 1 0
1  40 0 0.000000000000000 500.000000000000000
0

0101000
+17 2 -17 4 *
Ed
 0.000000100000000 1 1 0
1  41 0 0.000000000000000 50.000000000000000
0

0101000
+22 7 -17 7 *
Wi

0101100
+21 0 -16 0 -15 6 +15 8 *
Fa
0  0.000000100000000 20 0

0111000
+14 0 *
Ve
0.000000100000000
32.000000000000000 0.000000000000000 0.000000000000000
0 0

0101101
*
Ed
 0.000000100000000 1 1 0
1  42 0 0.000000000000000 500.000000000000000
0

0101000
+12 2 -12 4 *
Ed
 0.000000100000000 1 1 0
1  43 0 0.000000000000000 968.000000000000000
0

0101000
+17 7 -12 7 *
Wi

0101100
+16 0 -11 0 -10 6 +10 8 *
Fa
0  0.000000100000000 21 0

0111000
+9 0 *
Ed
 0.000000100000000 1 1 0
1  44 0 0.000000000000000 32.000000000000000
0

0101000
+12 7 -114 7 *
Wi

0101100
+11 0 -113 0 -7 6 +7 8 *
Fa
0  0.000000100000000 22 0

0111000
+6 0 *
Wi

0101100
+110 0 +105 0 +100 0 +95 0 +90 0 +85 0 +80 0 +75 0 +70 0 +65 0 
+60 0 +55 0 +50 0 +45 0 +40 0 +35 0 +30 0 +25 0 +20 0 +15 0 
+10 0 +7 0 *
Fa
0  0.000000100000000 23 0

0111000
+4 5 *
Sh

0101100
+108 0 +103 0 +98 0 +93 0 +88 0 +83 0 +78 0 +73 0 +68 0 +63 0 
+58 0 +53 0 +48 0 +43 0 +38 0 +33 0 +28 0 +23 0 +18 0 +13 0 
+8 0 +5 0 +3 2 -3 4 *
So

1100000
+2 0 *

+1 0 