
CASCADE Topology V1, (c) Matra-Datavision
Locations 35
1
1.000000000000000 0.000000000000000 0.000000000000000 0.000000000000000 
0.000000000000000 1.000000000000000 0.000000000000000 0.000000000000000 
0.000000000000000 0.000000000000000 1.000000000000000 0.000000000000000 
1
1.000000000000000 0.000000000000000 0.000000000000000 0.000000000000000 
0.000000000000000 -0.000000000000000 -1.000000000000000 0.000000000000000 
0.000000000000000 1.000000000000000 -0.000000000000000 0.000000000000000 
1
1.000000000000000 0.000000000000000 0.000000000000000 0.000000000000000 
0.000000000000000 1.000000000000000 0.000000000000000 0.000000000000000 
0.000000000000000 0.000000000000000 1.000000000000000 0.000000000000000 
1
1.000000000000000 0.000000000000000 0.000000000000000 0.000000000000000 
0.000000000000000 1.000000000000000 0.000000000000000 -450.000000000000000 
0.000000000000000 0.000000000000000 1.000000000000000 200.000000000000000 
2  2 1 3 1 4 1 0
1
1.000000000000000 0.000000000000000 0.000000000000000 500.000000000000000 
0.000000000000000 1.000000000000000 0.000000000000000 -450.000000000000000 
0.000000000000000 0.000000000000000 1.000000000000000 200.000000000000000 
2  6 -1 4 -1 3 -1 2 -1 0
1
1.000000000000000 0.000000000000000 0.000000000000000 0.000000000000000 
0.000000000000000 -0.000000000000000 -1.000000000000000 0.000000000000000 
0.000000000000000 1.000000000000000 -0.000000000000000 0.000000000000000 
1
1.000000000000000 0.000000000000000 0.000000000000000 0.000000000000000 
0.000000000000000 -0.000000000000000 -1.000000000000000 0.000000000000000 
0.000000000000000 1.000000000000000 -0.000000000000000 0.000000000000000 
2  8 1 9 -1 0
2  6 -1 4 -1 3 -1 2 -1 9 1 8 -1 0
1
1.000000000000000 0.000000000000000 0.000000000000000 0.000000000000000 
0.000000000000000 1.000000000000000 0.000000000000000 0.000000000000000 
0.000000000000000 0.000000000000000 1.000000000000000 500.000000000000000 
2  8 1 9 -1 12 1 0
2  6 -1 4 -1 3 -1 2 -1 12 -1 9 1 8 -1 0
2  2 1 3 1 0
2  8 1 9 -1 12 1 2 1 3 1 0
2  6 -1 4 -1 0
2  9 -1 12 1 2 1 3 1 4 1 0
2  4 -1 0
2  6 -1 0
2  8 1 9 -1 2 1 3 1 0
2  6 -1 4 -1 3 -1 0
2  3 1 4 1 0
2  8 1 9 -1 12 1 2 1 3 1 4 1 0
2  8 1 9 -1 2 1 3 1 4 1 0
1
1.000000000000000 0.000000000000000 0.000000000000000 -0.000000000000067 
0.000000000000000 1.000000000000000 0.000000000000000 0.000000000000067 
0.000000000000000 0.000000000000000 1.000000000000000 200.000000000000000 
2  6 -1 4 -1 26 -1 0
1
1.000000000000000 0.000000000000000 0.000000000000000 -0.000000000000133 
0.000000000000000 1.000000000000000 0.000000000000000 0.000000000000133 
0.000000000000000 0.000000000000000 1.000000000000000 400.000000000000000 
2  6 -1 4 -1 28 -1 0
2  4 -1 3 -1 2 -1 0
1
1.000000000000000 0.000000000000000 0.000000000000000 -0.000000000000200 
0.000000000000000 1.000000000000000 0.000000000000000 0.000000000000200 
0.000000000000000 0.000000000000000 1.000000000000000 600.000000000000000 
2  6 -1 4 -1 31 -1 0
2  26 1 4 1 0
2  28 1 4 1 0
2  31 1 4 1 0
Curve2ds 0
Curves 126
1 0.00000000000000000 799.99999999999988631 -449.99999999999994316 0.00000000000000000 0.00000000000000000 1.00000000000000000 
1 100.00000000000000000 799.99999999999988631 -449.99999999999994316 0.00000000000000000 0.00000000000000000 1.00000000000000000 
1 0.00000000000000000 799.99999999999988631 -449.99999999999994316 1.00000000000000000 0.00000000000000000 0.00000000000000000 
1 0.00000000000000000 799.99999999999988631 -450.00000000000000000 1.00000000000000000 0.00000000000000000 0.00000000000000000 
1 0.00000000000000000 -200.00000000000011369 -449.99999999999994316 0.00000000000000000 0.00000000000000000 1.00000000000000000 
1 0.00000000000000000 -200.00000000000011369 -450.00000000000000000 0.00000000000000000 1.00000000000000000 0.00000000000000000 
1 0.00000000000000000 450.00000000000000000 -200.00000000000000000 0.00000000000000000 -0.00000000000000022 1.00000000000000000 
1 150.00000000000000000 724.99999999999988631 -449.99999999999994316 0.00000000000000000 0.00000000000000000 1.00000000000000000 
1 100.00000000000000000 799.99999999999988631 -449.99999999999994316 0.55470019622522915 -0.83205029433784372 0.00000000000000000 
1 100.00000000000000000 799.99999999999988631 -450.00000000000000000 0.55470019622522915 -0.83205029433784372 0.00000000000000000 
1 150.00000000000000000 724.99999999999988631 -450.00000000000000000 1.00000000000000000 0.00000000000000000 0.00000000000000000 
1 350.00000000000000000 724.99999999999988631 -450.00000000000000000 0.55470019622522915 0.83205029433784372 0.00000000000000000 
1 400.00000000000000000 799.99999999999988631 -450.00000000000000000 1.00000000000000000 0.00000000000000000 0.00000000000000000 
1 500.00000000000000000 799.99999999999988631 -450.00000000000000000 0.00000000000000000 -1.00000000000000000 0.00000000000000000 
1 500.00000000000000000 199.99999999999985789 -450.00000000000000000 1.00000000000000000 0.00000000000000000 0.00000000000000000 
1 1000.00000000000000000 199.99999999999985789 -450.00000000000000000 0.00000000000000000 -1.00000000000000000 0.00000000000000000 
1 1000.00000000000000000 -200.00000000000011369 -450.00000000000000000 -1.00000000000000000 0.00000000000000000 0.00000000000000000 
1 968.00000000000000000 -200.00000000000011369 -450.00000000000000000 0.00000000000000000 1.00000000000000000 0.00000000000000000 
1 968.00000000000000000 167.99999999999985789 -450.00000000000000000 -1.00000000000000000 0.00000000000000000 0.00000000000000000 
1 500.00000000000000000 167.99999999999985789 -450.00000000000000000 0.00000000000000000 -1.00000000000000000 0.00000000000000000 
1 500.00000000000000000 -200.00000000000011369 -450.00000000000000000 -1.00000000000000000 0.00000000000000000 0.00000000000000000 
1 468.00000000000000000 -200.00000000000011369 -450.00000000000000000 0.00000000000000000 1.00000000000000000 0.00000000000000000 
1 468.00000000000000000 767.99999999999988631 -450.00000000000000000 -1.00000000000000000 0.00000000000000000 0.00000000000000000 
1 418.00000000000000000 767.99999999999988631 -450.00000000000000000 -0.55470019622523181 -0.83205029433784194 0.00000000000000000 
1 367.99999999999965894 692.99999999999988631 -450.00000000000000000 -1.00000000000000000 0.00000000000000000 0.00000000000000000 
1 132.00000000000000000 692.99999999999988631 -450.00000000000000000 -0.55470019622522915 0.83205029433784372 0.00000000000000000 
1 82.00000000000000000 767.99999999999988631 -450.00000000000000000 -1.00000000000000000 0.00000000000000000 0.00000000000000000 
1 32.00000000000000000 767.99999999999988631 -450.00000000000000000 0.00000000000000000 -1.00000000000000000 0.00000000000000000 
1 32.00000000000000000 -200.00000000000011369 -450.00000000000000000 -1.00000000000000000 0.00000000000000000 0.00000000000000000 
1 32.00000000000000000 -200.00000000000011369 -449.99999999999994316 0.00000000000000000 0.00000000000000000 1.00000000000000000 
1 32.00000000000000000 -200.00000000000011369 -449.99999999999994316 -1.00000000000000000 0.00000000000000000 0.00000000000000000 
1 350.00000000000000000 724.99999999999988631 -449.99999999999994316 0.00000000000000000 0.00000000000000000 1.00000000000000000 
1 150.00000000000000000 724.99999999999988631 -449.99999999999994316 1.00000000000000000 0.00000000000000000 0.00000000000000000 
1 400.00000000000000000 799.99999999999988631 -449.99999999999994316 0.00000000000000000 0.00000000000000000 1.00000000000000000 
1 500.00000000000000000 799.99999999999988631 -449.99999999999994316 0.00000000000000000 0.00000000000000000 1.00000000000000000 
1 400.00000000000000000 799.99999999999988631 -449.99999999999994316 1.00000000000000000 0.00000000000000000 0.00000000000000000 
1 350.00000000000000000 724.99999999999988631 -449.99999999999994316 0.55470019622522915 0.83205029433784372 0.00000000000000000 
1 32.00000000000000000 -0.00000000000022737 968.00000000000000000 0.00000000000000000 0.00000000000000022 -1.00000000000000000 
1 32.00000000000000000 225.00000000000000000 612.00000000000000000 0.00000000000000000 -1.00000000000000000 0.00000000000000000 
1 32.00000000000000000 0.00000000000022737 684.00000000000000000 0.00000000000000000 0.00000000000000000 1.00000000000000000 
1 32.00000000000000000 225.00000000000000000 600.00000000000000000 0.00000000000000000 -1.00000000000000000 0.00000000000000000 
1 32.00000000000000000 767.99999999999988631 -449.99999999999994316 0.00000000000000000 -1.00000000000000000 0.00000000000000000 
1 32.00000000000000000 225.00000000000000000 412.00000000000000000 0.00000000000000000 -1.00000000000000000 0.00000000000000000 
1 32.00000000000000000 0.00000000000011369 584.00000000000000000 0.00000000000000000 0.00000000000000000 1.00000000000000000 
1 32.00000000000000000 225.00000000000000000 400.00000000000000000 0.00000000000000000 -1.00000000000000000 0.00000000000000000 
1 32.00000000000000000 767.99999999999988631 -449.99999999999994316 0.00000000000000000 -1.00000000000000000 0.00000000000000000 
1 32.00000000000000000 224.99999999999988631 212.00000000000000000 0.00000000000000000 -1.00000000000000000 0.00000000000000000 
1 32.00000000000000000 0.00000000000005684 484.00000000000000000 0.00000000000000000 0.00000000000000000 1.00000000000000000 
1 32.00000000000000000 224.99999999999988631 200.00000000000000000 0.00000000000000000 -1.00000000000000000 0.00000000000000000 
1 32.00000000000000000 767.99999999999988631 -449.99999999999994316 0.00000000000000000 -1.00000000000000000 0.00000000000000000 
1 32.00000000000000000 224.99999999999988631 12.00000000000000000 0.00000000000000000 -1.00000000000000000 0.00000000000000000 
1 32.00000000000000000 0.00000000000000000 384.00000000000000000 0.00000000000000000 0.00000000000000000 1.00000000000000000 
1 32.00000000000000000 224.99999999999988631 0.00000000000000000 0.00000000000000000 -1.00000000000000000 0.00000000000000000 
1 32.00000000000000000 767.99999999999988631 -449.99999999999994316 0.00000000000000000 -1.00000000000000000 0.00000000000000000 
1 32.00000000000000000 767.99999999999988631 -449.99999999999994316 0.00000000000000000 0.00000000000000000 1.00000000000000000 
1 0.00000000000000000 450.00000000000000000 0.00000000000000000 1.00000000000000000 0.00000000000000000 0.00000000000000000 
1 468.00000000000000000 225.00000000000000000 0.00000000000000000 0.00000000000000000 1.00000000000000000 0.00000000000000000 
1 0.00000000000000000 0.00000000000000000 0.00000000000000000 1.00000000000000000 0.00000000000000000 0.00000000000000000 
1 468.00000000000000000 -200.00000000000011369 -449.99999999999994316 0.00000000000000000 1.00000000000000000 0.00000000000000000 
1 468.00000000000000000 0.00000000000000000 -100.00000000000000000 0.00000000000000000 0.00000000000000000 -1.00000000000000000 
1 468.00000000000000000 225.00000000000000000 12.00000000000000000 0.00000000000000000 1.00000000000000000 0.00000000000000000 
1 468.00000000000000000 -200.00000000000011369 -449.99999999999994316 0.00000000000000000 1.00000000000000000 0.00000000000000000 
1 468.00000000000000000 225.00000000000000000 200.00000000000000000 0.00000000000000000 1.00000000000000000 0.00000000000000000 
1 468.00000000000000000 0.00000000000005684 0.00000000000000000 0.00000000000000000 0.00000000000000000 -1.00000000000000000 
1 468.00000000000000000 225.00000000000000000 212.00000000000000000 0.00000000000000000 1.00000000000000000 0.00000000000000000 
1 468.00000000000000000 -200.00000000000011369 -449.99999999999994316 0.00000000000000000 1.00000000000000000 0.00000000000000000 
1 468.00000000000000000 225.00000000000000000 400.00000000000000000 0.00000000000000000 1.00000000000000000 0.00000000000000000 
1 468.00000000000000000 0.00000000000011369 100.00000000000000000 0.00000000000000000 0.00000000000000000 -1.00000000000000000 
1 468.00000000000000000 225.00000000000000000 412.00000000000000000 0.00000000000000000 1.00000000000000000 0.00000000000000000 
1 468.00000000000000000 -200.00000000000011369 -449.99999999999994316 0.00000000000000000 1.00000000000000000 0.00000000000000000 
1 468.00000000000000000 225.00000000000011369 600.00000000000000000 0.00000000000000000 1.00000000000000000 0.00000000000000000 
1 468.00000000000000000 0.00000000000022737 200.00000000000000000 0.00000000000000000 0.00000000000000000 -1.00000000000000000 
1 468.00000000000000000 225.00000000000011369 612.00000000000000000 0.00000000000000000 1.00000000000000000 0.00000000000000000 
1 468.00000000000000000 0.00000000000000000 0.00000000000000000 0.00000000000000000 -0.00000000000000022 1.00000000000000000 
1 468.00000000000000000 767.99999999999988631 -449.99999999999994316 0.00000000000000000 0.00000000000000000 1.00000000000000000 
1 468.00000000000000000 -200.00000000000011369 -449.99999999999994316 0.00000000000000000 0.00000000000000000 1.00000000000000000 
1 500.00000000000000000 -200.00000000000011369 -449.99999999999994316 0.00000000000000000 0.00000000000000000 1.00000000000000000 
1 500.00000000000000000 -200.00000000000011369 -449.99999999999994316 -1.00000000000000000 0.00000000000000000 0.00000000000000000 
1 500.00000000000000000 449.99999999999988631 168.00000000000000000 0.00000000000000000 0.00000000000000022 -1.00000000000000000 
1 500.00000000000000000 -450.00000000000000000 212.00000000000000000 0.00000000000000000 1.00000000000000000 0.00000000000000000 
1 500.00000000000000000 -450.00000000000000000 200.00000000000000000 0.00000000000000000 0.00000000000000000 1.00000000000000000 
1 500.00000000000000000 -450.00000000000000000 200.00000000000000000 0.00000000000000000 1.00000000000000000 0.00000000000000000 
1 500.00000000000000000 449.99999999999988631 168.00000000000000000 0.00000000000000000 0.00000000000000022 -1.00000000000000000 
1 500.00000000000000000 167.99999999999988631 -449.99999999999994316 0.00000000000000000 0.00000000000000000 1.00000000000000000 
1 968.00000000000000000 167.99999999999988631 -449.99999999999994316 0.00000000000000000 0.00000000000000000 1.00000000000000000 
1 968.00000000000000000 167.99999999999988631 -449.99999999999994316 -1.00000000000000000 0.00000000000000000 0.00000000000000000 
1 968.00000000000000000 -200.00000000000011369 -449.99999999999994316 0.00000000000000000 1.00000000000000000 0.00000000000000000 
1 968.00000000000000000 -225.00000000000000000 200.00000000000000000 0.00000000000000000 1.00000000000000000 0.00000000000000000 
1 968.00000000000000000 -450.00000000000000000 100.00000000000000000 0.00000000000000000 0.00000000000000000 -1.00000000000000000 
1 968.00000000000000000 -225.00000000000000000 212.00000000000000000 0.00000000000000000 1.00000000000000000 0.00000000000000000 
1 968.00000000000000000 -200.00000000000011369 -449.99999999999994316 0.00000000000000000 1.00000000000000000 0.00000000000000000 
1 968.00000000000000000 -200.00000000000011369 -449.99999999999994316 0.00000000000000000 0.00000000000000000 1.00000000000000000 
1 500.00000000000000000 449.99999999999988631 200.00000000000000000 0.00000000000000000 -1.00000000000000000 -0.00000000000000022 
1 1000.00000000000000000 199.99999999999988631 -449.99999999999994316 0.00000000000000000 0.00000000000000000 1.00000000000000000 
1 500.00000000000000000 199.99999999999988631 -449.99999999999994316 1.00000000000000000 0.00000000000000000 0.00000000000000000 
1 500.00000000000000000 449.99999999999977263 800.00000000000000000 0.00000000000000000 0.00000000000000022 -1.00000000000000000 
1 0.00000000000000000 450.00000000000000000 12.00000000000000000 1.00000000000000000 0.00000000000000000 0.00000000000000000 
1 0.00000000000000000 0.00000000000000000 12.00000000000000000 1.00000000000000000 0.00000000000000000 0.00000000000000000 
1 0.00000000000000000 450.00000000000000000 0.00000000000000000 1.00000000000000000 0.00000000000000000 0.00000000000000000 
1 0.00000000000000000 0.00000000000005684 0.00000000000000000 1.00000000000000000 0.00000000000000000 0.00000000000000000 
1 0.00000000000000000 450.00000000000000000 0.00000000000000000 1.00000000000000000 0.00000000000000000 0.00000000000000000 
1 0.00000000000000000 0.00000000000000000 0.00000000000000000 1.00000000000000000 0.00000000000000000 0.00000000000000000 
1 0.00000000000000000 450.00000000000000000 12.00000000000000000 1.00000000000000000 0.00000000000000000 0.00000000000000000 
1 0.00000000000000000 0.00000000000005684 12.00000000000000000 1.00000000000000000 0.00000000000000000 0.00000000000000000 
1 82.00000000000000000 767.99999999999988631 -449.99999999999994316 0.00000000000000000 0.00000000000000000 1.00000000000000000 
1 82.00000000000000000 -0.00000000000022737 968.00000000000000000 -1.00000000000000000 0.00000000000000000 0.00000000000000000 
1 -0.00000000000022737 0.00000000000022737 812.00000000000000000 1.00000000000000000 0.00000000000000000 0.00000000000000000 
1 0.00000000000000000 0.00000000000000000 12.00000000000000000 1.00000000000000000 0.00000000000000000 0.00000000000000000 
1 132.00000000000000000 692.99999999999988631 -449.99999999999994316 0.00000000000000000 0.00000000000000000 1.00000000000000000 
1 132.00000000000000000 -0.00000000000022737 893.00000000000000000 -0.55470019622522915 -0.00000000000000018 0.83205029433784372 
1 367.99999999999965894 692.99999999999988631 -449.99999999999994316 0.00000000000000000 0.00000000000000000 1.00000000000000000 
1 367.99999999999965894 -0.00000000000022737 893.00000000000000000 -1.00000000000000000 0.00000000000000000 0.00000000000000000 
1 418.00000000000000000 767.99999999999988631 -449.99999999999994316 0.00000000000000000 0.00000000000000000 1.00000000000000000 
1 468.00000000000000000 -0.00000000000022737 968.00000000000000000 -1.00000000000000000 0.00000000000000000 0.00000000000000000 
1 418.00000000000000000 -0.00000000000022737 968.00000000000000000 -0.55470019622523181 0.00000000000000018 -0.83205029433784194 
1 0.00000000000000000 450.00000000000000000 0.00000000000000000 1.00000000000000000 0.00000000000000000 0.00000000000000000 
1 0.00000000000000000 0.00000000000000000 0.00000000000000000 1.00000000000000000 0.00000000000000000 0.00000000000000000 
1 0.00000000000000000 450.00000000000000000 12.00000000000000000 1.00000000000000000 0.00000000000000000 0.00000000000000000 
1 0.00000000000000000 0.00000000000000000 12.00000000000000000 1.00000000000000000 0.00000000000000000 0.00000000000000000 
1 1000.00000000000000000 -200.00000000000011369 -449.99999999999994316 0.00000000000000000 0.00000000000000000 1.00000000000000000 
1 1000.00000000000000000 -200.00000000000011369 -449.99999999999994316 -1.00000000000000000 0.00000000000000000 0.00000000000000000 
1 500.00000000000000000 0.00000000000000000 212.00000000000000000 1.00000000000000000 0.00000000000000000 0.00000000000000000 
1 500.00000000000000000 -450.00000000000000000 212.00000000000000000 1.00000000000000000 0.00000000000000000 0.00000000000000000 
1 500.00000000000000000 -450.00000000000000000 200.00000000000000000 1.00000000000000000 0.00000000000000000 0.00000000000000000 
1 500.00000000000000000 0.00000000000000000 200.00000000000000000 1.00000000000000000 0.00000000000000000 0.00000000000000000 
1 1000.00000000000000000 -0.00000000000011369 400.00000000000000000 0.00000000000000000 0.00000000000000022 -1.00000000000000000 
Polygon3D 0
PolygonOnTriangulations 0
Surfaces 39
1 0.00000000000000000 799.99999999999988631 -449.99999999999994316 0.00000000000000000 1.00000000000000000 0.00000000000000000 1.00000000000000000 0.00000000000000000 0.00000000000000000 0.00000000000000000 0.00000000000000000 -1.00000000000000000 
1 0.00000000000000000 -200.00000000000011369 -449.99999999999994316 -1.00000000000000000 0.00000000000000000 0.00000000000000000 0.00000000000000000 1.00000000000000000 0.00000000000000000 0.00000000000000000 0.00000000000000000 -1.00000000000000000 
1 100.00000000000000000 799.99999999999988631 -449.99999999999994316 0.83205029433784372 0.55470019622522915 0.00000000000000000 0.55470019622522915 -0.83205029433784372 0.00000000000000000 0.00000000000000000 0.00000000000000000 -1.00000000000000000 
1 404.58697080125784851 449.99999999999988631 309.10462678869089359 -0.00000000000000000 1.00000000000000000 0.00000000000000022 0.00000000000000000 -0.00000000000000022 1.00000000000000000 1.00000000000000000 0.00000000000000000 0.00000000000000000 
1 32.00000000000000000 -200.00000000000011369 -449.99999999999994316 0.00000000000000000 -1.00000000000000000 0.00000000000000000 -1.00000000000000000 0.00000000000000000 0.00000000000000000 -0.00000000000000000 -0.00000000000000000 -1.00000000000000000 
1 150.00000000000000000 724.99999999999988631 -449.99999999999994316 0.00000000000000000 1.00000000000000000 0.00000000000000000 1.00000000000000000 0.00000000000000000 0.00000000000000000 0.00000000000000000 0.00000000000000000 -1.00000000000000000 
1 400.00000000000000000 799.99999999999988631 -449.99999999999994316 0.00000000000000000 1.00000000000000000 0.00000000000000000 1.00000000000000000 0.00000000000000000 0.00000000000000000 0.00000000000000000 0.00000000000000000 -1.00000000000000000 
1 350.00000000000000000 724.99999999999988631 -449.99999999999994316 -0.83205029433784372 0.55470019622522915 0.00000000000000000 0.55470019622522915 0.83205029433784372 0.00000000000000000 0.00000000000000000 0.00000000000000000 -1.00000000000000000 
1 32.00000000000000000 767.99999999999988631 -449.99999999999994316 1.00000000000000000 0.00000000000000000 0.00000000000000000 0.00000000000000000 -1.00000000000000000 0.00000000000000000 0.00000000000000000 0.00000000000000000 -1.00000000000000000 
1 0.00000000000000000 0.00000000000000000 0.00000000000000000 0.00000000000000000 0.00000000000000000 1.00000000000000000 1.00000000000000000 0.00000000000000000 -0.00000000000000000 -0.00000000000000000 1.00000000000000000 0.00000000000000000 
1 468.00000000000000000 -200.00000000000011369 -449.99999999999994316 -1.00000000000000000 0.00000000000000000 0.00000000000000000 0.00000000000000000 1.00000000000000000 0.00000000000000000 0.00000000000000000 0.00000000000000000 -1.00000000000000000 
1 500.00000000000000000 -200.00000000000011369 -449.99999999999994316 0.00000000000000000 -1.00000000000000000 0.00000000000000000 -1.00000000000000000 0.00000000000000000 0.00000000000000000 -0.00000000000000000 -0.00000000000000000 -1.00000000000000000 
1 500.00000000000000000 167.99999999999988631 -449.99999999999994316 1.00000000000000000 0.00000000000000000 0.00000000000000000 0.00000000000000000 -1.00000000000000000 0.00000000000000000 0.00000000000000000 0.00000000000000000 -1.00000000000000000 
1 968.00000000000000000 167.99999999999988631 -449.99999999999994316 0.00000000000000000 -1.00000000000000000 0.00000000000000000 -1.00000000000000000 0.00000000000000000 0.00000000000000000 -0.00000000000000000 -0.00000000000000000 -1.00000000000000000 
1 968.00000000000000000 -200.00000000000011369 -449.99999999999994316 -1.00000000000000000 0.00000000000000000 0.00000000000000000 0.00000000000000000 1.00000000000000000 0.00000000000000000 0.00000000000000000 0.00000000000000000 -1.00000000000000000 
1 500.00000000000000000 199.99999999999988631 -449.99999999999994316 0.00000000000000000 1.00000000000000000 0.00000000000000000 1.00000000000000000 0.00000000000000000 0.00000000000000000 0.00000000000000000 0.00000000000000000 -1.00000000000000000 
1 500.00000000000000000 799.99999999999988631 -449.99999999999994316 1.00000000000000000 0.00000000000000000 0.00000000000000000 0.00000000000000000 -1.00000000000000000 0.00000000000000000 0.00000000000000000 0.00000000000000000 -1.00000000000000000 
1 0.00000000000000000 0.00000000000000000 12.00000000000000000 0.00000000000000000 0.00000000000000000 1.00000000000000000 1.00000000000000000 0.00000000000000000 -0.00000000000000000 -0.00000000000000000 1.00000000000000000 0.00000000000000000 
1 0.00000000000000000 0.00000000000005684 0.00000000000000000 0.00000000000000000 0.00000000000000000 1.00000000000000000 1.00000000000000000 0.00000000000000000 -0.00000000000000000 -0.00000000000000000 1.00000000000000000 0.00000000000000000 
1 0.00000000000000000 0.00000000000000000 0.00000000000000000 0.00000000000000000 0.00000000000000000 1.00000000000000000 1.00000000000000000 0.00000000000000000 -0.00000000000000000 -0.00000000000000000 1.00000000000000000 0.00000000000000000 
1 0.00000000000000000 0.00000000000005684 12.00000000000000000 0.00000000000000000 0.00000000000000000 1.00000000000000000 1.00000000000000000 0.00000000000000000 -0.00000000000000000 -0.00000000000000000 1.00000000000000000 0.00000000000000000 
1 82.00000000000000000 767.99999999999988631 -449.99999999999994316 0.00000000000000000 -1.00000000000000000 0.00000000000000000 -1.00000000000000000 0.00000000000000000 0.00000000000000000 -0.00000000000000000 -0.00000000000000000 -1.00000000000000000 
1 0.00000000000000000 0.00000000000000000 12.00000000000000000 0.00000000000000000 0.00000000000000000 1.00000000000000000 1.00000000000000000 0.00000000000000000 -0.00000000000000000 -0.00000000000000000 1.00000000000000000 0.00000000000000000 
1 132.00000000000000000 692.99999999999988631 -449.99999999999994316 -0.83205029433784372 -0.55470019622522915 0.00000000000000000 -0.55470019622522915 0.83205029433784372 0.00000000000000000 -0.00000000000000000 0.00000000000000000 -1.00000000000000000 
1 367.99999999999965894 692.99999999999988631 -449.99999999999994316 0.00000000000000000 -1.00000000000000000 0.00000000000000000 -1.00000000000000000 0.00000000000000000 0.00000000000000000 -0.00000000000000000 -0.00000000000000000 -1.00000000000000000 
1 468.00000000000000000 767.99999999999988631 -449.99999999999994316 0.00000000000000000 -1.00000000000000000 0.00000000000000000 -1.00000000000000000 0.00000000000000000 0.00000000000000000 -0.00000000000000000 -0.00000000000000000 -1.00000000000000000 
1 418.00000000000000000 767.99999999999988631 -449.99999999999994316 0.83205029433784194 -0.55470019622523181 0.00000000000000000 -0.55470019622523181 -0.83205029433784194 0.00000000000000000 0.00000000000000000 -0.00000000000000000 -1.00000000000000000 
1 0.00000000000000000 0.00000000000000000 0.00000000000000000 0.00000000000000000 0.00000000000000000 1.00000000000000000 1.00000000000000000 0.00000000000000000 -0.00000000000000000 -0.00000000000000000 1.00000000000000000 0.00000000000000000 
1 0.00000000000000000 0.00000000000000000 12.00000000000000000 0.00000000000000000 0.00000000000000000 1.00000000000000000 1.00000000000000000 0.00000000000000000 -0.00000000000000000 -0.00000000000000000 1.00000000000000000 0.00000000000000000 
1 1000.00000000000000000 -200.00000000000011369 -449.99999999999994316 0.00000000000000000 -1.00000000000000000 0.00000000000000000 -1.00000000000000000 0.00000000000000000 0.00000000000000000 -0.00000000000000000 -0.00000000000000000 -1.00000000000000000 
1 0.00000000000000000 0.00000000000000000 0.00000000000000000 0.00000000000000000 1.00000000000000000 0.00000000000000000 0.00000000000000000 -0.00000000000000000 1.00000000000000000 1.00000000000000000 0.00000000000000000 -0.00000000000000000 
1 0.00000000000000000 0.00000000000000000 0.00000000000000000 0.00000000000000000 1.00000000000000000 0.00000000000000000 0.00000000000000000 -0.00000000000000000 1.00000000000000000 1.00000000000000000 0.00000000000000000 -0.00000000000000000 
1 0.00000000000000000 0.00000000000005684 0.00000000000000000 0.00000000000000000 1.00000000000000000 0.00000000000000000 0.00000000000000000 -0.00000000000000000 1.00000000000000000 1.00000000000000000 0.00000000000000000 -0.00000000000000000 
1 0.00000000000000000 0.00000000000000000 0.00000000000000000 0.00000000000000000 1.00000000000000000 0.00000000000000000 0.00000000000000000 -0.00000000000000000 1.00000000000000000 1.00000000000000000 0.00000000000000000 -0.00000000000000000 
1 500.00000000000000000 -450.00000000000000000 212.00000000000000000 0.00000000000000000 0.00000000000000000 1.00000000000000000 1.00000000000000000 0.00000000000000000 -0.00000000000000000 -0.00000000000000000 1.00000000000000000 0.00000000000000000 
1 500.00000000000000000 -450.00000000000000000 200.00000000000000000 0.00000000000000000 1.00000000000000000 0.00000000000000000 0.00000000000000000 -0.00000000000000000 1.00000000000000000 1.00000000000000000 0.00000000000000000 -0.00000000000000000 
1 500.00000000000000000 -450.00000000000000000 200.00000000000000000 0.00000000000000000 0.00000000000000000 1.00000000000000000 1.00000000000000000 0.00000000000000000 -0.00000000000000000 -0.00000000000000000 1.00000000000000000 0.00000000000000000 
1 433.10433952226088650 -0.00000000000028422 413.77096461096846269 0.00000000000000002 1.00000000000000000 0.00000000000000024 0.00000000000000000 -0.00000000000000024 1.00000000000000000 1.00000000000000000 -0.00000000000000002 -0.00000000000000000 
1 1000.00000000000000000 199.99999999999988631 -449.99999999999994316 1.00000000000000000 0.00000000000000000 0.00000000000000000 0.00000000000000000 -1.00000000000000000 0.00000000000000000 0.00000000000000000 0.00000000000000000 -1.00000000000000000 
Triangulations 0

TShapes 295
Ve
0.000000100000695
500.000000000000000 -450.000000000000227 1200.000000000000000
0 0

0101101
*
Ve
0.000000100000502
500.000000000000000 -950.000000000000227 1200.000000000000000
0 0

0101101
*
Ed
 0.000000100000502 1 1 0
1  1 0 0.000000000000000 500.000000000000000
0

0101000
+295 7 -294 7 *
Ve
0.000000100000695
600.000000000000000 -450.000000000000227 1200.000000000000000
0 0

0101101
*
Ve
0.000000100000000
600.000000000000000 -950.000000000000227 1200.000000000000000
0 0

0101101
*
Ed
 0.000000100000000 1 1 0
1  2 0 0.000000000000000 500.000000000000000
0

0101000
+292 7 -291 7 *
Ed
 0.000000100000695 1 1 0
1  3 0 0.000000000000000 100.000000000000000
0

0101000
+295 11 -292 11 *
Ed
 0.000000100000000 1 1 0
1  4 0 0.000000000000000 100.000000000000000
0

0101000
+294 14 -291 14 *
Wi

0101100
+293 0 -290 0 -289 10 +288 13 *
Fa
0  0.000000100000000 1 0

0101000
+287 0 *
Ve
0.000000100000695
500.000000000000000 -450.000000000000000 200.000000000000000
0 0

0101101
*
Ve
0.000000100000502
500.000000000000000 -950.000000000000000 199.999999999999886
0 0

0101101
*
Ed
 0.000000100000502 1 1 0
1  5 0 0.000000000000000 500.000000000000000
0

0101000
+285 7 -284 7 *
Ed
 0.000000100000502 1 1 0
1  6 0 0.000000000000000 1000.000000000000000
0

0101000
+284 14 -294 14 *
Ed
 0.000000100000695 1 1 0
1  7 0 0.000000000000000 1000.000000000000000
0

0101000
+285 17 -295 17 *
Wi

0101000
+283 15 +282 16 -293 15 -281 0 *
Fa
0  0.000000100000502 2 15

0101000
+280 0 *
Ve
0.000000100000695
650.000000000000000 -450.000000000000227 1125.000000000000000
0 0

0101101
*
Ve
0.000000100000000
650.000000000000000 -950.000000000000227 1125.000000000000000
0 0

0101101
*
Ed
 0.000000100000000 1 1 0
1  8 0 0.000000000000000 500.000000000000000
0

0101000
+278 7 -277 7 *
Ed
 0.000000100000695 1 1 0
1  9 0 0.000000000000000 90.138781886599730
0

0101000
+292 11 -278 11 *
Ed
 0.000000100000000 1 1 0
1  10 0 0.000000000000000 90.138781886599730
0

0101000
+291 14 -277 14 *
Wi

0101100
+290 0 -276 0 -275 10 +274 13 *
Fa
0  0.000000100000000 3 0

0101000
+273 0 *
Ve
0.000000100000000
850.000000000000000 -950.000000000000227 1125.000000000000000
0 0

0101101
*
Ed
 0.000000100000000 1 1 0
1  11 0 0.000000000000000 200.000000000000000
0

0101000
+277 14 -271 14 *
Ve
0.000000100000000
900.000000000000000 -950.000000000000227 1200.000000000000000
0 0

0101101
*
Ed
 0.000000100000000 1 1 0
1  12 0 0.000000000000000 90.138781886599730
0

0101000
+271 14 -269 14 *
Ve
0.000000100000638
1000.000000000000000 -950.000000000000227 1200.000000000000000
0 0

0101101
*
Ed
 0.000000100000000 1 1 0
1  13 0 0.000000000000000 100.000000000000000
0

0101000
+269 14 -267 14 *
Ve
0.000000100000638
1000.000000000000000 -950.000000000000114 599.999999999999886
0 0

0101101
*
Ed
 0.000000100000638 1 1 0
1  14 0 0.000000000000000 600.000000000000000
0

0101000
+267 14 -265 14 *
Ve
0.000000100000695
1500.000000000000000 -950.000000000000114 599.999999999999886
0 0

0101101
*
Ed
 0.000000100000000 1 1 0
1  15 0 0.000000000000000 500.000000000000000
0

0101000
+265 14 -263 14 *
Ve
0.000000100000695
1500.000000000000000 -950.000000000000000 199.999999999999886
0 0

0101101
*
Ed
 0.000000100000695 1 1 0
1  16 0 0.000000000000000 400.000000000000000
0

0101000
+263 14 -261 14 *
Ve
0.000000100000000
1468.000000000000000 -950.000000000000000 199.999999999999886
0 0

0101101
*
Ed
 0.000000100000000 1 1 0
1  17 0 0.000000000000000 32.000000000000000
0

0101000
+261 14 -259 14 *
Ve
0.000000100000000
1468.000000000000000 -950.000000000000000 567.999999999999886
0 0

0101101
*
Ed
 0.000000100000000 1 1 0
1  18 0 0.000000000000000 368.000000000000000
0

0101000
+259 14 -257 14 *
Ve
0.000000100000180
1000.000000000000000 -950.000000000000000 567.999999999999886
0 0

0101101
*
Ed
 0.000000100000000 1 1 0
1  19 0 0.000000000000000 468.000000000000000
0

0101000
+257 14 -255 14 *
Ve
0.000000100000180
1000.000000000000000 -950.000000000000000 199.999999999999886
0 0

0101101
*
Ed
 0.000000100000180 1 1 0
1  20 0 0.000000000000000 368.000000000000000
0

0101000
+255 14 -253 14 *
Ve
0.000000100000000
968.000000000000000 -950.000000000000000 199.999999999999886
0 0

0101101
*
Ed
 0.000000100000000 1 1 0
1  21 0 0.000000000000000 32.000000000000000
0

0101000
+253 14 -251 14 *
Ve
0.000000100000000
968.000000000000000 -950.000000000000227 1168.000000000000000
0 0

0101101
*
Ed
 0.000000100000000 1 1 0
1  22 0 0.000000000000000 968.000000000000000
0

0101000
+251 14 -249 14 *
Ve
0.000000100000000
918.000000000000000 -950.000000000000227 1168.000000000000000
0 0

0101101
*
Ed
 0.000000100000000 1 1 0
1  23 0 0.000000000000000 50.000000000000000
0

0101000
+249 14 -247 14 *
Ve
0.000000100000000
867.999999999999659 -950.000000000000227 1093.000000000000000
0 0

0101101
*
Ed
 0.000000100000000 1 1 0
1  24 0 0.000000000000000 90.138781886599929
0

0101000
+247 14 -245 14 *
Ve
0.000000100000000
632.000000000000000 -950.000000000000227 1093.000000000000000
0 0

0101101
*
Ed
 0.000000100000000 1 1 0
1  25 0 0.000000000000000 235.999999999999659
0

0101000
+245 14 -243 14 *
Ve
0.000000100000000
582.000000000000000 -950.000000000000227 1168.000000000000000
0 0

0101101
*
Ed
 0.000000100000000 1 1 0
1  26 0 0.000000000000000 90.138781886599730
0

0101000
+243 14 -241 14 *
Ve
0.000000100000000
532.000000000000000 -950.000000000000227 1168.000000000000000
0 0

0101101
*
Ed
 0.000000100000000 1 1 0
1  27 0 0.000000000000000 50.000000000000000
0

0101000
+241 14 -239 14 *
Ve
0.000000100000000
532.000000000000000 -950.000000000000000 199.999999999999886
0 0

0101101
*
Ed
 0.000000100000000 1 1 0
1  28 0 0.000000000000000 968.000000000000000
0

0101000
+239 14 -237 14 *
Ed
 0.000000100000000 1 1 0
1  29 0 0.000000000000000 32.000000000000000
0

0101000
+237 14 -284 14 *
Wi

0101100
+282 0 +288 0 +274 0 +270 0 +268 0 +266 0 +264 0 +262 0 +260 0 +258 0 
+256 0 +254 0 +252 0 +250 0 +248 0 +246 0 +244 0 +242 0 +240 0 +238 0 
+236 0 +235 0 *
Fa
0  0.000000100000000 4 0

0101000
+234 8 *
Ve
0.000000100000695
532.000000000000000 -450.000000000000000 200.000000000000000
0 0

0101101
*
Ed
 0.000000100000000 1 1 0
1  30 0 0.000000000000000 500.000000000000000
0

0101000
+232 7 -237 7 *
Ed
 0.000000100000695 1 1 0
1  31 0 0.000000000000000 32.000000000000000
0

0101000
+232 11 -285 11 *
Wi

0101100
+231 0 -283 0 -230 10 +235 13 *
Fa
0  0.000000100000000 5 0

0101000
+229 0 *
Ve
0.000000100000695
850.000000000000000 -450.000000000000227 1125.000000000000000
0 0

0101101
*
Ed
 0.000000100000000 1 1 0
1  32 0 0.000000000000000 500.000000000000000
0

0101000
+227 7 -271 7 *
Ed
 0.000000100000695 1 1 0
1  33 0 0.000000000000000 200.000000000000000
0

0101000
+278 11 -227 11 *
Wi

0101100
+276 0 -226 0 -225 10 +270 13 *
Fa
0  0.000000100000000 6 0

0101000
+224 0 *
Ve
0.000000100000695
900.000000000000000 -450.000000000000227 1200.000000000000000
0 0

0101101
*
Ed
 0.000000100000000 1 1 0
1  34 0 0.000000000000000 500.000000000000000
0

0101000
+222 7 -269 7 *
Ve
0.000000100000695
1000.000000000000000 -450.000000000000227 1200.000000000000000
0 0

0101101
*
Ed
 0.000000100000638 1 1 0
1  35 0 0.000000000000000 500.000000000000000
0

0101000
+220 7 -267 7 *
Ed
 0.000000100000695 1 1 0
1  36 0 0.000000000000000 100.000000000000000
0

0101000
+222 11 -220 11 *
Wi

0101100
+221 0 -219 0 -218 10 +266 13 *
Fa
0  0.000000100000000 7 0

0101000
+217 0 *
Ed
 0.000000100000695 1 1 0
1  37 0 0.000000000000000 90.138781886599730
0

0101000
+227 11 -222 11 *
Wi

0101100
+226 0 -221 0 -215 10 +268 13 *
Fa
0  0.000000100000000 8 0

0101000
+214 0 *
Ve
0.000000100000638
532.000000000000000 -450.000000000000227 1168.000000000000000
0 0

0101101
*
Ve
0.000000150000000
532.000000000000000 -450.000000000000000 1012.000000000000000
0 0

0101101
*
Ed
 0.000000100000000 1 1 0
1  38 0 0.000000000000000 156.000000000000000
0

0101000
+212 20 -211 20 *
Ve
0.000000150000014
532.000000000000000 -899.999999999999773 1012.000000000000000
0 0

0101101
*
Ed
 0.000000150000000 1 1 0
1  39 0 -225.000000000000000 224.999999999999773
0

0101000
+211 17 -209 17 *
Ve
0.000000150000014
532.000000000000000 -899.999999999999773 1000.000000000000000
0 0

0101101
*
Ed
 0.000000150000000 1 1 0
1  40 0 -84.000000000000000 -72.000000000000000
0

0101000
+207 17 -209 17 *
Ve
0.000000150000000
532.000000000000000 -450.000000000000000 1000.000000000000000
0 0

0101101
*
Ed
 0.000000150000000 1 1 0
1  41 0 -225.000000000000000 224.999999999999801
0

0101000
+205 17 -207 17 *
Ve
0.000000150000000
532.000000000000000 -450.000000000000000 812.000000000000000
0 0

0101101
*
Ed
 0.000000100000638 1 1 0
1  42 0 168.000000000000000 356.000000000000000
0

0101000
+205 11 -203 11 *
Ve
0.000000150000010
532.000000000000000 -899.999999999999886 812.000000000000000
0 0

0101101
*
Ed
 0.000000150000000 1 1 0
1  43 0 -225.000000000000057 224.999999999999801
0

0101000
+203 17 -201 17 *
Ve
0.000000150000010
532.000000000000000 -899.999999999999886 800.000000000000000
0 0

0101101
*
Ed
 0.000000150000000 1 1 0
1  44 0 -184.000000000000000 -172.000000000000000
0

0101000
+199 17 -201 17 *
Ve
0.000000150000000
532.000000000000000 -450.000000000000000 800.000000000000000
0 0

0101101
*
Ed
 0.000000150000000 1 1 0
1  45 0 -225.000000000000057 224.999999999999801
0

0101000
+197 17 -199 17 *
Ve
0.000000150000000
532.000000000000000 -450.000000000000000 612.000000000000000
0 0

0101101
*
Ed
 0.000000100000638 1 1 0
1  46 0 368.000000000000000 556.000000000000000
0

0101000
+197 11 -195 11 *
Ve
0.000000150000010
532.000000000000000 -900.000000000000000 612.000000000000000
0 0

0101101
*
Ed
 0.000000150000000 1 1 0
1  47 0 -225.000000000000085 224.999999999999858
0

0101000
+195 17 -193 17 *
Ve
0.000000150000010
532.000000000000000 -900.000000000000000 600.000000000000000
0 0

0101101
*
Ed
 0.000000150000000 1 1 0
1  48 0 -284.000000000000000 -272.000000000000000
0

0101000
+191 17 -193 17 *
Ve
0.000000150000000
532.000000000000000 -450.000000000000000 600.000000000000000
0 0

0101101
*
Ed
 0.000000150000000 1 1 0
1  49 0 -225.000000000000085 224.999999999999858
0

0101000
+189 17 -191 17 *
Ve
0.000000150000000
532.000000000000000 -450.000000000000000 412.000000000000000
0 0

0101101
*
Ed
 0.000000100000638 1 1 0
1  50 0 568.000000000000000 756.000000000000000
0

0101000
+189 11 -187 11 *
Ve
0.000000150000000
532.000000000000000 -900.000000000000000 412.000000000000000
0 0

0101101
*
Ed
 0.000000150000000 1 1 0
1  51 0 -225.000000000000114 224.999999999999886
0

0101000
+187 22 -185 22 *
Ve
0.000000150000000
532.000000000000000 -900.000000000000000 400.000000000000000
0 0

0101101
*
Ed
 0.000000150000000 1 1 0
1  52 0 -384.000000000000000 -372.000000000000000
0

0101000
+183 22 -185 22 *
Ve
0.000000150000000
532.000000000000000 -450.000000000000000 400.000000000000000
0 0

0101101
*
Ed
 0.000000150000000 1 1 0
1  53 0 -225.000000000000114 224.999999999999886
0

0101000
+181 22 -183 22 *
Ed
 0.000000100000695 1 1 0
1  54 0 768.000000000000000 968.000000000000000
0

0101000
+181 11 -232 11 *
Ed
 0.000000100000000 1 1 0
1  55 0 0.000000000000000 500.000000000000000
0

0101000
+212 7 -239 7 *
Wi

0101100
-210 19 -208 0 +206 0 +204 0 -202 21 -200 0 +198 0 +196 0 -194 21 -192 0 
+190 0 +188 0 -186 21 -184 3 +182 3 +180 3 -179 21 -231 15 +236 16 +178 15 
*
Fa
0  0.000000100000000 9 15

0101000
+177 0 *
Ve
0.000000212133075
968.000000000000000 -450.000000000000000 400.000000000000000
0 0

0101101
*
Ed
 0.000000100000695 1 1 0
1  56 0 32.000000000000000 468.000000000000000
0

0101000
+181 22 -175 22 *
Ve
0.000000212133034
968.000000000000000 -900.000000000000000 400.000000000000000
0 0

0101101
*
Ed
 0.000000150000000 1 1 0
1  57 0 -225.000000000000000 225.000000000000000
0

0101000
+173 22 -175 22 *
Ed
 0.000000100000000 1 1 0
1  58 0 32.000000000000000 468.000000000000000
0

0101000
+183 22 -173 22 *
Wi

0101100
-174 0 +172 0 +171 0 +180 0 *
Fa
0  0.000000100000000 10 0

0101000
+170 0 *
Ve
0.000000100000695
968.000000000000000 -450.000000000000000 200.000000000000000
0 0

0101101
*
Ed
 0.000000100000695 1 1 0
1  59 0 0.000000000000000 200.000000000000000
0

0101000
+168 11 -175 11 *
Ve
0.000000212133034
968.000000000000000 -900.000000000000000 412.000000000000000
0 0

0101101
*
Ed
 0.000000150000000 1 1 0
1  60 0 -112.000000000000000 -100.000000000000000
0

0101000
+166 22 -173 22 *
Ve
0.000000212133075
968.000000000000000 -450.000000000000000 412.000000000000000
0 0

0101101
*
Ed
 0.000000150000000 1 1 0
1  61 0 -225.000000000000000 225.000000000000000
0

0101000
+166 22 -164 22 *
Ve
0.000000150000000
968.000000000000000 -450.000000000000000 600.000000000000000
0 0

0101101
*
Ed
 0.000000100000638 1 1 0
1  62 0 212.000000000000000 400.000000000000000
0

0101000
+164 11 -162 11 *
Ve
0.000000150000010
968.000000000000000 -900.000000000000000 600.000000000000000
0 0

0101101
*
Ed
 0.000000150000000 1 1 0
1  63 0 -224.999999999999972 224.999999999999972
0

0101000
+160 17 -162 17 *
Ve
0.000000150000010
968.000000000000000 -900.000000000000000 612.000000000000000
0 0

0101101
*
Ed
 0.000000150000000 1 1 0
1  64 0 -212.000000000000000 -200.000000000000000
0

0101000
+158 17 -160 17 *
Ve
0.000000150000000
968.000000000000000 -450.000000000000000 612.000000000000000
0 0

0101101
*
Ed
 0.000000150000000 1 1 0
1  65 0 -224.999999999999972 224.999999999999972
0

0101000
+158 17 -156 17 *
Ve
0.000000150000000
968.000000000000000 -450.000000000000000 800.000000000000000
0 0

0101101
*
Ed
 0.000000100000638 1 1 0
1  66 0 412.000000000000000 600.000000000000000
0

0101000
+156 11 -154 11 *
Ve
0.000000150000010
968.000000000000000 -899.999999999999886 800.000000000000000
0 0

0101101
*
Ed
 0.000000150000000 1 1 0
1  67 0 -224.999999999999915 224.999999999999943
0

0101000
+152 17 -154 17 *
Ve
0.000000150000010
968.000000000000000 -899.999999999999886 812.000000000000000
0 0

0101101
*
Ed
 0.000000150000000 1 1 0
1  68 0 -312.000000000000000 -300.000000000000000
0

0101000
+150 17 -152 17 *
Ve
0.000000150000000
968.000000000000000 -450.000000000000000 812.000000000000000
0 0

0101101
*
Ed
 0.000000150000000 1 1 0
1  69 0 -224.999999999999915 224.999999999999943
0

0101000
+150 17 -148 17 *
Ve
0.000000150000000
968.000000000000000 -450.000000000000000 1000.000000000000000
0 0

0101101
*
Ed
 0.000000100000638 1 1 0
1  70 0 612.000000000000000 800.000000000000000
0

0101000
+148 11 -146 11 *
Ve
0.000000150000014
968.000000000000000 -899.999999999999773 1000.000000000000000
0 0

0101101
*
Ed
 0.000000150000000 1 1 0
1  71 0 -224.999999999999915 224.999999999999886
0

0101000
+144 17 -146 17 *
Ve
0.000000150000014
968.000000000000000 -899.999999999999773 1012.000000000000000
0 0

0101101
*
Ed
 0.000000150000000 1 1 0
1  72 0 -412.000000000000000 -400.000000000000000
0

0101000
+142 17 -144 17 *
Ve
0.000000150000000
968.000000000000000 -450.000000000000000 1012.000000000000000
0 0

0101101
*
Ed
 0.000000150000000 1 1 0
1  73 0 -224.999999999999915 224.999999999999858
0

0101000
+142 17 -140 17 *
Ve
0.000000100000638
968.000000000000000 -450.000000000000227 1168.000000000000000
0 0

0101101
*
Ed
 0.000000100000000 1 1 0
1  74 0 812.000000000000000 968.000000000000000
0

0101000
+140 20 -138 20 *
Ed
 0.000000100000000 1 1 0
1  75 0 0.000000000000000 500.000000000000000
0

0101000
+138 7 -249 7 *
Ed
 0.000000100000000 1 1 0
1  76 0 0.000000000000000 500.000000000000000
0

0101000
+168 7 -251 7 *
Wi

0101100
-167 21 +172 3 +165 3 -163 3 -161 21 +159 0 +157 0 -155 0 -153 21 +151 0 
+149 0 -147 0 -145 21 +143 0 +141 0 -139 0 -137 19 -136 15 +248 16 +135 15 
*
Fa
0  0.000000100000000 11 15

0101000
+134 0 *
Ve
0.000000100000695
1000.000000000000000 -450.000000000000000 200.000000000000000
0 0

0101101
*
Ed
 0.000000100000180 1 1 0
1  77 0 0.000000000000000 500.000000000000000
0

0101000
+132 7 -253 7 *
Ed
 0.000000100000695 1 1 0
1  78 0 0.000000000000000 32.000000000000000
0

0101000
+132 11 -168 11 *
Wi

0101100
+131 0 -135 0 -130 10 +250 13 *
Fa
0  0.000000100000000 12 0

0101000
+129 0 *
Ve
0.000000100000638
1000.000000000000000 -450.000000000000057 568.000000000000000
0 0

0101101
*
Ve
0.000000212133075
1000.000000000000000 -450.000000000000000 412.000000000000000
0 0

0101101
*
Ed
 0.000000100000638 1 1 0
1  79 0 0.000000000000000 156.000000000000000
0

0101000
+127 22 -126 22 *
Ve
0.000000212133075
1000.000000000000000 -900.000000000000000 412.000000000000000
0 0

0101101
*
Ed
 0.000000100000057 1 1 0
1  80 0 0.000000000000000 450.000000000000000
0

0101000
-126 20 +124 20 *
Ve
0.000000212133075
1000.000000000000000 -900.000000000000000 400.000000000000000
0 0

0101101
*
Ed
 0.000000100000057 1 1 0
1  81 0 0.000000000000000 12.000000000000000
0

0101000
-124 20 +122 20 *
Ve
0.000000212133075
1000.000000000000000 -450.000000000000000 400.000000000000000
0 0

0101101
*
Ed
 0.000000100000057 1 1 0
1  82 0 0.000000000000000 450.000000000000000
0

0101000
-120 20 +122 20 *
Ed
 0.000000100000695 1 1 0
1  83 0 168.000000000000000 368.000000000000000
0

0101000
+120 22 -132 22 *
Ed
 0.000000100000180 1 1 0
1  84 0 0.000000000000000 500.000000000000000
0

0101000
+127 7 -255 7 *
Wi

0101100
-125 23 +123 0 +121 0 -119 0 -118 23 -131 5 +252 24 +117 5 *
Fa
0  0.000000100000057 13 5

0101000
+116 0 *
Ve
0.000000100000638
1468.000000000000000 -450.000000000000057 568.000000000000000
0 0

0101101
*
Ed
 0.000000100000000 1 1 0
1  85 0 0.000000000000000 500.000000000000000
0

0101000
+114 7 -257 7 *
Ed
 0.000000100000638 1 1 0
1  86 0 0.000000000000000 468.000000000000000
0

0101000
+114 11 -127 11 *
Wi

0101100
+113 0 -117 0 -112 10 +254 13 *
Fa
0  0.000000100000000 14 0

0101000
+111 0 *
Ve
0.000000100000695
1468.000000000000000 -450.000000000000000 200.000000000000000
0 0

0101101
*
Ve
0.000000150000000
1468.000000000000000 -450.000000000000000 400.000000000000000
0 0

0101101
*
Ed
 0.000000100000695 1 1 0
1  87 0 0.000000000000000 200.000000000000000
0

0101000
+109 11 -108 11 *
Ve
0.000000150000000
1468.000000000000000 -900.000000000000000 400.000000000000000
0 0

0101101
*
Ed
 0.000000150000000 1 1 0
1  88 0 -225.000000000000000 225.000000000000000
0

0101000
+106 20 -108 20 *
Ve
0.000000150000000
1468.000000000000000 -900.000000000000000 412.000000000000000
0 0

0101101
*
Ed
 0.000000150000000 1 1 0
1  89 0 -112.000000000000000 -100.000000000000000
0

0101000
+104 20 -106 20 *
Ve
0.000000150000000
1468.000000000000000 -450.000000000000000 412.000000000000000
0 0

0101101
*
Ed
 0.000000150000000 1 1 0
1  90 0 -225.000000000000000 225.000000000000000
0

0101000
+104 20 -102 20 *
Ed
 0.000000100000638 1 1 0
1  91 0 212.000000000000000 368.000000000000000
0

0101000
+102 11 -114 11 *
Ed
 0.000000100000000 1 1 0
1  92 0 0.000000000000000 500.000000000000000
0

0101000
+109 7 -259 7 *
Wi

0101100
-107 25 +105 0 +103 0 -101 0 -100 25 -113 5 +256 24 +99 5 *
Fa
0  0.000000100000000 15 5

0101000
+98 0 *
Ve
0.000000212133075
1000.000000000000000 -449.999999999999943 600.000000000000000
0 0

0101101
*
Ed
 0.000000100000638 1 1 0
1  93 0 0.000000000000000 500.000000000000171
0

0101000
+96 17 -265 17 *
Ve
0.000000100000695
1500.000000000000000 -450.000000000000114 600.000000000000000
0 0

0101101
*
Ed
 0.000000100000695 1 1 0
1  94 0 0.000000000000000 500.000000000000000
0

0101000
+94 7 -263 7 *
Ed
 0.000000100000695 1 1 0
1  95 0 0.000000000000000 500.000000000000000
0

0101000
+96 11 -94 11 *
Wi

0101000
+95 0 -93 15 -92 21 +262 16 *
Fa
0  0.000000100000000 16 15

0101000
+91 0 *
Ed
 0.000000100000695 1 1 0
1  96 0 0.000000000000000 600.000000000000000
0

0101000
+220 17 -96 17 *
Wi

0101000
-89 0 +219 15 +264 16 -95 0 *
Fa
0  0.000000100000638 17 15

0101000
+88 0 *
Ed
 0.000000100000638 1 1 0
1  97 0 32.000000000000000 468.000000000000000
0

0101000
+187 22 -164 22 *
Ed
 0.000000100000000 1 1 0
1  98 0 32.000000000000000 468.000000000000000
0

0101000
+185 22 -166 22 *
Wi

0101100
-86 0 +163 0 +85 0 +184 0 *
Fa
0  0.000000100000000 18 0

0101000
+84 0 *
Ed
 0.000000100000638 1 1 0
1  99 0 32.000000000000064 468.000000000000057
0

0101000
+189 27 -162 27 *
Ed
 0.000000100000000 1 1 0
1  100 0 32.000000000000064 468.000000000000057
0

0101000
+191 27 -160 27 *
Wi

0101100
-82 26 +159 0 +81 26 +188 0 *
Fa
0  0.000000100000000 19 26

0101000
+80 0 *
Ed
 0.000000100000638 1 1 0
1  101 0 32.000000000000135 468.000000000000114
0

0101000
+197 29 -154 29 *
Ed
 0.000000100000000 1 1 0
1  102 0 32.000000000000135 468.000000000000114
0

0101000
+199 29 -152 29 *
Wi

0101100
-78 28 +151 0 +77 28 +196 0 *
Fa
0  0.000000100000000 20 28

0101000
+76 0 *
Ed
 0.000000100000638 1 1 0
1  103 0 32.000000000000064 468.000000000000057
0

0101000
+195 27 -156 27 *
Ed
 0.000000100000000 1 1 0
1  104 0 32.000000000000064 468.000000000000057
0

0101000
+193 27 -158 27 *
Wi

0101100
-74 26 +155 0 +73 26 +192 0 *
Fa
0  0.000000100000000 21 26

0101000
+72 0 *
Ve
0.000000100000638
582.000000000000000 -450.000000000000227 1168.000000000000000
0 0

0101101
*
Ed
 0.000000100000000 1 1 0
1  105 0 0.000000000000000 500.000000000000000
0

0101000
+70 7 -241 7 *
Ed
 0.000000100000000 1 1 0
1  106 0 0.000000000000000 50.000000000000000
0

0101000
+70 20 -212 20 *
Wi

0101100
+69 0 -178 0 -68 30 +238 13 *
Fa
0  0.000000100000000 22 0

0101000
+67 0 *
Ed
 0.000000100000000 1 1 0
1  107 0 32.000000000000199 468.000000000000227
0

0101000
+211 20 -140 20 *
Ed
 0.000000100000000 1 1 0
1  108 0 32.000000000000199 468.000000000000227
0

0101000
+209 32 -142 32 *
Wi

0101100
-65 19 +139 0 +64 31 +208 0 *
Fa
0  0.000000100000000 23 31

0101000
+63 0 *
Ve
0.000000100000638
632.000000000000000 -450.000000000000171 1093.000000000000000
0 0

0101101
*
Ed
 0.000000100000000 1 1 0
1  109 0 0.000000000000000 500.000000000000000
0

0101000
+61 7 -243 7 *
Ed
 0.000000100000000 1 1 0
1  110 0 0.000000000000000 90.138781886599730
0

0101000
+61 20 -70 20 *
Wi

0101100
+60 0 -69 0 -59 30 +240 13 *
Fa
0  0.000000100000000 24 0

0101000
+58 0 *
Ve
0.000000100000638
867.999999999999659 -450.000000000000171 1093.000000000000000
0 0

0101101
*
Ed
 0.000000100000000 1 1 0
1  111 0 0.000000000000000 500.000000000000000
0

0101000
+56 7 -245 7 *
Ed
 0.000000100000000 1 1 0
1  112 0 0.000000000000000 235.999999999999659
0

0101000
+56 20 -61 20 *
Wi

0101100
+55 0 -60 0 -54 30 +242 13 *
Fa
0  0.000000100000000 25 0

0101000
+53 0 *
Ve
0.000000100000638
918.000000000000000 -450.000000000000227 1168.000000000000000
0 0

0101101
*
Ed
 0.000000100000000 1 1 0
1  113 0 0.000000000000000 500.000000000000000
0

0101000
+51 7 -247 7 *
Ed
 0.000000100000000 1 1 0
1  114 0 0.000000000000000 50.000000000000000
0

0101000
+138 20 -51 20 *
Wi

0101100
+136 0 -50 0 -49 30 +246 13 *
Fa
0  0.000000100000000 26 0

0101000
+48 0 *
Ed
 0.000000100000000 1 1 0
1  115 0 0.000000000000000 90.138781886599929
0

0101000
+51 20 -56 20 *
Wi

0101100
+50 0 -55 0 -46 30 +244 13 *
Fa
0  0.000000100000000 27 0

0101000
+45 0 *
Ed
 0.000000100000638 1 1 0
1  116 0 32.000000000000199 468.000000000000227
0

0101000
+205 32 -146 32 *
Ed
 0.000000100000000 1 1 0
1  117 0 32.000000000000199 468.000000000000227
0

0101000
+207 32 -144 32 *
Wi

0101100
-43 31 +143 0 +42 31 +204 0 *
Fa
0  0.000000100000000 28 31

0101000
+41 0 *
Ed
 0.000000100000638 1 1 0
1  118 0 32.000000000000135 468.000000000000114
0

0101000
+203 29 -148 29 *
Ed
 0.000000100000000 1 1 0
1  119 0 32.000000000000135 468.000000000000114
0

0101000
+201 29 -150 29 *
Wi

0101100
-39 28 +147 0 +38 28 +200 0 *
Fa
0  0.000000100000000 29 28

0101000
+37 0 *
Ve
0.000000100000695
1500.000000000000000 -450.000000000000000 200.000000000000000
0 0

0101101
*
Ed
 0.000000100000695 1 1 0
1  120 0 0.000000000000000 500.000000000000000
0

0101000
+35 7 -261 7 *
Ed
 0.000000100000695 1 1 0
1  121 0 0.000000000000000 32.000000000000000
0

0101000
+35 11 -109 11 *
Wi

0101100
+34 0 -99 0 -33 10 +258 13 *
Fa
0  0.000000100000000 30 0

0101000
+32 0 *
Wi

0101100
-42 31 +141 0 +64 31 +206 0 *
Fa
0  0.000000100000000 31 31

0101000
+30 0 *
Wi

0101100
-77 28 +149 0 +38 28 +198 0 *
Fa
0  0.000000100000000 32 28

0101000
+28 0 *
Wi

0101100
-81 26 +157 0 +73 26 +190 0 *
Fa
0  0.000000100000000 33 26

0101000
+26 0 *
Wi

0101100
-171 0 +165 0 +85 0 +182 0 *
Fa
0  0.000000100000000 34 0

0101000
+24 0 *
Ed
 0.000000100000000 1 1 0
1  122 0 0.000000000000000 468.000000000000000
0

0101000
+126 20 -102 20 *
Ed
 0.000000100000000 1 1 0
1  123 0 0.000000000000000 468.000000000000000
0

0101000
+124 20 -104 20 *
Wi

0101100
-22 0 +101 0 +21 0 -123 0 *
Fa
0  0.000000100000000 35 0

0101000
+20 0 *
Ed
 0.000000100000000 1 1 0
1  124 0 0.000000000000000 468.000000000000000
0

0101000
+122 20 -106 20 *
Wi

0101100
-18 0 +103 0 +21 0 +121 0 *
Fa
0  0.000000100000000 36 0

0101000
+17 0 *
Ed
 0.000000100000695 1 1 0
1  125 0 0.000000000000000 468.000000000000000
0

0101000
+120 20 -108 20 *
Wi

0101100
-15 0 +105 0 +18 0 -119 0 *
Fa
0  0.000000100000000 37 0

0101000
+14 0 *
Ed
 0.000000100000000 1 1 0
1  126 0 0.000000000000000 400.000000000000000
0

0101000
+94 20 -35 20 *
Wi

0101000
+218 25 +89 4 +92 25 +12 0 +33 25 +107 25 -15 0 +118 23 +130 25 +167 25 
-174 23 +179 25 +230 25 +281 4 +289 25 +275 25 +225 25 +215 25 *
Wi

0101100
+125 23 +22 0 +100 25 +112 25 *
Wi

0101100
+161 25 -82 33 +186 25 +86 23 *
Wi

0101100
+194 25 +74 33 +153 25 -78 34 *
Wi

0101100
+202 25 +39 34 +145 25 -43 35 *
Wi

0101100
+210 0 +65 0 +137 0 +49 0 +46 0 +54 0 +59 0 +68 0 *
Fa
0  0.000000100000695 38 0

0101000
+11 0 +10 0 +9 0 +8 0 +7 0 +6 0 *
Wi

0101000
-12 0 +93 5 +260 24 -34 5 *
Fa
0  0.000000100000695 39 5

0101000
+4 0 *
Sh

0101000
+286 5 +279 4 +272 5 -233 18 +228 5 +223 5 +216 5 +213 5 +176 4 -169 23 
+133 4 +128 5 +115 0 +110 5 +97 0 +90 4 +87 4 +83 23 -79 4 -75 4 
+71 4 +66 5 +62 4 +57 5 +52 5 +47 5 +44 5 -40 4 +36 4 +31 5 
-29 4 -27 4 -25 4 -23 23 +19 0 -16 0 -13 0 +5 0 +3 0 *
So

1100000
+2 0 *

+1 1 