
CASCADE Topology V1, (c) Matra-Datavision
Locations 25
1
1.000000000000000 0.000000000000000 0.000000000000000 0.000000000000000 
0.000000000000000 1.000000000000000 0.000000000000000 -450.000000000000000 
0.000000000000000 0.000000000000000 1.000000000000000 200.000000000000000 
1
1.000000000000000 0.000000000000000 0.000000000000000 0.000000000000000 
0.000000000000000 -0.000000000000000 -1.000000000000000 0.000000000000000 
0.000000000000000 1.000000000000000 -0.000000000000000 0.000000000000000 
2  2 -1 0
1
1.000000000000000 0.000000000000000 0.000000000000000 0.000000000000000 
0.000000000000000 -0.000000000000000 -1.000000000000000 0.000000000000000 
0.000000000000000 1.000000000000000 -0.000000000000000 0.000000000000000 
1
1.000000000000000 0.000000000000000 0.000000000000000 0.000000000000000 
0.000000000000000 -0.000000000000000 -1.000000000000000 0.000000000000000 
0.000000000000000 1.000000000000000 -0.000000000000000 0.000000000000000 
2  4 1 5 -1 0
2  4 -1 0
2  2 -1 5 1 4 -1 0
1
1.000000000000000 0.000000000000000 0.000000000000000 0.000000000000000 
0.000000000000000 1.000000000000000 0.000000000000000 0.000000000000000 
0.000000000000000 0.000000000000000 1.000000000000000 500.000000000000000 
2  4 1 5 -1 9 1 0
2  2 -1 9 -1 5 1 4 -1 0
2  5 -1 9 1 2 1 0
2  9 -1 5 1 4 -1 0
2  4 1 5 -1 2 1 0
2  5 1 4 -1 0
2  4 1 5 -1 9 1 2 1 0
1
1.000000000000000 0.000000000000000 0.000000000000000 100.000000000000000 
0.000000000000000 1.000000000000000 0.000000000000000 0.000000000000000 
0.000000000000000 0.000000000000000 1.000000000000000 0.000000000000000 
1
1.000000000000000 0.000000000000000 0.000000000000000 0.000000000000000 
0.000000000000000 1.000000000000000 0.000000000000000 0.000000000000000 
0.000000000000000 0.000000000000000 1.000000000000000 0.000000000000000 
2  17 1 18 -1 0
1
1.000000000000000 0.000000000000000 0.000000000000000 100.000000000000000 
0.000000000000000 1.000000000000000 0.000000000000000 0.000000000000000 
0.000000000000000 0.000000000000000 1.000000000000000 0.000000000000000 
1
1.000000000000000 0.000000000000000 0.000000000000000 0.000000000000000 
0.000000000000000 1.000000000000000 0.000000000000000 0.000000000000000 
0.000000000000000 0.000000000000000 1.000000000000000 0.000000000000000 
2  20 1 21 -1 0
1
1.000000000000000 0.000000000000000 0.000000000000000 100.000000000000000 
0.000000000000000 1.000000000000000 0.000000000000000 0.000000000000000 
0.000000000000000 0.000000000000000 1.000000000000000 0.000000000000000 
1
1.000000000000000 0.000000000000000 0.000000000000000 0.000000000000000 
0.000000000000000 1.000000000000000 0.000000000000000 0.000000000000000 
0.000000000000000 0.000000000000000 1.000000000000000 0.000000000000000 
2  23 1 24 -1 0
Curve2ds 99
1 1000.00000000000000000 0.00000000000000000 0.00000000000000000 -1.00000000000000000 
1 490.89537321130910641 -404.58697080125784851 0.00000000000000000 1.00000000000000000 
1 579.51525233923098313 -452.48615743445589032 0.00000000000000000 1.00000000000000000 
1 0.00000000000000000 -499.99999999999994316 1.00000000000000000 0.00000000000000000 
1 0.00000000000000000 -499.99999999999994316 1.00000000000000000 0.00000000000000000 
1 0.00000000000000000 -499.99999999999994316 1.00000000000000000 0.00000000000000000 
1 0.00000000000000000 -499.99999999999994316 1.00000000000000000 0.00000000000000000 
1 0.00000000000000000 -499.99999999999994316 1.00000000000000000 0.00000000000000000 
1 0.00000000000000000 -499.99999999999994316 1.00000000000000000 0.00000000000000000 
1 968.00000000000000000 0.00000000000000000 0.00000000000000000 -1.00000000000000000 
1 0.00000000000000000 0.00000000000000000 0.00000000000000000 -1.00000000000000000 
1 -509.10462678869089359 -372.58697080125784851 0.00000000000000000 -1.00000000000000000 
1 -420.48474766076896003 -420.48615743445589032 0.00000000000000000 -1.00000000000000000 
1 458.89537321130910641 -372.58697080125784851 -1.00000000000000000 0.00000000000000000 
1 0.00000000000000000 0.00000000000000000 1.00000000000000000 0.00000000000000000 
1 547.51525233923098313 -420.48615743445589032 -1.00000000000000000 0.00000000000000000 
8 -270.00000000000011369 269.99999999999988631
1 756.00000000000000000 -225.00000000000005684 -0.00000000000000022 -1.00000000000000000 
8 -270.00000000000011369 269.99999999999988631
1 32.00000000000000000 224.99999999999988631 0.00000000000000000 -1.00000000000000000 
8 -385.19999999999998863 -370.80000000000001137
1 383.99999999999988631 -449.99999999999988631 -1.00000000000000000 0.00000000000000022 
8 -385.19999999999998863 -370.80000000000001137
1 384.00000000000000000 32.00000000000000000 1.00000000000000000 0.00000000000000000 
8 -270.00000000000011369 269.99999999999988631
1 768.00000000000000000 -225.00000000000005684 -0.00000000000000022 -1.00000000000000000 
8 -270.00000000000011369 269.99999999999988631
1 32.00000000000000000 224.99999999999988631 0.00000000000000000 -1.00000000000000000 
1 547.51525233923098313 -420.48615743445589032 -1.00000000000000000 0.00000000000000000 
1 0.00000000000000000 0.00000000000000000 0.00000000000000000 -1.00000000000000000 
1 458.89537321130910641 -322.58697080125784851 0.00000000000000000 -1.00000000000000000 
1 547.51525233923098313 -370.48615743445589032 0.00000000000000000 -1.00000000000000000 
1 383.89537321130910641 -272.58697080125784851 0.83205029433784372 -0.55470019622522915 
1 472.51525233923103997 -320.48615743445589032 0.83205029433784372 -0.55470019622522915 
1 383.89537321130910641 -36.58697080125818957 0.00000000000000000 -1.00000000000000000 
1 472.51525233923103997 -84.48615743445623139 0.00000000000000000 -1.00000000000000000 
1 458.89537321130910641 13.41302919874215149 -0.83205029433784194 -0.55470019622523181 
1 547.51525233923098313 -34.48615743445589032 -0.83205029433784194 -0.55470019622523181 
1 968.00000000000000000 0.00000000000000000 0.00000000000000000 -1.00000000000000000 
1 458.89537321130910641 63.41302919874215149 0.00000000000000000 -1.00000000000000000 
1 547.51525233923098313 15.51384256554410968 0.00000000000000000 -1.00000000000000000 
1 -509.10462678869089359 63.41302919874215149 1.00000000000000000 0.00000000000000000 
1 0.00000000000000000 0.00000000000000000 1.00000000000000000 0.00000000000000000 
1 -420.48474766076896003 15.51384256554410968 1.00000000000000000 -0.00000000000000000 
8 -270.00000000000000000 270.00000000000000000
1 200.00000000000005684 -224.99999999999994316 -0.00000000000000022 1.00000000000000000 
8 -270.00000000000000000 270.00000000000000000
1 468.00000000000000000 225.00000000000000000 0.00000000000000000 1.00000000000000000 
1 368.00000000000000000 225.00000000000000000 0.00000000000000000 1.00000000000000000 
1 368.00000000000000000 225.00000000000000000 0.00000000000000000 1.00000000000000000 
1 368.00000000000000000 225.00000000000000000 0.00000000000000000 1.00000000000000000 
8 -113.20000000000000284 -98.79999999999999716
1 100.00000000000009948 -450.00000000000000000 -1.00000000000000000 -0.00000000000000022 
8 -113.20000000000000284 -98.79999999999999716
1 -100.00000000000000000 468.00000000000000000 -1.00000000000000000 0.00000000000000000 
1 -100.00000000000000000 368.00000000000000000 -1.00000000000000000 0.00000000000000000 
1 -100.00000000000000000 368.00000000000000000 -1.00000000000000000 0.00000000000000000 
1 -100.00000000000000000 368.00000000000000000 -1.00000000000000000 0.00000000000000000 
8 -270.00000000000000000 270.00000000000000000
1 212.00000000000005684 -224.99999999999994316 -0.00000000000000022 1.00000000000000000 
8 -270.00000000000000000 270.00000000000000000
1 468.00000000000000000 225.00000000000000000 0.00000000000000000 1.00000000000000000 
1 368.00000000000000000 225.00000000000000000 0.00000000000000000 1.00000000000000000 
1 368.00000000000000000 225.00000000000000000 0.00000000000000000 1.00000000000000000 
1 368.00000000000000000 225.00000000000000000 0.00000000000000000 1.00000000000000000 
1 -420.48474766076896003 15.51384256554410968 1.00000000000000000 -0.00000000000000000 
1 0.00000000000000000 0.00000000000000000 0.00000000000000000 -1.00000000000000000 
1 0.00000000000000000 0.00000000000000000 0.00000000000000000 -1.00000000000000000 
1 -141.10462678869089359 563.41302919874215149 0.00000000000000000 -1.00000000000000000 
1 -52.48474766076896003 515.51384256554410968 0.00000000000000000 -1.00000000000000000 
1 -509.10462678869089359 563.41302919874215149 1.00000000000000000 0.00000000000000000 
1 -420.48474766076896003 515.51384256554410968 1.00000000000000000 -0.00000000000000000 
1 -509.10462678869089359 595.41302919874215149 0.00000000000000000 -1.00000000000000000 
1 -420.48474766076896003 547.51384256554410968 0.00000000000000000 -1.00000000000000000 
1 500.00000000000000000 0.00000000000000000 0.00000000000000000 -1.00000000000000000 
1 -109.10462678869089359 595.41302919874215149 -1.00000000000000000 0.00000000000000000 
1 -20.48474766076896003 547.51384256554410968 -1.00000000000000000 0.00000000000000000 
1 600.00000000000000000 0.00000000000000000 0.00000000000000000 -1.00000000000000000 
1 0.00000000000000000 0.00000000000000000 0.00000000000000000 -1.00000000000000000 
1 -109.10462678869089359 95.41302919874215149 0.00000000000000000 1.00000000000000000 
1 -20.48474766076896003 47.51384256554410968 0.00000000000000000 1.00000000000000000 
1 0.00000000000000000 0.00000000000000000 1.00000000000000000 0.00000000000000000 
1 0.00000000000000000 0.00000000000000000 0.00000000000000000 -1.00000000000000000 
1 490.89537321130910641 95.41302919874215149 -1.00000000000000000 0.00000000000000000 
1 579.51525233923098313 47.51384256554410968 -1.00000000000000000 0.00000000000000000 
1 0.00000000000000000 0.00000000000000000 1.00000000000000000 0.00000000000000000 
1 490.89537321130910641 -4.58697080125784851 0.00000000000000000 1.00000000000000000 
1 579.51525233923098313 -52.48615743445589032 0.00000000000000000 1.00000000000000000 
1 415.89537321130910641 -54.58697080125784851 0.83205029433784372 0.55470019622522915 
1 504.51525233923103997 -102.48615743445589032 0.83205029433784372 0.55470019622522915 
1 415.89537321130910641 -254.58697080125784851 0.00000000000000000 1.00000000000000000 
1 504.51525233923103997 -302.48615743445589032 0.00000000000000000 1.00000000000000000 
1 490.89537321130910641 -304.58697080125784851 -0.83205029433784372 0.55470019622522915 
1 579.51525233923098313 -352.48615743445589032 -0.83205029433784372 0.55470019622522915 
1 368.00000000000000000 0.00000000000000000 0.00000000000000000 -1.00000000000000000 
1 -509.10462678869089359 95.41302919874215149 0.00000000000000000 -1.00000000000000000 
1 -420.48474766076896003 47.51384256554410968 0.00000000000000000 -1.00000000000000000 
1 12.00000000000000000 0.00000000000000000 0.00000000000000000 1.00000000000000000 
1 0.00000000000000000 450.00000000000000000 1.00000000000000000 0.00000000000000000 
1 -208.48474766076896003 -452.48615743445589032 0.00000000000000000 1.00000000000000000 
1 12.00000000000000000 0.00000000000000000 0.00000000000000000 1.00000000000000000 
1 0.00000000000000000 0.00000000000000000 1.00000000000000000 0.00000000000000000 
1 0.00000000000000000 0.00000000000000000 0.00000000000000000 1.00000000000000000 
1 0.00000000000000000 0.00000000000000000 1.00000000000000000 0.00000000000000000 
1 0.00000000000000000 0.00000000000000000 0.00000000000000000 1.00000000000000000 
1 0.00000000000000000 450.00000000000000000 1.00000000000000000 0.00000000000000000 
1 -220.48474766076896003 -452.48615743445589032 0.00000000000000000 1.00000000000000000 
1 0.00000000000000000 0.00000000000000000 1.00000000000000000 0.00000000000000000 
1 -420.48474766076896003 -452.48615743445589032 1.00000000000000000 -0.00000000000000000 
1 0.00000000000000000 0.00000000000000000 1.00000000000000000 0.00000000000000000 
1 -52.48474766076896003 47.51384256554410968 -1.00000000000000000 0.00000000000000000 
Curves 76
1 0.00000000000000000 799.99999999999988631 -449.99999999999994316 0.00000000000000000 0.00000000000000000 1.00000000000000000 
1 100.00000000000000000 799.99999999999988631 -449.99999999999994316 0.00000000000000000 0.00000000000000000 1.00000000000000000 
1 0.00000000000000000 799.99999999999988631 -449.99999999999994316 1.00000000000000000 0.00000000000000000 0.00000000000000000 
1 0.00000000000000000 799.99999999999988631 -450.00000000000000000 1.00000000000000000 0.00000000000000000 0.00000000000000000 
1 0.00000000000000000 -200.00000000000011369 -450.00000000000000000 0.00000000000000000 1.00000000000000000 0.00000000000000000 
1 100.00000000000000000 799.99999999999988631 -450.00000000000000000 0.55470019622522915 -0.83205029433784372 0.00000000000000000 
1 150.00000000000000000 724.99999999999988631 -450.00000000000000000 1.00000000000000000 0.00000000000000000 0.00000000000000000 
1 350.00000000000000000 724.99999999999988631 -450.00000000000000000 0.55470019622522915 0.83205029433784372 0.00000000000000000 
1 400.00000000000000000 799.99999999999988631 -450.00000000000000000 1.00000000000000000 0.00000000000000000 0.00000000000000000 
1 500.00000000000000000 799.99999999999988631 -450.00000000000000000 0.00000000000000000 -1.00000000000000000 0.00000000000000000 
1 500.00000000000000000 199.99999999999988631 -450.00000000000000000 1.00000000000000000 0.00000000000000000 0.00000000000000000 
1 1000.00000000000000000 199.99999999999988631 -450.00000000000000000 0.00000000000000000 -1.00000000000000000 0.00000000000000000 
1 1000.00000000000000000 -200.00000000000011369 -450.00000000000000000 -1.00000000000000000 0.00000000000000000 0.00000000000000000 
1 968.00000000000000000 -200.00000000000011369 -450.00000000000000000 0.00000000000000000 1.00000000000000000 0.00000000000000000 
1 968.00000000000000000 167.99999999999988631 -450.00000000000000000 -1.00000000000000000 0.00000000000000000 0.00000000000000000 
1 500.00000000000000000 167.99999999999988631 -450.00000000000000000 0.00000000000000000 -1.00000000000000000 0.00000000000000000 
1 500.00000000000000000 -200.00000000000011369 -450.00000000000000000 -1.00000000000000000 0.00000000000000000 0.00000000000000000 
1 468.00000000000000000 -200.00000000000011369 -450.00000000000000000 0.00000000000000000 1.00000000000000000 0.00000000000000000 
1 468.00000000000000000 767.99999999999988631 -450.00000000000000000 -1.00000000000000000 0.00000000000000000 0.00000000000000000 
1 418.00000000000000000 767.99999999999988631 -450.00000000000000000 -0.55470019622523181 -0.83205029433784194 0.00000000000000000 
1 367.99999999999965894 692.99999999999988631 -450.00000000000000000 -1.00000000000000000 0.00000000000000000 0.00000000000000000 
1 132.00000000000000000 692.99999999999988631 -450.00000000000000000 -0.55470019622522915 0.83205029433784372 0.00000000000000000 
1 82.00000000000000000 767.99999999999988631 -450.00000000000000000 -1.00000000000000000 0.00000000000000000 0.00000000000000000 
1 32.00000000000000000 767.99999999999988631 -450.00000000000000000 0.00000000000000000 -1.00000000000000000 0.00000000000000000 
1 32.00000000000000000 -200.00000000000011369 -450.00000000000000000 -1.00000000000000000 0.00000000000000000 0.00000000000000000 
1 32.00000000000000000 -200.00000000000011369 -449.99999999999994316 0.00000000000000000 0.00000000000000000 1.00000000000000000 
1 0.00000000000000000 -200.00000000000011369 -449.99999999999994316 0.00000000000000000 0.00000000000000000 1.00000000000000000 
1 32.00000000000000000 -200.00000000000011369 -449.99999999999994316 -1.00000000000000000 0.00000000000000000 0.00000000000000000 
1 32.00000000000000000 767.99999999999988631 -449.99999999999994316 0.00000000000000000 -1.00000000000000000 0.00000000000000000 
1 32.00000000000000000 224.99999999999988631 12.00000000000000000 0.00000000000000000 -1.00000000000000000 0.00000000000000000 
1 32.00000000000000000 0.00000000000000000 384.00000000000000000 0.00000000000000000 -0.00000000000000000 1.00000000000000000 
1 32.00000000000000000 224.99999999999988631 0.00000000000000000 0.00000000000000000 -1.00000000000000000 0.00000000000000000 
1 32.00000000000000000 767.99999999999988631 -449.99999999999994316 0.00000000000000000 0.00000000000000000 1.00000000000000000 
1 82.00000000000000000 767.99999999999988631 -449.99999999999994316 0.00000000000000000 0.00000000000000000 1.00000000000000000 
1 82.00000000000000000 767.99999999999988631 -449.99999999999994316 -1.00000000000000000 0.00000000000000000 0.00000000000000000 
1 132.00000000000000000 692.99999999999988631 -449.99999999999994316 0.00000000000000000 0.00000000000000000 1.00000000000000000 
1 132.00000000000000000 692.99999999999988631 -449.99999999999994316 -0.55470019622522915 0.83205029433784372 0.00000000000000000 
1 367.99999999999965894 692.99999999999988631 -449.99999999999994316 0.00000000000000000 0.00000000000000000 1.00000000000000000 
1 367.99999999999965894 692.99999999999988631 -449.99999999999994316 -1.00000000000000000 0.00000000000000000 0.00000000000000000 
1 418.00000000000000000 767.99999999999988631 -449.99999999999994316 0.00000000000000000 0.00000000000000000 1.00000000000000000 
1 418.00000000000000000 767.99999999999988631 -449.99999999999994316 -0.55470019622523181 -0.83205029433784194 0.00000000000000000 
1 468.00000000000000000 767.99999999999988631 -449.99999999999994316 0.00000000000000000 0.00000000000000000 1.00000000000000000 
1 468.00000000000000000 767.99999999999988631 -449.99999999999994316 -1.00000000000000000 0.00000000000000000 0.00000000000000000 
1 468.00000000000000000 -200.00000000000011369 -449.99999999999994316 0.00000000000000000 1.00000000000000000 0.00000000000000000 
1 468.00000000000000000 225.00000000000000000 0.00000000000000000 -0.00000000000000000 1.00000000000000000 0.00000000000000000 
1 468.00000000000000000 0.00000000000000000 -100.00000000000000000 -0.00000000000000000 0.00000000000000000 -1.00000000000000000 
1 468.00000000000000000 225.00000000000000000 12.00000000000000000 -0.00000000000000000 1.00000000000000000 0.00000000000000000 
1 468.00000000000000000 -200.00000000000011369 -449.99999999999994316 0.00000000000000000 0.00000000000000000 1.00000000000000000 
1 968.00000000000000000 167.99999999999988631 -449.99999999999994316 0.00000000000000000 0.00000000000000000 1.00000000000000000 
1 500.00000000000000000 167.99999999999988631 -449.99999999999994316 0.00000000000000000 0.00000000000000000 1.00000000000000000 
1 968.00000000000000000 167.99999999999988631 -449.99999999999994316 -1.00000000000000000 0.00000000000000000 0.00000000000000000 
1 968.00000000000000000 -200.00000000000011369 -449.99999999999994316 0.00000000000000000 0.00000000000000000 1.00000000000000000 
1 968.00000000000000000 -200.00000000000011369 -449.99999999999994316 0.00000000000000000 1.00000000000000000 0.00000000000000000 
1 1000.00000000000000000 -200.00000000000011369 -449.99999999999994316 0.00000000000000000 0.00000000000000000 1.00000000000000000 
1 1000.00000000000000000 -200.00000000000011369 -449.99999999999994316 -1.00000000000000000 0.00000000000000000 0.00000000000000000 
1 1000.00000000000000000 199.99999999999988631 -449.99999999999994316 0.00000000000000000 0.00000000000000000 1.00000000000000000 
1 1000.00000000000000000 199.99999999999988631 -449.99999999999994316 0.00000000000000000 -1.00000000000000000 0.00000000000000000 
1 500.00000000000000000 199.99999999999988631 -449.99999999999994316 0.00000000000000000 0.00000000000000000 1.00000000000000000 
1 500.00000000000000000 199.99999999999988631 -449.99999999999994316 1.00000000000000000 0.00000000000000000 0.00000000000000000 
1 500.00000000000000000 799.99999999999988631 -449.99999999999994316 0.00000000000000000 0.00000000000000000 1.00000000000000000 
1 500.00000000000000000 799.99999999999988631 -449.99999999999994316 0.00000000000000000 -1.00000000000000000 0.00000000000000000 
1 400.00000000000000000 799.99999999999988631 -449.99999999999994316 0.00000000000000000 0.00000000000000000 1.00000000000000000 
1 400.00000000000000000 799.99999999999988631 -449.99999999999994316 1.00000000000000000 0.00000000000000000 0.00000000000000000 
1 350.00000000000000000 724.99999999999988631 -449.99999999999994316 0.00000000000000000 0.00000000000000000 1.00000000000000000 
1 350.00000000000000000 724.99999999999988631 -449.99999999999994316 0.55470019622522915 0.83205029433784372 0.00000000000000000 
1 150.00000000000000000 724.99999999999988631 -449.99999999999994316 0.00000000000000000 0.00000000000000000 1.00000000000000000 
1 150.00000000000000000 724.99999999999988631 -449.99999999999994316 1.00000000000000000 0.00000000000000000 0.00000000000000000 
1 100.00000000000000000 799.99999999999988631 -449.99999999999994316 0.55470019622522915 -0.83205029433784372 0.00000000000000000 
1 500.00000000000000000 -200.00000000000011369 -449.99999999999994316 0.00000000000000000 0.00000000000000000 1.00000000000000000 
1 500.00000000000000000 -200.00000000000011369 -449.99999999999994316 -1.00000000000000000 0.00000000000000000 0.00000000000000000 
1 0.00000000000000000 450.00000000000000000 12.00000000000000000 1.00000000000000000 0.00000000000000000 -0.00000000000000000 
1 0.00000000000000000 0.00000000000000000 12.00000000000000000 1.00000000000000000 0.00000000000000000 -0.00000000000000000 
1 0.00000000000000000 0.00000000000000000 0.00000000000000000 1.00000000000000000 0.00000000000000000 -0.00000000000000000 
1 0.00000000000000000 450.00000000000000000 0.00000000000000000 1.00000000000000000 0.00000000000000000 -0.00000000000000000 
1 0.00000000000000000 450.00000000000000000 -200.00000000000000000 0.00000000000000000 -0.00000000000000022 1.00000000000000000 
1 500.00000000000000000 449.99999999999988631 168.00000000000000000 0.00000000000000000 0.00000000000000022 -1.00000000000000000 
Polygon3D 0
PolygonOnTriangulations 0
Surfaces 38
1 0.00000000000000000 799.99999999999988631 -449.99999999999994316 0.00000000000000000 1.00000000000000000 0.00000000000000000 1.00000000000000000 0.00000000000000000 0.00000000000000000 0.00000000000000000 0.00000000000000000 -1.00000000000000000 
1 0.00000000000000000 -200.00000000000011369 -449.99999999999994316 -1.00000000000000000 0.00000000000000000 0.00000000000000000 0.00000000000000000 1.00000000000000000 0.00000000000000000 0.00000000000000000 0.00000000000000000 -1.00000000000000000 
1 404.58697080125784851 449.99999999999988631 309.10462678869089359 -0.00000000000000000 1.00000000000000000 0.00000000000000022 0.00000000000000000 -0.00000000000000022 1.00000000000000000 1.00000000000000000 0.00000000000000000 0.00000000000000000 
1 452.48615743445589032 450.00000000000000000 220.48474766076896003 0.00000000000000002 1.00000000000000000 0.00000000000000024 0.00000000000000000 -0.00000000000000024 1.00000000000000000 1.00000000000000000 -0.00000000000000002 -0.00000000000000000 
1 404.58697080125784851 449.99999999999988631 309.10462678869089359 -0.00000000000000000 1.00000000000000000 0.00000000000000022 0.00000000000000000 -0.00000000000000022 1.00000000000000000 1.00000000000000000 0.00000000000000000 0.00000000000000000 
1 500.00000000000000000 799.99999999999988631 -449.99999999999994316 1.00000000000000000 0.00000000000000000 0.00000000000000000 0.00000000000000000 -1.00000000000000000 0.00000000000000000 0.00000000000000000 0.00000000000000000 -1.00000000000000000 
1 500.00000000000000000 199.99999999999988631 -449.99999999999994316 0.00000000000000000 1.00000000000000000 0.00000000000000000 1.00000000000000000 0.00000000000000000 0.00000000000000000 0.00000000000000000 0.00000000000000000 -1.00000000000000000 
1 500.00000000000000000 167.99999999999988631 -449.99999999999994316 1.00000000000000000 0.00000000000000000 0.00000000000000000 0.00000000000000000 -1.00000000000000000 0.00000000000000000 0.00000000000000000 0.00000000000000000 -1.00000000000000000 
1 468.00000000000000000 -200.00000000000011369 -449.99999999999994316 -1.00000000000000000 0.00000000000000000 0.00000000000000000 0.00000000000000000 1.00000000000000000 0.00000000000000000 0.00000000000000000 0.00000000000000000 -1.00000000000000000 
1 32.00000000000000000 767.99999999999988631 -449.99999999999994316 1.00000000000000000 0.00000000000000000 0.00000000000000000 0.00000000000000000 -1.00000000000000000 0.00000000000000000 0.00000000000000000 0.00000000000000000 -1.00000000000000000 
1 32.00000000000000000 -200.00000000000011369 -449.99999999999994316 0.00000000000000000 -1.00000000000000000 0.00000000000000000 -1.00000000000000000 0.00000000000000000 0.00000000000000000 -0.00000000000000000 -0.00000000000000000 -1.00000000000000000 
1 0.00000000000000000 0.00000000000000000 12.00000000000000000 0.00000000000000000 0.00000000000000000 1.00000000000000000 1.00000000000000000 0.00000000000000000 -0.00000000000000000 -0.00000000000000000 1.00000000000000000 0.00000000000000000 
1 0.00000000000000000 0.00000000000000000 0.00000000000000000 -0.00000000000000000 1.00000000000000000 0.00000000000000000 0.00000000000000000 0.00000000000000000 1.00000000000000000 1.00000000000000000 0.00000000000000000 -0.00000000000000000 
1 0.00000000000000000 0.00000000000000000 0.00000000000000000 0.00000000000000000 0.00000000000000000 1.00000000000000000 1.00000000000000000 0.00000000000000000 -0.00000000000000000 -0.00000000000000000 1.00000000000000000 0.00000000000000000 
1 82.00000000000000000 767.99999999999988631 -449.99999999999994316 0.00000000000000000 -1.00000000000000000 0.00000000000000000 -1.00000000000000000 0.00000000000000000 0.00000000000000000 -0.00000000000000000 -0.00000000000000000 -1.00000000000000000 
1 132.00000000000000000 692.99999999999988631 -449.99999999999994316 -0.83205029433784372 -0.55470019622522915 0.00000000000000000 -0.55470019622522915 0.83205029433784372 0.00000000000000000 -0.00000000000000000 0.00000000000000000 -1.00000000000000000 
1 367.99999999999965894 692.99999999999988631 -449.99999999999994316 0.00000000000000000 -1.00000000000000000 0.00000000000000000 -1.00000000000000000 0.00000000000000000 0.00000000000000000 -0.00000000000000000 -0.00000000000000000 -1.00000000000000000 
1 418.00000000000000000 767.99999999999988631 -449.99999999999994316 0.83205029433784194 -0.55470019622523181 0.00000000000000000 -0.55470019622523181 -0.83205029433784194 0.00000000000000000 0.00000000000000000 -0.00000000000000000 -1.00000000000000000 
1 468.00000000000000000 767.99999999999988631 -449.99999999999994316 0.00000000000000000 -1.00000000000000000 0.00000000000000000 -1.00000000000000000 0.00000000000000000 0.00000000000000000 -0.00000000000000000 -0.00000000000000000 -1.00000000000000000 
1 0.00000000000000000 0.00000000000000000 0.00000000000000000 0.00000000000000000 0.00000000000000000 1.00000000000000000 1.00000000000000000 0.00000000000000000 -0.00000000000000000 -0.00000000000000000 1.00000000000000000 0.00000000000000000 
1 0.00000000000000000 0.00000000000000000 0.00000000000000000 0.00000000000000000 0.00000000000000000 1.00000000000000000 1.00000000000000000 0.00000000000000000 -0.00000000000000000 -0.00000000000000000 1.00000000000000000 0.00000000000000000 
1 0.00000000000000000 0.00000000000000000 0.00000000000000000 0.00000000000000000 0.00000000000000000 1.00000000000000000 1.00000000000000000 0.00000000000000000 -0.00000000000000000 -0.00000000000000000 1.00000000000000000 0.00000000000000000 
1 0.00000000000000000 0.00000000000000000 0.00000000000000000 -0.00000000000000000 1.00000000000000000 0.00000000000000000 0.00000000000000000 0.00000000000000000 1.00000000000000000 1.00000000000000000 0.00000000000000000 -0.00000000000000000 
1 0.00000000000000000 0.00000000000000000 0.00000000000000000 -0.00000000000000000 1.00000000000000000 0.00000000000000000 0.00000000000000000 0.00000000000000000 1.00000000000000000 1.00000000000000000 0.00000000000000000 -0.00000000000000000 
1 0.00000000000000000 0.00000000000000000 0.00000000000000000 -0.00000000000000000 1.00000000000000000 0.00000000000000000 0.00000000000000000 0.00000000000000000 1.00000000000000000 1.00000000000000000 0.00000000000000000 -0.00000000000000000 
1 0.00000000000000000 0.00000000000000000 12.00000000000000000 0.00000000000000000 0.00000000000000000 1.00000000000000000 1.00000000000000000 0.00000000000000000 -0.00000000000000000 -0.00000000000000000 1.00000000000000000 0.00000000000000000 
1 0.00000000000000000 0.00000000000000000 12.00000000000000000 0.00000000000000000 0.00000000000000000 1.00000000000000000 1.00000000000000000 0.00000000000000000 -0.00000000000000000 -0.00000000000000000 1.00000000000000000 0.00000000000000000 
1 0.00000000000000000 0.00000000000000000 12.00000000000000000 0.00000000000000000 0.00000000000000000 1.00000000000000000 1.00000000000000000 0.00000000000000000 -0.00000000000000000 -0.00000000000000000 1.00000000000000000 0.00000000000000000 
1 968.00000000000000000 167.99999999999988631 -449.99999999999994316 0.00000000000000000 -1.00000000000000000 0.00000000000000000 -1.00000000000000000 0.00000000000000000 0.00000000000000000 -0.00000000000000000 -0.00000000000000000 -1.00000000000000000 
1 968.00000000000000000 -200.00000000000011369 -449.99999999999994316 -1.00000000000000000 0.00000000000000000 0.00000000000000000 0.00000000000000000 1.00000000000000000 0.00000000000000000 0.00000000000000000 0.00000000000000000 -1.00000000000000000 
1 1000.00000000000000000 -200.00000000000011369 -449.99999999999994316 0.00000000000000000 -1.00000000000000000 0.00000000000000000 -1.00000000000000000 0.00000000000000000 0.00000000000000000 -0.00000000000000000 -0.00000000000000000 -1.00000000000000000 
1 1000.00000000000000000 199.99999999999988631 -449.99999999999994316 1.00000000000000000 0.00000000000000000 0.00000000000000000 0.00000000000000000 -1.00000000000000000 0.00000000000000000 0.00000000000000000 0.00000000000000000 -1.00000000000000000 
1 400.00000000000000000 799.99999999999988631 -449.99999999999994316 0.00000000000000000 1.00000000000000000 0.00000000000000000 1.00000000000000000 0.00000000000000000 0.00000000000000000 0.00000000000000000 0.00000000000000000 -1.00000000000000000 
1 350.00000000000000000 724.99999999999988631 -449.99999999999994316 -0.83205029433784372 0.55470019622522915 0.00000000000000000 0.55470019622522915 0.83205029433784372 0.00000000000000000 0.00000000000000000 0.00000000000000000 -1.00000000000000000 
1 150.00000000000000000 724.99999999999988631 -449.99999999999994316 0.00000000000000000 1.00000000000000000 0.00000000000000000 1.00000000000000000 0.00000000000000000 0.00000000000000000 0.00000000000000000 0.00000000000000000 -1.00000000000000000 
1 100.00000000000000000 799.99999999999988631 -449.99999999999994316 0.83205029433784372 0.55470019622522915 0.00000000000000000 0.55470019622522915 -0.83205029433784372 0.00000000000000000 0.00000000000000000 0.00000000000000000 -1.00000000000000000 
1 500.00000000000000000 -200.00000000000011369 -449.99999999999994316 0.00000000000000000 -1.00000000000000000 0.00000000000000000 -1.00000000000000000 0.00000000000000000 0.00000000000000000 -0.00000000000000000 -0.00000000000000000 -1.00000000000000000 
1 0.00000000000000000 450.00000000000000000 0.00000000000000000 -0.00000000000000000 1.00000000000000000 0.00000000000000000 0.00000000000000000 0.00000000000000000 1.00000000000000000 1.00000000000000000 0.00000000000000000 -0.00000000000000000 
Triangulations 0

TShapes 187
Ve
0.000000100000638
0.000000000000000 449.999999999999773 800.000000000000000
0 0

0101101
*
Ve
0.000000100000502
0.000000000000000 -50.000000000000227 799.999999999999886
0 0

0101101
*
Ed
 0.000000100000502 1 1 0
1  1 0 0.000000000000000 500.000000000000000
2  1 2 0 0.000000000000000 500.000000000000000
0

0101000
+187 3 -186 3 *
Ve
0.000000100000638
100.000000000000000 449.999999999999773 800.000000000000000
0 0

0101101
*
Ve
0.000000100000000
100.000000000000000 -50.000000000000227 799.999999999999886
0 0

0101101
*
Ed
 0.000000100000000 1 1 0
1  2 0 0.000000000000000 500.000000000000000
0

0101000
+184 3 -183 3 *
Ed
 0.000000100000638 1 1 0
1  3 0 0.000000000000000 100.000000000000000
2  2 3 7 0.000000000000000 100.000000000000000
2  3 4 8 0.000000000000000 100.000000000000000
0

0101000
+187 8 -184 8 *
Ed
 0.000000100000000 1 1 0
1  4 0 0.000000000000000 100.000000000000000
0

0101000
+186 11 -183 11 *
Wi

0101100
+185 0 -182 0 -181 6 +180 10 *
Fa
0  0.000000100000000 1 0

0111000
+179 0 *
Ve
0.000000100000502
0.000000000000000 -50.000000000000000 -200.000000000000114
0 0

0101101
*
Ed
 0.000000100000502 1 1 0
1  5 0 0.000000000000000 1000.000000000000000
2  4 2 13 0.000000000000000 1000.000000000000000
0

0101000
+177 11 -186 11 *
Ve
0.000000100000000
150.000000000000000 -50.000000000000227 724.999999999999886
0 0

0101101
*
Ed
 0.000000100000000 1 1 0
1  6 0 0.000000000000000 90.138781886599730
0

0101000
+183 11 -175 11 *
Ve
0.000000100000000
350.000000000000000 -50.000000000000227 724.999999999999886
0 0

0101101
*
Ed
 0.000000100000000 1 1 0
1  7 0 0.000000000000000 200.000000000000000
0

0101000
+175 11 -173 11 *
Ve
0.000000100000000
400.000000000000000 -50.000000000000227 799.999999999999886
0 0

0101101
*
Ed
 0.000000100000000 1 1 0
1  8 0 0.000000000000000 90.138781886599730
0

0101000
+173 11 -171 11 *
Ve
0.000000100000638
500.000000000000000 -50.000000000000227 799.999999999999886
0 0

0101101
*
Ed
 0.000000100000000 1 1 0
1  9 0 0.000000000000000 100.000000000000000
0

0101000
+171 11 -169 11 *
Ve
0.000000100000638
500.000000000000000 -50.000000000000114 199.999999999999886
0 0

0101101
*
Ed
 0.000000100000638 1 1 0
1  10 0 0.000000000000000 600.000000000000000
2  5 6 13 0.000000000000000 600.000000000000000
0

0101000
+169 11 -167 11 *
Ve
0.000000100000000
1000.000000000000000 -50.000000000000114 199.999999999999886
0 0

0101101
*
Ed
 0.000000100000000 1 1 0
1  11 0 0.000000000000000 500.000000000000000
2  6 7 13 0.000000000000000 500.000000000000000
0

0101000
+167 11 -165 11 *
Ve
0.000000100000000
1000.000000000000000 -50.000000000000000 -200.000000000000114
0 0

0101101
*
Ed
 0.000000100000000 1 1 0
1  12 0 0.000000000000000 400.000000000000000
0

0101000
+165 11 -163 11 *
Ve
0.000000100000000
968.000000000000000 -50.000000000000000 -200.000000000000114
0 0

0101101
*
Ed
 0.000000100000000 1 1 0
1  13 0 0.000000000000000 32.000000000000000
0

0101000
+163 11 -161 11 *
Ve
0.000000100000000
968.000000000000000 -50.000000000000057 167.999999999999886
0 0

0101101
*
Ed
 0.000000100000000 1 1 0
1  14 0 0.000000000000000 368.000000000000000
0

0101000
+161 11 -159 11 *
Ve
0.000000100000180
500.000000000000000 -50.000000000000057 167.999999999999886
0 0

0101101
*
Ed
 0.000000100000000 1 1 0
1  15 0 0.000000000000000 468.000000000000000
0

0101000
+159 11 -157 11 *
Ve
0.000000100000180
500.000000000000000 -50.000000000000000 -200.000000000000114
0 0

0101101
*
Ed
 0.000000100000180 1 1 0
1  16 0 0.000000000000000 368.000000000000000
2  7 8 13 0.000000000000000 368.000000000000000
0

0101000
+157 11 -155 11 *
Ve
0.000000100000000
468.000000000000000 -50.000000000000000 -200.000000000000114
0 0

0101101
*
Ed
 0.000000100000000 1 1 0
1  17 0 0.000000000000000 32.000000000000000
0

0101000
+155 11 -153 11 *
Ve
0.000000100000000
468.000000000000000 -50.000000000000227 767.999999999999886
0 0

0101101
*
Ed
 0.000000100000000 1 1 0
1  18 0 0.000000000000000 968.000000000000000
2  8 9 13 0.000000000000000 968.000000000000000
0

0101000
+153 11 -151 11 *
Ve
0.000000100000000
418.000000000000000 -50.000000000000227 767.999999999999886
0 0

0101101
*
Ed
 0.000000100000000 1 1 0
1  19 0 0.000000000000000 50.000000000000000
0

0101000
+151 11 -149 11 *
Ve
0.000000100000000
367.999999999999659 -50.000000000000171 692.999999999999886
0 0

0101101
*
Ed
 0.000000100000000 1 1 0
1  20 0 0.000000000000000 90.138781886599929
0

0101000
+149 11 -147 11 *
Ve
0.000000100000000
132.000000000000000 -50.000000000000171 692.999999999999886
0 0

0101101
*
Ed
 0.000000100000000 1 1 0
1  21 0 0.000000000000000 235.999999999999659
0

0101000
+147 11 -145 11 *
Ve
0.000000100000000
82.000000000000000 -50.000000000000227 767.999999999999886
0 0

0101101
*
Ed
 0.000000100000000 1 1 0
1  22 0 0.000000000000000 90.138781886599730
0

0101000
+145 11 -143 11 *
Ve
0.000000100000000
32.000000000000000 -50.000000000000227 767.999999999999886
0 0

0101101
*
Ed
 0.000000100000000 1 1 0
1  23 0 0.000000000000000 50.000000000000000
0

0101000
+143 11 -141 11 *
Ve
0.000000100000000
32.000000000000000 -50.000000000000000 -200.000000000000114
0 0

0101101
*
Ed
 0.000000100000000 1 1 0
1  24 0 0.000000000000000 968.000000000000000
2  9 10 13 0.000000000000000 968.000000000000000
0

0101000
+141 11 -139 11 *
Ed
 0.000000100000000 1 1 0
1  25 0 0.000000000000000 32.000000000000000
0

0101000
+139 11 -177 11 *
Wi

0101100
+176 0 +180 0 +174 0 +172 0 +170 0 +168 0 +166 0 +164 0 +162 0 +160 0 
+158 0 +156 0 +154 0 +152 0 +150 0 +148 0 +146 0 +144 0 +142 0 +140 0 
+138 0 +137 0 *
Fa
0  0.000000100000000 5 0

0111000
+136 4 *
Ve
0.000000100000638
32.000000000000000 450.000000000000000 -200.000000000000000
0 0

0101101
*
Ed
 0.000000100000000 1 1 0
1  26 0 0.000000000000000 500.000000000000000
2  10 10 0 0.000000000000000 500.000000000000000
0

0101000
+134 3 -139 3 *
Ve
0.000000100000638
0.000000000000000 450.000000000000000 -200.000000000000000
0 0

0101101
*
Ed
 0.000000100000502 1 1 0
1  27 0 0.000000000000000 500.000000000000000
2  11 2 0 0.000000000000000 500.000000000000000
0

0101000
+132 3 -177 3 *
Ed
 0.000000100000638 1 1 0
1  28 0 0.000000000000000 32.000000000000000
2  12 3 7 0.000000000000000 32.000000000000000
2  13 4 8 0.000000000000000 32.000000000000000
0

0101000
+134 8 -132 8 *
Wi

0101100
+133 0 -131 0 -130 6 +137 10 *
Fa
0  0.000000100000000 11 0

0111000
+129 0 *
Ve
0.000000100000057
32.000000000000000 449.999999999999773 768.000000000000000
0 0

0101101
*
Ve
0.000000150000000
32.000000000000000 450.000000000000000 12.000000000000000
0 0

0101101
*
Ed
 0.000000100000057 1 1 0
1  29 0 0.000000000000000 756.000000000000000
2  14 3 7 0.000000000000000 756.000000000000000
2  15 10 15 0.000000000000000 756.000000000000000
2  16 4 8 0.000000000000000 756.000000000000000
0

0101000
+127 8 -126 8 *
Ve
0.000000150000000
32.000000000000000 0.000000000000000 12.000000000000000
0 0

0101101
*
Ed
 0.000000150000000 1 1 0
1  30 0 -225.000000000000114 224.999999999999886
2  17 10 2 -225.000000000000114 224.999999999999886
2  18 12 0 -225.000000000000114 224.999999999999886
0

0101000
+126 0 -124 0 *
Ve
0.000000150000000
32.000000000000000 0.000000000000000 0.000000000000000
0 0

0101101
*
Ed
 0.000000150000000 1 1 0
1  31 0 -384.000000000000000 -372.000000000000000
2  19 10 2 -384.000000000000000 -372.000000000000000
2  20 13 0 -384.000000000000000 -372.000000000000000
0

0101000
+122 0 -124 0 *
Ve
0.000000150000000
32.000000000000000 450.000000000000000 0.000000000000000
0 0

0101101
*
Ed
 0.000000150000000 1 1 0
1  32 0 -225.000000000000114 224.999999999999886
2  21 10 2 -225.000000000000114 224.999999999999886
2  22 14 0 -225.000000000000114 224.999999999999886
0

0101000
+120 0 -122 0 *
Ed
 0.000000100000638 1 1 0
1  29 0 768.000000000000000 968.000000000000000
2  14 3 7 768.000000000000000 968.000000000000000
2  15 10 15 768.000000000000000 968.000000000000000
2  23 4 8 768.000000000000000 968.000000000000000
0

0101000
+120 8 -134 8 *
Ed
 0.000000100000000 1 1 0
1  33 0 0.000000000000000 500.000000000000000
2  24 10 0 0.000000000000000 500.000000000000000
0

0101000
+127 3 -141 3 *
Wi

0101100
-125 14 -123 0 +121 0 +119 0 -118 14 -133 2 +138 16 +117 2 *
Fa
0  0.000000100000000 10 2

0111000
+116 0 *
Ve
0.000000100000057
82.000000000000000 449.999999999999773 768.000000000000000
0 0

0101101
*
Ed
 0.000000100000000 1 1 0
1  34 0 0.000000000000000 500.000000000000000
0

0101000
+114 3 -143 3 *
Ed
 0.000000100000057 1 1 0
1  35 0 0.000000000000000 50.000000000000000
2  25 3 7 0.000000000000000 50.000000000000000
2  26 4 8 0.000000000000000 50.000000000000000
0

0101000
+114 8 -127 8 *
Wi

0101100
+113 0 -117 0 -112 6 +140 10 *
Fa
0  0.000000100000000 15 0

0111000
+111 0 *
Ve
0.000000100000057
132.000000000000000 449.999999999999829 693.000000000000000
0 0

0101101
*
Ed
 0.000000100000000 1 1 0
1  36 0 0.000000000000000 500.000000000000000
0

0101000
+109 3 -145 3 *
Ed
 0.000000100000057 1 1 0
1  37 0 0.000000000000000 90.138781886599730
2  27 3 7 0.000000000000000 90.138781886599730
2  28 4 8 0.000000000000000 90.138781886599730
0

0101000
+109 8 -114 8 *
Wi

0101100
+108 0 -113 0 -107 6 +142 10 *
Fa
0  0.000000100000000 16 0

0111000
+106 0 *
Ve
0.000000100000057
367.999999999999659 449.999999999999829 693.000000000000000
0 0

0101101
*
Ed
 0.000000100000000 1 1 0
1  38 0 0.000000000000000 500.000000000000000
0

0101000
+104 3 -147 3 *
Ed
 0.000000100000057 1 1 0
1  39 0 0.000000000000000 235.999999999999659
2  29 3 7 0.000000000000000 235.999999999999659
2  30 4 8 0.000000000000000 235.999999999999659
0

0101000
+104 8 -109 8 *
Wi

0101100
+103 0 -108 0 -102 6 +144 10 *
Fa
0  0.000000100000000 17 0

0111000
+101 0 *
Ve
0.000000100000057
418.000000000000000 449.999999999999773 768.000000000000000
0 0

0101101
*
Ed
 0.000000100000000 1 1 0
1  40 0 0.000000000000000 500.000000000000000
0

0101000
+99 3 -149 3 *
Ed
 0.000000100000057 1 1 0
1  41 0 0.000000000000000 90.138781886599929
2  31 3 7 0.000000000000000 90.138781886599929
2  32 4 8 0.000000000000000 90.138781886599929
0

0101000
+99 8 -104 8 *
Wi

0101100
+98 0 -103 0 -97 6 +146 10 *
Fa
0  0.000000100000000 18 0

0111000
+96 0 *
Ve
0.000000100000057
468.000000000000000 449.999999999999773 768.000000000000000
0 0

0101101
*
Ed
 0.000000100000000 1 1 0
1  42 0 0.000000000000000 500.000000000000000
2  33 9 0 0.000000000000000 500.000000000000000
0

0101000
+94 3 -151 3 *
Ed
 0.000000100000057 1 1 0
1  43 0 0.000000000000000 50.000000000000000
2  34 3 7 0.000000000000000 50.000000000000000
2  35 4 8 0.000000000000000 50.000000000000000
0

0101000
+94 8 -99 8 *
Wi

0101100
+93 0 -98 0 -92 6 +148 10 *
Fa
0  0.000000100000000 19 0

0111000
+91 0 *
Ve
0.000000100000638
468.000000000000000 450.000000000000000 -200.000000000000000
0 0

0101101
*
Ve
0.000000212133075
468.000000000000000 450.000000000000000 0.000000000000000
0 0

0101101
*
Ed
 0.000000100000638 1 1 0
1  44 0 0.000000000000000 200.000000000000000
2  36 3 7 0.000000000000000 200.000000000000000
2  37 9 15 0.000000000000000 200.000000000000000
2  38 4 8 0.000000000000000 200.000000000000000
0

0101000
+89 8 -88 8 *
Ve
0.000000212133034
468.000000000000000 0.000000000000000 0.000000000000000
0 0

0101101
*
Ed
 0.000000150000000 1 1 0
1  45 0 -225.000000000000000 225.000000000000000
2  39 9 2 -225.000000000000000 225.000000000000000
2  40 14 0 -225.000000000000000 225.000000000000000
2  41 20 19 -225.000000000000000 225.000000000000000
2  42 21 22 -225.000000000000000 225.000000000000000
2  43 22 25 -225.000000000000000 225.000000000000000
0

0101000
+86 0 -88 0 *
Ve
0.000000212133034
468.000000000000000 0.000000000000000 12.000000000000000
0 0

0101101
*
Ed
 0.000000150000000 1 1 0
1  46 0 -112.000000000000000 -100.000000000000000
2  44 9 2 -112.000000000000000 -100.000000000000000
2  45 13 0 -112.000000000000000 -100.000000000000000
2  46 23 19 -112.000000000000000 -100.000000000000000
2  47 24 22 -112.000000000000000 -100.000000000000000
2  48 25 25 -112.000000000000000 -100.000000000000000
0

0101000
+84 0 -86 0 *
Ve
0.000000212133075
468.000000000000000 450.000000000000000 12.000000000000000
0 0

0101101
*
Ed
 0.000000150000000 1 1 0
1  47 0 -225.000000000000000 225.000000000000000
2  49 9 2 -225.000000000000000 225.000000000000000
2  50 12 0 -225.000000000000000 225.000000000000000
2  51 26 19 -225.000000000000000 225.000000000000000
2  52 27 22 -225.000000000000000 225.000000000000000
2  53 28 25 -225.000000000000000 225.000000000000000
0

0101000
+84 0 -82 0 *
Ed
 0.000000100000057 1 1 0
1  44 0 212.000000000000000 968.000000000000000
2  36 3 7 212.000000000000000 968.000000000000000
2  37 9 15 212.000000000000000 968.000000000000000
2  54 4 8 212.000000000000000 968.000000000000000
0

0101000
+82 8 -94 8 *
Ed
 0.000000100000000 1 1 0
1  48 0 0.000000000000000 500.000000000000000
2  55 9 0 0.000000000000000 500.000000000000000
0

0101000
+89 3 -153 3 *
Wi

0101100
-87 14 +85 0 +83 0 -81 0 -80 14 -93 2 +150 16 +79 2 *
Fa
0  0.000000100000000 9 2

0111000
+78 0 *
Ve
0.000000100000638
968.000000000000000 449.999999999999943 168.000000000000000
0 0

0101101
*
Ed
 0.000000100000000 1 1 0
1  49 0 0.000000000000000 500.000000000000000
0

0101000
+76 3 -159 3 *
Ve
0.000000100000638
500.000000000000000 449.999999999999943 168.000000000000000
0 0

0101101
*
Ed
 0.000000100000180 1 1 0
1  50 0 0.000000000000000 500.000000000000000
2  56 8 0 0.000000000000000 500.000000000000000
0

0101000
+74 3 -157 3 *
Ed
 0.000000100000638 1 1 0
1  51 0 0.000000000000000 468.000000000000000
2  57 3 7 0.000000000000000 468.000000000000000
2  58 4 8 0.000000000000000 468.000000000000000
0

0101000
+76 8 -74 8 *
Wi

0101100
+75 0 -73 0 -72 6 +156 10 *
Fa
0  0.000000100000000 29 0

0111000
+71 0 *
Ve
0.000000100000638
968.000000000000000 450.000000000000000 -200.000000000000000
0 0

0101101
*
Ed
 0.000000100000000 1 1 0
1  52 0 0.000000000000000 500.000000000000000
0

0101000
+69 3 -161 3 *
Ed
 0.000000100000638 1 1 0
1  53 0 0.000000000000000 368.000000000000000
2  59 3 7 0.000000000000000 368.000000000000000
2  60 4 8 0.000000000000000 368.000000000000000
0

0101000
+69 8 -76 8 *
Wi

0101100
+68 0 -75 0 -67 6 +158 10 *
Fa
0  0.000000100000000 30 0

0111000
+66 0 *
Ve
0.000000100000638
1000.000000000000000 450.000000000000000 -200.000000000000000
0 0

0101101
*
Ed
 0.000000100000000 1 1 0
1  54 0 0.000000000000000 500.000000000000000
0

0101000
+64 3 -163 3 *
Ed
 0.000000100000638 1 1 0
1  55 0 0.000000000000000 32.000000000000000
2  61 3 7 0.000000000000000 32.000000000000000
2  62 4 8 0.000000000000000 32.000000000000000
0

0101000
+64 8 -69 8 *
Wi

0101100
+63 0 -68 0 -62 6 +160 10 *
Fa
0  0.000000100000000 31 0

0111000
+61 0 *
Ve
0.000000100000638
1000.000000000000000 449.999999999999886 200.000000000000000
0 0

0101101
*
Ed
 0.000000100000000 1 1 0
1  56 0 0.000000000000000 500.000000000000000
2  63 7 0 0.000000000000000 500.000000000000000
0

0101000
+59 3 -165 3 *
Ed
 0.000000100000638 1 1 0
1  57 0 0.000000000000000 400.000000000000000
2  64 3 7 0.000000000000000 400.000000000000000
2  65 4 8 0.000000000000000 400.000000000000000
0

0101000
+59 8 -64 8 *
Wi

0101100
+58 0 -63 0 -57 6 +162 10 *
Fa
0  0.000000100000000 32 0

0111000
+56 0 *
Ve
0.000000100000638
500.000000000000000 449.999999999999886 200.000000000000000
0 0

0101101
*
Ed
 0.000000100000638 1 1 0
1  58 0 0.000000000000000 500.000000000000000
2  66 6 0 0.000000000000000 500.000000000000000
2  67 7 0 0.000000000000000 500.000000000000000
0

0101000
+54 3 -167 3 *
Ed
 0.000000100000638 1 1 0
1  59 0 0.000000000000000 500.000000000000000
2  68 3 7 0.000000000000000 500.000000000000000
2  69 4 8 0.000000000000000 500.000000000000000
2  70 7 15 0.000000000000000 500.000000000000000
0

0101000
+54 8 -59 8 *
Wi

0101100
+53 0 -58 0 -52 6 +164 10 *
Fa
0  0.000000100000000 7 0

0111000
+51 0 *
Ve
0.000000100000638
500.000000000000000 449.999999999999773 800.000000000000000
0 0

0101101
*
Ed
 0.000000100000638 1 1 0
1  60 0 0.000000000000000 500.000000000000000
2  71 6 0 0.000000000000000 500.000000000000000
0

0101000
+49 3 -169 3 *
Ed
 0.000000100000180 1 1 0
1  61 0 0.000000000000000 600.000000000000000
2  72 3 7 0.000000000000000 600.000000000000000
2  73 4 8 0.000000000000000 600.000000000000000
2  74 6 15 0.000000000000000 600.000000000000000
0

0101000
+49 8 -54 8 *
Wi

0101100
+48 0 -53 0 -47 6 +166 10 *
Fa
0  0.000000100000000 6 0

0111000
+46 0 *
Ve
0.000000100000638
400.000000000000000 449.999999999999773 800.000000000000000
0 0

0101101
*
Ed
 0.000000100000000 1 1 0
1  62 0 0.000000000000000 500.000000000000000
0

0101000
+44 3 -171 3 *
Ed
 0.000000100000638 1 1 0
1  63 0 0.000000000000000 100.000000000000000
2  75 3 7 0.000000000000000 100.000000000000000
2  76 4 8 0.000000000000000 100.000000000000000
0

0101000
+44 8 -49 8 *
Wi

0101100
+43 0 -48 0 -42 6 +168 10 *
Fa
0  0.000000100000000 33 0

0111000
+41 0 *
Ve
0.000000100000638
350.000000000000000 449.999999999999773 725.000000000000000
0 0

0101101
*
Ed
 0.000000100000000 1 1 0
1  64 0 0.000000000000000 500.000000000000000
0

0101000
+39 3 -173 3 *
Ed
 0.000000100000638 1 1 0
1  65 0 0.000000000000000 90.138781886599730
2  77 3 7 0.000000000000000 90.138781886599730
2  78 4 8 0.000000000000000 90.138781886599730
0

0101000
+39 8 -44 8 *
Wi

0101100
+38 0 -43 0 -37 6 +170 10 *
Fa
0  0.000000100000000 34 0

0111000
+36 0 *
Ve
0.000000100000638
150.000000000000000 449.999999999999773 725.000000000000000
0 0

0101101
*
Ed
 0.000000100000000 1 1 0
1  66 0 0.000000000000000 500.000000000000000
0

0101000
+34 3 -175 3 *
Ed
 0.000000100000638 1 1 0
1  67 0 0.000000000000000 200.000000000000000
2  79 3 7 0.000000000000000 200.000000000000000
2  80 4 8 0.000000000000000 200.000000000000000
0

0101000
+34 8 -39 8 *
Wi

0101100
+33 0 -38 0 -32 6 +172 10 *
Fa
0  0.000000100000000 35 0

0111000
+31 0 *
Ed
 0.000000100000638 1 1 0
1  68 0 0.000000000000000 90.138781886599730
2  81 3 7 0.000000000000000 90.138781886599730
2  82 4 8 0.000000000000000 90.138781886599730
0

0101000
+184 8 -34 8 *
Wi

0101100
+182 0 -33 0 -29 6 +174 10 *
Fa
0  0.000000100000000 36 0

0111000
+28 0 *
Ve
0.000000100000638
500.000000000000000 450.000000000000000 -200.000000000000000
0 0

0101101
*
Ed
 0.000000100000180 1 1 0
1  69 0 0.000000000000000 500.000000000000000
2  83 8 0 0.000000000000000 500.000000000000000
0

0101000
+26 3 -155 3 *
Ed
 0.000000100000638 1 1 0
1  70 0 0.000000000000000 32.000000000000000
2  84 3 7 0.000000000000000 32.000000000000000
2  85 4 8 0.000000000000000 32.000000000000000
0

0101000
+26 8 -89 8 *
Wi

0101100
+25 0 -79 0 -24 6 +152 10 *
Fa
0  0.000000100000000 37 0

0111000
+23 0 *
Ed
 0.000000100000057 1 1 0
1  71 0 32.000000000000000 468.000000000000000
2  86 38 0 32.000000000000000 468.000000000000000
2  87 12 0 32.000000000000000 468.000000000000000
2  88 4 0 32.000000000000000 468.000000000000000
0

0101000
+126 0 -82 0 *
Ed
 0.000000100000000 1 1 0
1  72 0 32.000000000000000 468.000000000000000
2  89 13 0 32.000000000000000 468.000000000000000
2  90 12 0 32.000000000000000 468.000000000000000
0

0101000
+124 0 -84 0 *
Wi

0101100
-21 0 +81 0 +20 0 +123 0 *
Fa
0  0.000000100000000 12 0

0111000
+19 0 *
Ed
 0.000000100000000 1 1 0
1  73 0 32.000000000000000 468.000000000000000
2  91 13 0 32.000000000000000 468.000000000000000
2  92 14 0 32.000000000000000 468.000000000000000
0

0101000
+122 0 -86 0 *
Wi

0101100
-17 0 +83 0 +20 0 +121 0 *
Fa
0  0.000000100000000 13 0

0111000
+16 0 *
Ed
 0.000000100000638 1 1 0
1  74 0 32.000000000000000 468.000000000000000
2  93 38 0 32.000000000000000 468.000000000000000
2  94 14 0 32.000000000000000 468.000000000000000
2  95 4 0 32.000000000000000 468.000000000000000
0

0101000
+120 0 -88 0 *
Wi

0101100
-14 0 +85 0 +17 0 +119 0 *
Fa
0  0.000000100000000 14 0

0111000
+13 0 *
Ed
 0.000000100000057 1 1 0
1  75 0 0.000000000000000 1000.000000000000000
2  96 2 2 0.000000000000000 1000.000000000000000
2  97 4 0 0.000000000000000 1000.000000000000000
0

0101000
+132 0 -187 0 *
Wi

0101000
+131 2 +176 16 -185 2 -11 0 *
Fa
0  0.000000100000057 2 2

0111000
+10 0 *
Ed
 0.000000100000638 1 1 0
1  76 0 0.000000000000000 368.000000000000000
2  98 8 2 0.000000000000000 368.000000000000000
2  99 4 0 0.000000000000000 368.000000000000000
0

0101000
+74 0 -26 0 *
Wi

0101000
+130 14 +11 0 +181 14 +29 14 +32 14 +37 14 +42 14 +47 14 +52 14 +57 14 
+62 14 +67 14 +72 14 +8 0 +24 14 +87 14 -14 0 +118 14 *
Wi

0101100
+21 0 +80 14 +92 14 +97 14 +102 14 +107 14 +112 14 +125 14 *
Fa
0  0.000000100000057 4 0

0111000
+7 0 +6 0 *
Wi

0101000
-8 0 +73 2 +154 16 -25 2 *
Fa
0  0.000000100000057 8 2

0111000
+4 0 *
Sh

0101000
+178 2 -135 12 +128 2 +115 0 +110 2 +105 2 +100 2 +95 2 +90 2 +77 0 
+70 2 +65 2 +60 2 +55 2 +50 2 +45 2 +40 2 +35 2 +30 2 +27 2 
+22 2 +18 0 -15 0 -12 0 +9 0 +5 0 +3 0 *
So

1100000
+2 0 *

+1 1 